FiraMath-Arrows.glyphspackage
{
glyphname = leftRightArrow;
layers = (
{
layerId = "D42A05F0-DBDC-4569-915A-03C7188507B6";
shapes = (
{
closed = 1;
nodes = (
(837,279,l),
(837,281,l),
(123,281,l),
(123,279,l)
);
},
{
pos = (100,0);
ref = arrowHead;
},
{
pos = (860,0);
ref = arrowHead;
scale = (-1,1);
}
);
width = 960;
},
{
layerId = "B2FE45D6-EF48-417F-ACCD-B60D15D1CAF3";
shapes = (
{
closed = 1;
nodes = (
(866,269,l),
(866,291,l),
(134,291,l),
(134,269,l)
);
},
{
pos = (100,0);
ref = arrowHead;
},
{
pos = (900,0);
ref = arrowHead;
scale = (-1,1);
}
);
width = 1000;
},
{
layerId = "D92A4C0B-EB2A-4209-AFE3-2959A8B274DD";
shapes = (
{
closed = 1;
nodes = (
(860,242,l),
(860,318,l),
(200,318,l),
(200,242,l)
);
},
{
pos = (80,0);
ref = arrowHead;
},
{
pos = (980,0);
ref = arrowHead;
scale = (-1,1);
}
);
width = 1060;
},
{
layerId = "B26C53A4-97D1-457B-8232-65310EC64496";
shapes = (
{
closed = 1;
nodes = (
(880,197,l),
(880,363,l),
(340,363,l),
(340,197,l)
);
},
{
pos = (120,0);
ref = arrowHead;
},
{
pos = (1100,0);
ref = arrowHead;
scale = (-1,1);
}
);
width = 1220;
}
);
metricLeft = leftArrow;
metricRight = rightArrow;
note = uni2194;
subCategory = Arrow;
unicode = 8596;
}
{
color = 4;
glyphname = upDownArrow;
layers = (
{
layerId = "C73C0C47-E6C6-445A-8A34-E4CE4D1E91FA";
shapes = (
{
closed = 1;
nodes = (
(288,-86,l),
(288,646,l),
(266,646,l),
(266,-86,l)
);
},
{
angle = -90;
pos = (-3,680);
ref = arrowHead;
},
{
angle = 90;
pos = (-3,-120);
ref = arrowHead;
scale = (1,-1);
}
);
width = 554;
},
{
layerId = "D83BBA30-9F2C-4CD6-96B7-4A74A7087E78";
shapes = (
{
closed = 1;
nodes = (
(370,-40,l),
(370,600,l),
(294,600,l),
(294,-40,l)
);
},
{
angle = -90;
pos = (52,720);
ref = arrowHead;
},
{
angle = 90;
pos = (52,-160);
ref = arrowHead;
scale = (1,-1);
}
);
width = 664;
},
{
layerId = "C41EA034-4E7F-46DC-9CBA-05541AA6484D";
shapes = (
{
closed = 1;
nodes = (
(489,40,l),
(489,520,l),
(323,520,l),
(323,40,l)
);
},
{
angle = -90;
pos = (126,740);
ref = arrowHead;
},
{
angle = 90;
pos = (126,-180);
ref = arrowHead;
scale = (1,-1);
}
);
width = 812;
}
);
note = uni2195;
unicode = 8597;
}
{
color = 8;
export = 0;
glyphname = leftStrokeArrow;
layers = (
{
layerId = "D42A05F0-DBDC-4569-915A-03C7188507B6";
width = 920;
},
{
layerId = "B2FE45D6-EF48-417F-ACCD-B60D15D1CAF3";
shapes = (
{
closed = 1;
nodes = (
(100,280,l),
(293,102,l),
(308,119,l),
(145,269,l),
(820,269,l),
(820,291,l),
(145,291,l),
(308,441,l),
(293,458,l)
);
},
{
closed = 1;
nodes = (
(441,117,l),
(461,107,l),
(639,443,l),
(619,453,l)
);
}
);
width = 920;
},
{
layerId = "D92A4C0B-EB2A-4209-AFE3-2959A8B274DD";
shapes = (
{
closed = 1;
nodes = (
(80,280,l),
(310,68,l),
(361,125,l),
(234,242,l),
(880,242,l),
(880,318,l),
(234,318,l),
(361,435,l),
(310,492,l)
);
},
{
closed = 1;
nodes = (
(450,110,l),
(516,72,l),
(730,450,l),
(664,488,l)
);
}
);
width = 960;
},
{
layerId = "B26C53A4-97D1-457B-8232-65310EC64496";
shapes = (
{
closed = 1;
nodes = (
(120,280,l),
(390,-6,l),
(498,99,l),
(404,197,l),
(990,197,l),
(990,363,l),
(404,363,l),
(498,461,l),
(390,566,l)
);
},
{
closed = 1;
nodes = (
(540,69,l),
(690,-2,l),
(920,491,l),
(770,562,l)
);
}
);
width = 1110;
}
);
note = uni219A;
subCategory = Arrow;
unicode = 8602;
}
{
color = 8;
export = 0;
glyphname = rightStrokeArrow;
layers = (
{
layerId = "D42A05F0-DBDC-4569-915A-03C7188507B6";
width = 920;
},
{
layerId = "B2FE45D6-EF48-417F-ACCD-B60D15D1CAF3";
shapes = (
{
closed = 1;
nodes = (
(100,269,l),
(775,269,l),
(612,119,l),
(627,102,l),
(820,280,l),
(627,458,l),
(612,441,l),
(775,291,l),
(100,291,l)
);
},
{
closed = 1;
nodes = (
(281,117,l),
(301,107,l),
(479,443,l),
(459,453,l)
);
}
);
width = 920;
},
{
layerId = "D92A4C0B-EB2A-4209-AFE3-2959A8B274DD";
shapes = (
{
closed = 1;
nodes = (
(80,242,l),
(726,242,l),
(599,125,l),
(650,68,l),
(880,280,l),
(650,492,l),
(599,435,l),
(726,318,l),
(80,318,l)
);
},
{
closed = 1;
nodes = (
(230,110,l),
(296,72,l),
(510,450,l),
(444,488,l)
);
}
);
width = 960;
},
{
layerId = "B26C53A4-97D1-457B-8232-65310EC64496";
shapes = (
{
closed = 1;
nodes = (
(120,197,l),
(706,197,l),
(612,99,l),
(720,-6,l),
(990,280,l),
(720,566,l),
(612,461,l),
(706,363,l),
(120,363,l)
);
},
{
closed = 1;
nodes = (
(186,69,l),
(336,-2,l),
(566,491,l),
(416,562,l)
);
}
);
width = 1110;
}
);
note = uni219B;
subCategory = Arrow;
unicode = 8603;
}
{
export = 0;
glyphname = leftWaveArrow;
layers = (
{
layerId = "C73C0C47-E6C6-445A-8A34-E4CE4D1E91FA";
shapes = (
{
closed = 1;
nodes = (
(100,341,l),
(201,99,l),
(222,108,l),
(136,312,l),
(197,252,o),
(256,232,o),
(334,232,cs),
(431,232,o),
(483,306,o),
(574,306,cs),
(649,306,o),
(700,283,o),
(759,229,c),
(775,245,l),
(714,305,o),
(652,328,o),
(574,328,cs),
(477,328,o),
(419,254,o),
(334,254,cs),
(259,254,o),
(205,278,o),
(146,332,c),
(356,401,l),
(349,422,l)
);
}
);
width = 875;
},
{
layerId = "D83BBA30-9F2C-4CD6-96B7-4A74A7087E78";
shapes = (
{
closed = 1;
nodes = (
(120,417,l),
(186,111,l),
(261,128,l),
(224,297,l),
(282,239,o),
(345,204,o),
(447,204,cs),
(543,204,o),
(605,281,o),
(693,281,cs),
(759,281,o),
(809,255,o),
(855,207,c),
(910,263,l),
(852,321,o),
(789,356,o),
(687,356,cs),
(591,356,o),
(529,279,o),
(441,279,cs),
(366,279,o),
(319,312,o),
(270,359,c),
(439,382,l),
(430,458,l)
);
}
);
width = 1030;
},
{
layerId = "C41EA034-4E7F-46DC-9CBA-05541AA6484D";
shapes = (
{
closed = 1;
nodes = (
(120,548,l),
(129,155,l),
(280,161,l),
(276,296,l),
(337,227,o),
(438,143,o),
(582,143,cs),
(763,143,o),
(777,251,o),
(917,251,cs),
(1013,251,o),
(1103,141,o),
(1103,141,c),
(1215,264,l),
(1215,264,o),
(1094,417,o),
(909,417,cs),
(728,417,o),
(714,309,o),
(574,309,cs),
(494,309,o),
(426,372,o),
(387,420,c),
(522,430,l),
(512,580,l)
);
}
);
width = 1335;
}
);
note = uni219C;
unicode = 8604;
}
{
export = 0;
glyphname = rightWaveArrow;
layers = (
{
layerId = "C73C0C47-E6C6-445A-8A34-E4CE4D1E91FA";
shapes = (
{
closed = 1;
nodes = (
(116,229,l),
(175,283,o),
(226,306,o),
(301,306,cs),
(392,306,o),
(444,232,o),
(541,232,cs),
(619,232,o),
(678,252,o),
(739,312,c),
(653,108,l),
(674,99,l),
(775,341,l),
(526,422,l),
(519,401,l),
(729,332,l),
(670,278,o),
(616,254,o),
(541,254,cs),
(456,254,o),
(398,328,o),
(301,328,cs),
(223,328,o),
(161,305,o),
(100,245,c)
);
}
);
width = 875;
},
{
layerId = "D83BBA30-9F2C-4CD6-96B7-4A74A7087E78";
shapes = (
{
closed = 1;
nodes = (
(175,207,l),
(221,255,o),
(271,281,o),
(337,281,cs),
(425,281,o),
(487,204,o),
(583,204,cs),
(685,204,o),
(748,239,o),
(806,297,c),
(769,128,l),
(844,111,l),
(910,417,l),
(600,458,l),
(591,382,l),
(760,359,l),
(711,312,o),
(664,279,o),
(589,279,cs),
(501,279,o),
(439,356,o),
(343,356,cs),
(241,356,o),
(178,321,o),
(120,263,c)
);
}
);
width = 1030;
},
{
layerId = "C41EA034-4E7F-46DC-9CBA-05541AA6484D";
shapes = (
{
closed = 1;
nodes = (
(232,141,l),
(232,141,o),
(322,251,o),
(418,251,cs),
(558,251,o),
(572,143,o),
(753,143,cs),
(897,143,o),
(998,227,o),
(1059,296,c),
(1055,161,l),
(1206,155,l),
(1215,548,l),
(823,580,l),
(813,430,l),
(948,420,l),
(909,372,o),
(841,309,o),
(761,309,cs),
(621,309,o),
(607,417,o),
(426,417,cs),
(241,417,o),
(120,264,o),
(120,264,c)
);
}
);
width = 1335;
}
);
note = uni219D;
unicode = 8605;
}
{
color = 4;
glyphname = leftTwoheadedArrow;
layers = (
{
layerId = "C73C0C47-E6C6-445A-8A34-E4CE4D1E91FA";
shapes = (
{
closed = 1;
nodes = (
(820,269,l),
(820,291,l),
(134,291,l),
(134,269,l)
);
},
{
pos = (100,0);
ref = arrowHead;
},
{
pos = (240,0);
ref = arrowHead;
}
);
width = 920;
},
{
layerId = "D83BBA30-9F2C-4CD6-96B7-4A74A7087E78";
shapes = (
{
closed = 1;
nodes = (
(920,242,l),
(920,318,l),
(240,318,l),
(240,242,l)
);
},
{
pos = (120,0);
ref = arrowHead;
},
{
pos = (320,0);
ref = arrowHead;
}
);
width = 1040;
},
{
layerId = "C41EA034-4E7F-46DC-9CBA-05541AA6484D";
shapes = (
{
closed = 1;
nodes = (
(1030,197,l),
(1030,363,l),
(340,363,l),
(340,197,l)
);
},
{
pos = (120,0);
ref = arrowHead;
},
{
pos = (390,0);
ref = arrowHead;
}
);
width = 1150;
}
);
note = uni219E;
unicode = 8606;
}
{
color = 4;
glyphname = leftTailArrow;
layers = (
{
layerId = "C73C0C47-E6C6-445A-8A34-E4CE4D1E91FA";
shapes = (
{
closed = 1;
nodes = (
(640,269,l),
(640,291,l),
(134,291,l),
(134,269,l)
);
},
{
pos = (100,0);
ref = arrowHead;
},
{
pos = (612,0);
ref = arrowTail;
}
);
width = 920;
},
{
layerId = "D83BBA30-9F2C-4CD6-96B7-4A74A7087E78";
shapes = (
{
closed = 1;
nodes = (
(740,242,l),
(740,318,l),
(240,318,l),
(240,242,l)
);
},
{
pos = (120,0);
ref = arrowHead;
},
{
pos = (660,0);
ref = arrowTail;
}
);
width = 1060;
},
{
layerId = "C41EA034-4E7F-46DC-9CBA-05541AA6484D";
shapes = (
{
closed = 1;
nodes = (
(760,197,l),
(760,363,l),
(340,363,l),
(340,197,l)
);
},
{
pos = (120,0);
ref = arrowHead;
},
{
pos = (632,0);
ref = arrowTail;
}
);
width = 1130;
}
);
note = uni21A2;
unicode = 8610;
}
{
export = 0;
glyphname = upDownbaseArrow;
layers = (
{
layerId = "C73C0C47-E6C6-445A-8A34-E4CE4D1E91FA";
shapes = (
{
closed = 1;
nodes = (
(100,79,l),
(278,-114,l),
(456,79,l),
(439,94,l),
(289,-69,l),
(289,625,l),
(439,462,l),
(456,477,l),
(278,670,l),
(100,477,l),
(117,462,l),
(267,625,l),
(267,-69,l),
(117,94,l)
);
},
{
closed = 1;
nodes = (
(102,-110,l),
(102,-132,l),
(454,-132,l),
(454,-110,l)
);
}
);
width = 556;
},
{
layerId = "D83BBA30-9F2C-4CD6-96B7-4A74A7087E78";
shapes = (
{
closed = 1;
nodes = (
(120,70,l),
(332,-160,l),
(544,70,l),
(487,121,l),
(370,-6,l),
(370,566,l),
(487,439,l),
(544,490,l),
(332,720,l),
(120,490,l),
(177,439,l),
(294,566,l),
(294,-6,l),
(177,121,l)
);
},
{
closed = 1;
nodes = (
(140,-150,l),
(140,-226,l),
(524,-226,l),
(524,-150,l)
);
}
);
width = 664;
},
{
layerId = "C41EA034-4E7F-46DC-9CBA-05541AA6484D";
shapes = (
{
closed = 1;
nodes = (
(120,90,l),
(406,-180,l),
(692,90,l),
(587,198,l),
(489,104,l),
(489,456,l),
(587,362,l),
(692,470,l),
(406,740,l),
(120,470,l),
(225,362,l),
(323,456,l),
(323,104,l),
(225,198,l)
);
},
{
closed = 1;
nodes = (
(136,-164,l),
(136,-330,l),
(676,-330,l),
(676,-164,l)
);
}
);
width = 812;
}
);
note = uni21A8;
unicode = 8616;
}
{
color = 4;
glyphname = leftHookArrow;
layers = (
{
layerId = "C73C0C47-E6C6-445A-8A34-E4CE4D1E91FA";
shapes = (
{
closed = 1;
nodes = (
(718,269,ls),
(774,269,o),
(820,315,o),
(820,371,cs),
(820,427,o),
(774,473,o),
(718,473,cs),
(670,473,l),
(670,451,l),
(718,451,ls),
(762,451,o),
(798,415,o),
(798,371,cs),
(798,327,o),
(762,291,o),
(718,291,cs),
(134,291,l),
(134,269,l)
);
},
{
pos = (100,0);
ref = arrowHead;
}
);
width = 920;
},
{
layerId = "D83BBA30-9F2C-4CD6-96B7-4A74A7087E78";
shapes = (
{
closed = 1;
nodes = (
(770,242,ls),
(853,242,o),
(920,309,o),
(920,392,cs),
(920,475,o),
(853,542,o),
(770,542,cs),
(710,542,l),
(710,466,l),
(770,466,ls),
(811,466,o),
(844,433,o),
(844,392,cs),
(844,351,o),
(811,318,o),
(770,318,cs),
(240,318,l),
(240,242,l)
);
},
{
pos = (120,0);
ref = arrowHead;
}
);
width = 1040;
},
{
layerId = "C41EA034-4E7F-46DC-9CBA-05541AA6484D";
shapes = (
{
closed = 1;
nodes = (
(812,197,ls),
(932,197,o),
(1030,295,o),
(1030,415,cs),
(1030,535,o),
(932,633,o),
(812,633,cs),
(732,633,l),
(732,467,l),
(812,467,ls),
(841,467,o),
(864,444,o),
(864,415,cs),
(864,386,o),
(841,363,o),
(812,363,cs),
(340,363,l),
(340,197,l)
);
},
{
pos = (120,0);
ref = arrowHead;
}
);
width = 1150;
}
);
note = uni21A9;
unicode = 8617;
}
{
color = 4;
glyphname = leftLoopArrow;
layers = (
{
layerId = "C73C0C47-E6C6-445A-8A34-E4CE4D1E91FA";
shapes = (
{
closed = 1;
nodes = (
(638,111,l),
(638,371,ls),
(638,415,o),
(674,451,o),
(718,451,cs),
(762,451,o),
(798,415,o),
(798,371,cs),
(798,327,o),
(762,291,o),
(718,291,c),
(134,291,l),
(134,269,l),
(718,269,l),
(774,269,o),
(820,315,o),
(820,371,cs),
(820,427,o),
(774,473,o),
(718,473,cs),
(662,473,o),
(616,427,o),
(616,371,cs),
(616,111,l)
);
},
{
pos = (100,0);
ref = arrowHead;
}
);
width = 920;
},
{
layerId = "D83BBA30-9F2C-4CD6-96B7-4A74A7087E78";
shapes = (
{
closed = 1;
nodes = (
(696,88,l),
(696,392,ls),
(696,433,o),
(729,466,o),
(770,466,cs),
(811,466,o),
(844,433,o),
(844,392,cs),
(844,351,o),
(811,318,o),
(770,318,c),
(240,318,l),
(240,242,l),
(770,242,l),
(853,242,o),
(920,309,o),
(920,392,cs),
(920,475,o),
(853,542,o),
(770,542,cs),
(687,542,o),
(620,475,o),
(620,392,cs),
(620,88,l)
);
},
{
pos = (120,0);
ref = arrowHead;
}
);
width = 1040;
},
{
layerId = "C41EA034-4E7F-46DC-9CBA-05541AA6484D";
shapes = (
{
closed = 1;
nodes = (
(800,-13,l),
(800,415,ls),
(800,444,o),
(823,467,o),
(852,467,cs),
(881,467,o),
(904,444,o),
(904,415,cs),
(904,386,o),
(881,363,o),
(852,363,c),
(340,363,l),
(340,197,l),
(852,197,l),
(972,197,o),
(1070,295,o),
(1070,415,cs),
(1070,535,o),
(972,633,o),
(852,633,cs),
(732,633,o),
(634,535,o),
(634,415,cs),
(634,-13,l)
);
},
{
pos = (120,0);
ref = arrowHead;
}
);
width = 1190;
}
);
note = uni21AB;
unicode = 8619;
}
{
color = 4;
glyphname = leftRightWaveArrow;
layers = (
{
layerId = "C73C0C47-E6C6-445A-8A34-E4CE4D1E91FA";
shapes = (
{
closed = 1;
nodes = (
(678,134,o),
(686,269,o),
(745,269,cs),
(926,269,l),
(926,291,l),
(742,291,ls),
(672,291,o),
(659,156,o),
(610,156,cs),
(542,156,o),
(539,426,o),
(450,426,cs),
(382,426,o),
(374,291,o),
(315,291,cs),
(134,291,l),
(134,269,l),
(318,269,ls),
(388,269,o),
(401,404,o),
(450,404,cs),
(518,404,o),
(521,134,o),
(610,134,cs)
);
},
{
pos = (100,0);
ref = arrowHead;
},
{
pos = (960,0);
ref = arrowHead;
scale = (-1,1);
}
);
width = 1060;
},
{
layerId = "D83BBA30-9F2C-4CD6-96B7-4A74A7087E78";
shapes = (
{
closed = 1;
nodes = (
(772,120,o),
(783,242,o),
(870,242,cs),
(990,242,l),
(990,318,l),
(870,318,ls),
(746,318,o),
(721,196,o),
(688,196,cs),
(643,196,o),
(664,440,o),
(542,440,cs),
(458,440,o),
(447,318,o),
(360,318,cs),
(240,318,l),
(240,242,l),
(360,242,ls),
(484,242,o),
(509,364,o),
(542,364,cs),
(587,364,o),
(566,120,o),
(688,120,cs)
);
},
{
pos = (120,0);
ref = arrowHead;
},
{
pos = (1110,0);
ref = arrowHead;
scale = (-1,1);
}
);
width = 1230;
},
{
layerId = "C41EA034-4E7F-46DC-9CBA-05541AA6484D";
shapes = (
{
closed = 1;
nodes = (
(971,39,o),
(996,197,o),
(1094,197,cs),
(1206,197,l),
(1206,363,l),
(1079,363,ls),
(932,363,o),
(926,217,o),
(884,217,cs),
(834,217,o),
(825,521,o),
(681,521,cs),
(575,521,o),
(550,363,o),
(452,363,cs),
(340,363,l),
(340,197,l),
(467,197,ls),
(615,197,o),
(620,343,o),
(662,343,cs),
(712,343,o),
(721,39,o),
(865,39,cs)
);
},
{
pos = (120,0);
ref = arrowHead;
},
{
pos = (1426,0);
ref = arrowHead;
scale = (-1,1);
}
);
width = 1546;
}
);
note = uni21AD;
unicode = 8621;
}
{
export = 0;
glyphname = leftRightStrokeArrow;
layers = (
{
layerId = "C73C0C47-E6C6-445A-8A34-E4CE4D1E91FA";
shapes = (
{
closed = 1;
nodes = (
(100,280,l),
(293,102,l),
(308,119,l),
(145,269,l),
(855,269,l),
(692,119,l),
(707,102,l),
(900,280,l),
(707,458,l),
(692,441,l),
(855,291,l),
(145,291,l),
(308,441,l),
(293,458,l)
);
},
{
closed = 1;
nodes = (
(401,117,l),
(421,107,l),
(599,443,l),
(579,453,l)
);
}
);
width = 1000;
},
{
layerId = "D83BBA30-9F2C-4CD6-96B7-4A74A7087E78";
shapes = (
{
closed = 1;
nodes = (
(120,280,l),
(350,68,l),
(401,125,l),
(274,242,l),
(846,242,l),
(719,125,l),
(770,68,l),
(1000,280,l),
(770,492,l),
(719,435,l),
(846,318,l),
(274,318,l),
(401,435,l),
(350,492,l)
);
},
{
closed = 1;
nodes = (
(521,280,l),
(425,110,l),
(491,72,l),
(609,280,l)
);
},
{
closed = 1;
nodes = (
(599,280,l),
(695,450,l),
(629,488,l),
(511,280,l)
);
}
);
width = 1120;
},
{
layerId = "C41EA034-4E7F-46DC-9CBA-05541AA6484D";
shapes = (
{
closed = 1;
nodes = (
(120,280,l),
(390,-6,l),
(498,99,l),
(404,197,l),
(976,197,l),
(882,99,l),
(990,-6,l),
(1260,280,l),
(990,566,l),
(882,461,l),
(976,363,l),
(404,363,l),
(498,461,l),
(390,566,l)
);
},
{
closed = 1;
nodes = (
(500,69,l),
(650,-2,l),
(880,491,l),
(730,562,l)
);
}
);
width = 1380;
}
);
note = uni21AE;
unicode = 8622;
}
{
export = 0;
glyphname = downZigzagArrow;
layers = (
{
layerId = "C73C0C47-E6C6-445A-8A34-E4CE4D1E91FA";
shapes = (
{
closed = 1;
nodes = (
(100,129,l),
(131,-132,l),
(388,-80,l),
(384,-58,l),
(166,-102,l),
(498,355,l),
(213,355,l),
(529,672,l),
(514,688,l),
(159,333,l),
(455,333,l),
(149,-89,l),
(123,131,l)
);
}
);
width = 629;
},
{
layerId = "D83BBA30-9F2C-4CD6-96B7-4A74A7087E78";
shapes = (
{
closed = 1;
nodes = (
(120,179,l),
(156,-132,l),
(463,-70,l),
(446,5,l),
(277,-29,l),
(576,382,l),
(302,382,l),
(576,656,l),
(523,709,l),
(120,306,l),
(427,306,l),
(216,15,l),
(196,187,l)
);
}
);
width = 696;
},
{
layerId = "C41EA034-4E7F-46DC-9CBA-05541AA6484D";
shapes = (
{
closed = 1;
nodes = (
(134,142,l),
(206,-244,l),
(597,-194,l),
(575,-45,l),
(429,-65,l),
(781,420,l),
(482,420,l),
(749,687,l),
(644,794,l),
(120,270,l),
(487,270,l),
(308,23,l),
(282,168,l)
);
}
);
width = 901;
}
);
note = uni21AF;
unicode = 8623;
}
{
color = 8;
export = 0;
glyphname = upTipLeftArrow;
layers = (
{
layerId = "D42A05F0-DBDC-4569-915A-03C7188507B6";
width = 600;
},
{
layerId = "B2FE45D6-EF48-417F-ACCD-B60D15D1CAF3";
shapes = (
{
closed = 1;
nodes = (
(100,540,l),
(293,362,l),
(308,379,l),
(145,529,l),
(478,529,l),
(478,-72,l),
(500,-72,l),
(500,551,l),
(145,551,l),
(308,701,l),
(293,718,l)
);
}
);
width = 600;
},
{
layerId = "D92A4C0B-EB2A-4209-AFE3-2959A8B274DD";
shapes = (
{
closed = 1;
nodes = (
(80,528,l),
(310,316,l),
(361,373,l),
(234,490,l),
(444,490,l),
(444,-80,l),
(520,-80,l),
(520,566,l),
(234,566,l),
(361,683,l),
(310,740,l)
);
}
);
width = 600;
},
{
layerId = "B26C53A4-97D1-457B-8232-65310EC64496";
shapes = (
{
closed = 1;
nodes = (
(120,494,l),
(390,208,l),
(498,313,l),
(404,411,l),
(564,411,l),
(564,-120,l),
(730,-120,l),
(730,577,l),
(404,577,l),
(498,675,l),
(390,780,l)
);
}
);
width = 850;
}
);
note = uni21B0;
subCategory = Arrow;
unicode = 8624;
}
{
color = 8;
export = 0;
glyphname = upTipRightArrow;
layers = (
{
layerId = "D42A05F0-DBDC-4569-915A-03C7188507B6";
width = 600;
},
{
layerId = "B2FE45D6-EF48-417F-ACCD-B60D15D1CAF3";
shapes = (
{
closed = 1;
nodes = (
(100,-72,l),
(122,-72,l),
(122,529,l),
(455,529,l),
(292,379,l),
(307,362,l),
(500,540,l),
(307,718,l),
(292,701,l),
(455,551,l),
(100,551,l)
);
}
);
width = 600;
},
{
layerId = "D92A4C0B-EB2A-4209-AFE3-2959A8B274DD";
shapes = (
{
closed = 1;
nodes = (
(80,-80,l),
(156,-80,l),
(156,490,l),
(366,490,l),
(239,373,l),
(290,316,l),
(520,528,l),
(290,740,l),
(239,683,l),
(366,566,l),
(80,566,l)
);
}
);
width = 600;
},
{
layerId = "B26C53A4-97D1-457B-8232-65310EC64496";
shapes = (
{
closed = 1;
nodes = (
(120,-120,l),
(286,-120,l),
(286,411,l),
(446,411,l),
(352,313,l),
(460,208,l),
(730,494,l),
(460,780,l),
(352,675,l),
(446,577,l),
(120,577,l)
);
}
);
width = 850;
}
);
note = uni21B1;
subCategory = Arrow;
unicode = 8625;
}
{
export = 0;
glyphname = downTipLeftArrow;
layers = (
{
layerId = "C73C0C47-E6C6-445A-8A34-E4CE4D1E91FA";
shapes = (
{
closed = 1;
nodes = (
(100,106,l),
(293,-72,l),
(308,-55,l),
(145,95,l),
(500,95,l),
(500,718,l),
(478,718,l),
(478,117,l),
(145,117,l),
(308,267,l),
(293,284,l)
);
}
);
width = 600;
},
{
layerId = "D83BBA30-9F2C-4CD6-96B7-4A74A7087E78";
shapes = (
{
closed = 1;
nodes = (
(120,52,l),
(350,-160,l),
(401,-103,l),
(274,14,l),
(560,14,l),
(560,660,l),
(484,660,l),
(484,90,l),
(274,90,l),
(401,207,l),
(350,264,l)
);
}
);
width = 680;
},
{
layerId = "C41EA034-4E7F-46DC-9CBA-05541AA6484D";
shapes = (
{
closed = 1;
nodes = (
(120,166,l),
(390,-120,l),
(498,-15,l),
(404,83,l),
(730,83,l),
(730,780,l),
(564,780,l),
(564,249,l),
(404,249,l),
(498,347,l),
(390,452,l)
);
}
);
width = 850;
}
);
note = uni21B2;
unicode = 8626;
}
{
color = 8;
export = 0;
glyphname = downTipRightArrow;
layers = (
{
layerId = "D42A05F0-DBDC-4569-915A-03C7188507B6";
width = 600;
},
{
layerId = "B2FE45D6-EF48-417F-ACCD-B60D15D1CAF3";
shapes = (
{
closed = 1;
nodes = (
(100,95,l),
(455,95,l),
(292,-55,l),
(307,-72,l),
(500,106,l),
(307,284,l),
(292,267,l),
(455,117,l),
(122,117,l),
(122,718,l),
(100,718,l)
);
}
);
width = 600;
},
{
layerId = "D92A4C0B-EB2A-4209-AFE3-2959A8B274DD";
shapes = (
{
closed = 1;
nodes = (
(80,14,l),
(366,14,l),
(239,-103,l),
(290,-160,l),
(520,52,l),
(290,264,l),
(239,207,l),
(366,90,l),
(156,90,l),
(156,660,l),
(80,660,l)
);
}
);
width = 600;
},
{
layerId = "B26C53A4-97D1-457B-8232-65310EC64496";
shapes = (
{
closed = 1;
nodes = (
(120,83,l),
(446,83,l),
(352,-15,l),
(460,-120,l),
(730,166,l),
(460,452,l),
(352,347,l),
(446,249,l),
(286,249,l),
(286,780,l),
(120,780,l)
);
}
);
width = 850;
}
);
note = uni21B3;
subCategory = Arrow;
unicode = 8627;
}
{
export = 0;
glyphname = rightCornerDownArrow;
layers = (
{
layerId = "C73C0C47-E6C6-445A-8A34-E4CE4D1E91FA";
shapes = (
{
closed = 1;
nodes = (
(100,612,l),
(701,612,l),
(701,57,l),
(551,220,l),
(534,205,l),
(712,12,l),
(890,205,l),
(873,220,l),
(723,57,l),
(723,634,l),
(100,634,l)
);
}
);
width = 990;
},
{
layerId = "D83BBA30-9F2C-4CD6-96B7-4A74A7087E78";
shapes = (
{
closed = 1;
nodes = (
(120,574,l),
(690,574,l),
(690,84,l),
(573,211,l),
(516,160,l),
(728,-70,l),
(940,160,l),
(883,211,l),
(766,84,l),
(766,650,l),
(120,650,l)
);
}
);
width = 1060;
},
{
layerId = "C41EA034-4E7F-46DC-9CBA-05541AA6484D";
shapes = (
{
closed = 1;
nodes = (
(120,564,l),
(651,564,l),
(651,214,l),
(553,308,l),
(448,200,l),
(734,-70,l),
(1020,200,l),
(915,308,l),
(817,214,l),
(817,730,l),
(120,730,l)
);
}
);
width = 1140;
}
);
note = uni21B4;
unicode = 8628;
}
{
color = 8;
export = 0;
glyphname = carriagereturn;
layers = (
{
layerId = "D42A05F0-DBDC-4569-915A-03C7188507B6";
width = 822;
},
{
layerId = "B2FE45D6-EF48-417F-ACCD-B60D15D1CAF3";
shapes = (
{
closed = 1;
nodes = (
(100,106,l),
(293,-72,l),
(308,-55,l),
(145,95,l),
(722,95,l),
(722,718,l),
(700,718,l),
(700,117,l),
(145,117,l),
(308,267,l),
(293,284,l)
);
}
);
width = 822;
},
{
layerId = "D92A4C0B-EB2A-4209-AFE3-2959A8B274DD";
shapes = (
{
closed = 1;
nodes = (
(80,92,l),
(310,-120,l),
(361,-63,l),
(234,54,l),
(800,54,l),
(800,700,l),
(724,700,l),
(724,130,l),
(234,130,l),
(361,247,l),
(310,304,l)
);
}
);
width = 880;
},
{
layerId = "B26C53A4-97D1-457B-8232-65310EC64496";
shapes = (
{
closed = 1;
nodes = (
(120,166,l),
(390,-120,l),
(498,-15,l),
(404,83,l),
(920,83,l),
(920,780,l),
(754,780,l),
(754,249,l),
(404,249,l),
(498,347,l),
(390,452,l)
);
}
);
width = 1040;
}
);
note = uni21B5;
subCategory = Arrow;
unicode = 8629;
}
{
export = 0;
glyphname = topCircleLeftArrow;
layers = (
{
layerId = "C73C0C47-E6C6-445A-8A34-E4CE4D1E91FA";
shapes = (
{
closed = 1;
nodes = (
(100,216,l),
(258,45,l),
(416,216,l),
(399,231,l),
(269,90,l),
(269,130,ls),
(269,283,o),
(394,408,o),
(547,408,cs),
(700,408,o),
(825,283,o),
(825,130,c),
(847,130,l),
(847,296,o),
(713,430,o),
(547,430,cs),
(381,430,o),
(247,296,o),
(247,130,cs),
(247,90,l),
(117,231,l)
);
}
);
width = 947;
},
{
layerId = "D83BBA30-9F2C-4CD6-96B7-4A74A7087E78";
shapes = (
{
closed = 1;
nodes = (
(120,172,l),
(332,-58,l),
(544,172,l),
(487,223,l),
(370,96,l),
(370,120,ls),
(370,255,o),
(479,364,o),
(614,364,cs),
(749,364,o),
(858,255,o),
(858,120,c),
(934,120,l),
(934,297,o),
(791,440,o),
(614,440,cs),
(437,440,o),
(294,297,o),
(294,120,cs),
(294,96,l),
(177,223,l)
);
}
);
width = 1054;
},
{
background = {
shapes = (
{
closed = 1;
nodes = (
(120,78,l),
(406,-192,l),
(692,78,l),
(587,186,l),
(489,92,l),
(489,100,ls),
(489,207,o),
(576,294,o),
(683,294,cs),
(790,294,o),
(877,207,o),
(877,100,c),
(1043,100,l),
(1043,299,o),
(882,460,o),
(683,460,cs),
(484,460,o),
(323,299,o),
(323,100,cs),
(323,92,l),
(225,186,l)
);
},
{
closed = 1;
nodes = (
(683,100,l),
(877,100,l),
(877,294,l),
(683,294,l)
);
},
{
angle = 90;
pos = (686,-192);
ref = arrowHead;
}
);
};
layerId = "C41EA034-4E7F-46DC-9CBA-05541AA6484D";
shapes = (
{
closed = 1;
nodes = (
(489,88,l),
(489,171,o),
(556,238,o),
(639,238,cs),
(722,238,o),
(789,171,o),
(789,88,c),
(955,88,l),
(955,263,o),
(814,404,o),
(639,404,cs),
(464,404,o),
(323,263,o),
(323,88,c)
);
},
{
closed = 0;
nodes = (
(639,88,l)
);
},
{
angle = 90;
pos = (686,-192);
ref = arrowHead;
}
);
width = 1163;
}
);
note = uni21B6;
unicode = 8630;
}
{
color = 8;
export = 0;
glyphname = topCircleRightArrow;
layers = (
{
layerId = "D42A05F0-DBDC-4569-915A-03C7188507B6";
width = 947;
},
{
layerId = "B2FE45D6-EF48-417F-ACCD-B60D15D1CAF3";
shapes = (
{
closed = 1;
nodes = (
(122,130,l),
(122,283,o),
(247,408,o),
(400,408,cs),
(553,408,o),
(678,283,o),
(678,130,cs),
(678,90,l),
(548,231,l),
(531,216,l),
(689,45,l),
(847,216,l),
(830,231,l),
(700,90,l),
(700,130,ls),
(700,296,o),
(566,430,o),
(400,430,cs),
(234,430,o),
(100,296,o),
(100,130,c)
);
}
);
width = 947;
},
{
layerId = "D92A4C0B-EB2A-4209-AFE3-2959A8B274DD";
shapes = (
{
closed = 1;
nodes = (
(156,120,l),
(156,255,o),
(265,364,o),
(400,364,cs),
(535,364,o),
(644,255,o),
(644,120,cs),
(644,96,l),
(527,223,l),
(470,172,l),
(682,-58,l),
(894,172,l),
(837,223,l),
(720,96,l),
(720,120,ls),
(720,297,o),
(577,440,o),
(400,440,cs),
(223,440,o),
(80,297,o),
(80,120,c)
);
}
);
width = 974;
},
{
layerId = "B26C53A4-97D1-457B-8232-65310EC64496";
shapes = (
{
closed = 1;
nodes = (
(286,100,l),
(286,207,o),
(373,294,o),
(480,294,cs),
(587,294,o),
(674,207,o),
(674,100,cs),
(674,92,l),
(576,186,l),
(471,78,l),
(757,-192,l),
(1043,78,l),
(938,186,l),
(840,92,l),
(840,100,ls),
(840,299,o),
(679,460,o),
(480,460,cs),
(281,460,o),
(120,299,o),
(120,100,c)
);
}
);
width = 1163;
}
);
note = uni21B7;
subCategory = Arrow;
unicode = 8631;
}
{
color = 8;
export = 0;
glyphname = northWestToLongbarArrow;
layers = (
{
layerId = "D42A05F0-DBDC-4569-915A-03C7188507B6";
width = 758;
},
{
layerId = "B2FE45D6-EF48-417F-ACCD-B60D15D1CAF3";
shapes = (
{
closed = 1;
nodes = (
(100,618,l),
(658,618,l),
(658,640,l),
(100,640,l)
);
},
{
closed = 1;
nodes = (
(120,566,l),
(131,303,l),
(154,305,l),
(144,526,l),
(622,49,l),
(637,64,l),
(160,542,l),
(381,532,l),
(383,555,l)
);
}
);
width = 758;
},
{
layerId = "D92A4C0B-EB2A-4209-AFE3-2959A8B274DD";
shapes = (
{
closed = 1;
nodes = (
(80,602,l),
(714,602,l),
(714,678,l),
(80,678,l)
);
},
{
closed = 1;
nodes = (
(100,563,l),
(113,250,l),
(189,255,l),
(182,427,l),
(639,-30,l),
(693,24,l),
(236,481,l),
(408,474,l),
(413,550,l)
);
}
);
width = 794;
},
{
layerId = "B26C53A4-97D1-457B-8232-65310EC64496";
shapes = (
{
closed = 1;
nodes = (
(120,653,l),
(845,653,l),
(845,819,l),
(120,819,l)
);
},
{
closed = 1;
nodes = (
(151,588,l),
(140,194,l),
(291,192,l),
(294,328,l),
(708,-86,l),
(825,31,l),
(411,445,l),
(547,448,l),
(545,599,l)
);
}
);
width = 965;
}
);
note = uni21B8;
subCategory = Arrow;
unicode = 8632;
}
{
color = 8;
export = 0;
glyphname = leftToBarOverRightToBarArrow;
layers = (
{
layerId = "D42A05F0-DBDC-4569-915A-03C7188507B6";
width = 920;
},
{
layerId = "B2FE45D6-EF48-417F-ACCD-B60D15D1CAF3";
shapes = (
{
closed = 1;
nodes = (
(100,108,l),
(757,108,l),
(594,-42,l),
(609,-59,l),
(802,119,l),
(609,297,l),
(594,280,l),
(757,130,l),
(100,130,l)
);
},
{
closed = 1;
nodes = (
(100,265,l),
(122,265,l),
(122,617,l),
(100,617,l)
);
},
{
closed = 1;
nodes = (
(118,441,l),
(311,263,l),
(326,280,l),
(163,430,l),
(820,430,l),
(820,452,l),
(163,452,l),
(326,602,l),
(311,619,l)
);
},
{
closed = 1;
nodes = (
(798,-57,l),
(820,-57,l),
(820,295,l),
(798,295,l)
);
}
);
width = 920;
},
{
layerId = "D92A4C0B-EB2A-4209-AFE3-2959A8B274DD";
shapes = (
{
closed = 1;
nodes = (
(80,87,l),
(694,87,l),
(567,-30,l),
(618,-87,l),
(848,125,l),
(618,337,l),
(567,280,l),
(694,163,l),
(80,163,l)
);
},
{
closed = 1;
nodes = (
(80,243,l),
(160,243,l),
(160,627,l),
(80,627,l)
);
},
{
closed = 1;
nodes = (
(152,435,l),
(382,223,l),
(433,280,l),
(306,397,l),
(920,397,l),
(920,473,l),
(306,473,l),
(433,590,l),
(372,647,l)
);
},
{
closed = 1;
nodes = (
(840,-67,l),
(920,-67,l),
(920,317,l),
(840,317,l)
);
}
);
width = 1000;
},
{
layerId = "B26C53A4-97D1-457B-8232-65310EC64496";
shapes = (
{
closed = 1;
nodes = (
(120,37,l),
(726,37,l),
(632,-61,l),
(740,-166,l),
(1010,120,l),
(756,390,l),
(648,285,l),
(726,203,l),
(120,203,l)
);
},
{
closed = 1;
nodes = (
(120,239,l),
(286,239,l),
(286,710,l),
(120,710,l)
);
},
{
closed = 1;
nodes = (
(250,440,l),
(504,170,l),
(612,275,l),
(534,357,l),
(1140,357,l),
(1140,523,l),
(534,523,l),
(628,621,l),
(520,726,l)
);
},
{
closed = 1;
nodes = (
(974,-150,l),
(1140,-150,l),
(1140,321,l),
(974,321,l)
);
}
);
width = 1260;
}
);
note = uni21B9;
subCategory = Arrow;
unicode = 8633;
}
{
export = 0;
glyphname = anticlockwiseOpenCircleArrow;
layers = (
{
layerId = "C73C0C47-E6C6-445A-8A34-E4CE4D1E91FA";
shapes = (
{
closed = 1;
nodes = (
(100,114,o),
(234,-20,o),
(400,-20,cs),
(566,-20,o),
(700,114,o),
(700,280,cs),
(700,414,o),
(614,527,o),
(493,566,c),
(689,624,l),
(683,646,l),
(447,575,l),
(537,346,l),
(558,355,l),
(483,546,l),
(594,510,o),
(678,403,o),
(678,280,cs),
(678,127,o),
(553,2,o),
(400,2,cs),
(247,2,o),
(122,127,o),
(122,280,cs),
(122,403,o),
(203,508,o),
(314,544,c),
(307,566,l),
(186,527,o),
(100,414,o),
(100,280,cs)
);
}
);
width = 800;
},
{
layerId = "D83BBA30-9F2C-4CD6-96B7-4A74A7087E78";
shapes = (
{
closed = 1;
nodes = (
(120,103,o),
(263,-40,o),
(440,-40,cs),
(617,-40,o),
(760,103,o),
(760,280,cs),
(760,403,o),
(691,509,o),
(590,563,c),
(751,593,l),
(738,669,l),
(440,612,l),
(520,319,l),
(593,340,l),
(550,498,l),
(627,457,o),
(684,374,o),
(684,280,cs),
(684,145,o),
(575,36,o),
(440,36,cs),
(305,36,o),
(196,145,o),
(196,280,cs),
(196,377,o),
(252,459,o),
(333,499,c),
(300,568,l),
(194,516,o),
(120,407,o),
(120,280,cs)
);
}
);
width = 880;
},
{
layerId = "C41EA034-4E7F-46DC-9CBA-05541AA6484D";
shapes = (
{
closed = 1;
nodes = (
(120,81,o),
(281,-80,o),
(480,-80,cs),
(679,-80,o),
(840,81,o),
(840,280,cs),
(840,395,o),
(786,498,o),
(702,564,c),
(836,583,l),
(818,709,l),
(452,653,l),
(487,285,l),
(613,298,l),
(600,433,l),
(645,397,o),
(674,342,o),
(674,280,cs),
(674,173,o),
(587,86,o),
(480,86,cs),
(373,86,o),
(286,173,o),
(286,280,cs),
(286,346,o),
(319,404,o),
(369,439,c),
(273,575,l),
(180,510,o),
(120,402,o),
(120,280,cs)
);
}
);
width = 960;
}
);
note = uni21BA;
unicode = 8634;
}
{
export = 0;
glyphname = clockwiseOpenCircleArrow;
layers = (
{
layerId = "C73C0C47-E6C6-445A-8A34-E4CE4D1E91FA";
shapes = (
{
closed = 1;
nodes = (
(100,114,o),
(234,-20,o),
(400,-20,cs),
(566,-20,o),
(700,114,o),
(700,280,cs),
(700,414,o),
(614,527,o),
(493,566,c),
(486,544,l),
(597,508,o),
(678,403,o),
(678,280,cs),
(678,127,o),
(553,2,o),
(400,2,cs),
(247,2,o),
(122,127,o),
(122,280,cs),
(122,403,o),
(206,510,o),
(317,546,c),
(242,355,l),
(263,346,l),
(353,575,l),
(117,646,l),
(111,624,l),
(307,566,l),
(186,527,o),
(100,414,o),
(100,280,cs)
);
}
);
width = 800;
},
{
layerId = "D83BBA30-9F2C-4CD6-96B7-4A74A7087E78";
shapes = (
{
closed = 1;
nodes = (
(120,103,o),
(263,-40,o),
(440,-40,cs),
(617,-40,o),
(760,103,o),
(760,280,cs),
(760,407,o),
(686,516,o),
(580,568,c),
(547,499,l),
(628,459,o),
(684,377,o),
(684,280,cs),
(684,145,o),
(575,36,o),
(440,36,cs),
(305,36,o),
(196,145,o),
(196,280,cs),
(196,374,o),
(253,457,o),
(330,498,c),
(287,340,l),
(360,319,l),
(440,612,l),
(142,669,l),
(129,593,l),
(290,563,l),
(189,509,o),
(120,403,o),
(120,280,cs)
);
}
);
width = 880;
},
{
layerId = "C41EA034-4E7F-46DC-9CBA-05541AA6484D";
shapes = (
{
closed = 1;
nodes = (
(120,81,o),
(281,-80,o),
(480,-80,cs),
(679,-80,o),
(840,81,o),
(840,280,cs),
(840,402,o),
(780,510,o),
(687,575,c),
(591,439,l),
(641,404,o),
(674,346,o),
(674,280,cs),
(674,173,o),
(587,86,o),
(480,86,cs),
(373,86,o),
(286,173,o),
(286,280,cs),
(286,342,o),
(315,397,o),
(360,433,c),
(347,298,l),
(473,285,l),
(508,653,l),
(142,709,l),
(124,583,l),
(258,564,l),
(174,498,o),
(120,395,o),
(120,280,cs)
);
}
);
width = 960;
}
);
note = uni21BB;
unicode = 8635;
}
{
color = 8;
export = 0;
glyphname = leftBarbUpHarpoon;
layers = (
{
layerId = "D42A05F0-DBDC-4569-915A-03C7188507B6";
width = 920;
},
{
layerId = "B2FE45D6-EF48-417F-ACCD-B60D15D1CAF3";
shapes = (
{
closed = 1;
nodes = (
(820,269,l),
(820,291,l),
(134,291,l),
(134,269,l)
);
},
{
pos = (95,0);
ref = harpoonHead;
}
);
width = 920;
},
{
layerId = "D92A4C0B-EB2A-4209-AFE3-2959A8B274DD";
shapes = (
{
closed = 1;
nodes = (
(890,242,l),
(890,318,l),
(210,318,l),
(210,242,l)
);
},
{
pos = (80,0);
ref = harpoonHead;
}
);
width = 970;
},
{
layerId = "B26C53A4-97D1-457B-8232-65310EC64496";
shapes = (
{
closed = 1;
nodes = (
(990,197,l),
(990,363,l),
(340,363,l),
(340,197,l)
);
},
{
pos = (95,0);
ref = harpoonHead;
}
);
width = 1110;
}
);
note = uni21BC;
subCategory = Arrow;
unicode = 8636;
}
{
glyphname = rightOverLeftArrow;
layers = (
{
layerId = "D42A05F0-DBDC-4569-915A-03C7188507B6";
shapes = (
{
pos = (0,-101);
ref = leftArrow;
},
{
pos = (20,101);
ref = rightArrow;
}
);
width = 920;
},
{
layerId = "B2FE45D6-EF48-417F-ACCD-B60D15D1CAF3";
shapes = (
{
pos = (0,-111);
ref = leftArrow;
},
{
pos = (30,111);
ref = rightArrow;
}
);
width = 950;
},
{
layerId = "D92A4C0B-EB2A-4209-AFE3-2959A8B274DD";
shapes = (
{
pos = (0,-158);
ref = leftArrow;
},
{
pos = (40,158);
ref = rightArrow;
}
);
width = 1000;
},
{
background = {
shapes = (
{
closed = 1;
nodes = (
(140,120,l),
(410,-166,l),
(518,-61,l),
(424,37,l),
(1010,37,l),
(1010,203,l),
(424,203,l),
(502,285,l),
(394,390,l)
);
},
{
closed = 1;
nodes = (
(170,357,l),
(756,357,l),
(678,275,l),
(786,170,l),
(1040,440,l),
(770,726,l),
(662,621,l),
(756,523,l),
(170,523,l)
);
}
);
};
layerId = "B26C53A4-97D1-457B-8232-65310EC64496";
shapes = (
{
pos = (0,-160);
ref = leftArrow;
},
{
pos = (40,160);
ref = rightArrow;
}
);
width = 1100;
}
);
metricLeft = leftArrow;
metricRight = rightArrow;
note = uni21C4;
subCategory = Arrow;
unicode = 8644;
}
{
export = 0;
glyphname = upAndDownArrow;
layers = (
{
layerId = "C73C0C47-E6C6-445A-8A34-E4CE4D1E91FA";
shapes = (
{
closed = 1;
nodes = (
(100,447,l),
(117,432,l),
(267,595,l),
(267,-80,l),
(289,-80,l),
(289,595,l),
(439,432,l),
(456,447,l),
(278,640,l)
);
},
{
closed = 1;
nodes = (
(422,113,l),
(600,-80,l),
(778,113,l),
(761,128,l),
(611,-35,l),
(611,640,l),
(589,640,l),
(589,-35,l),
(439,128,l)
);
}
);
width = 878;
},
{
layerId = "D83BBA30-9F2C-4CD6-96B7-4A74A7087E78";
shapes = (
{
closed = 1;
nodes = (
(120,460,l),
(177,409,l),
(294,536,l),
(294,-110,l),
(370,-110,l),
(370,536,l),
(487,409,l),
(544,460,l),
(332,690,l)
);
},
{
closed = 1;
nodes = (
(430,100,l),
(642,-130,l),
(854,100,l),
(797,151,l),
(680,24,l),
(680,670,l),
(604,670,l),
(604,24,l),
(487,151,l)
);
}
);
width = 974;
},
{
layerId = "C41EA034-4E7F-46DC-9CBA-05541AA6484D";
shapes = (
{
closed = 1;
nodes = (
(120,460,l),
(225,352,l),
(323,446,l),
(323,-140,l),
(489,-140,l),
(489,446,l),
(571,368,l),
(676,476,l),
(406,730,l)
);
},
{
closed = 1;
nodes = (
(456,84,l),
(726,-170,l),
(1012,100,l),
(907,208,l),
(809,114,l),
(809,700,l),
(643,700,l),
(643,114,l),
(561,192,l)
);
}
);
width = 1132;
}
);
note = uni21C5;
unicode = 8645;
}
{
export = 0;
glyphname = leftAndRightArrow;
layers = (
{
layerId = "C73C0C47-E6C6-445A-8A34-E4CE4D1E91FA";
shapes = (
{
closed = 1;
nodes = (
(100,441,l),
(293,263,l),
(308,280,l),
(145,430,l),
(820,430,l),
(820,452,l),
(145,452,l),
(308,602,l),
(293,619,l)
);
},
{
closed = 1;
nodes = (
(100,108,l),
(775,108,l),
(612,-42,l),
(627,-59,l),
(820,119,l),
(627,297,l),
(612,280,l),
(775,130,l),
(100,130,l)
);
}
);
width = 920;
},
{
layerId = "D83BBA30-9F2C-4CD6-96B7-4A74A7087E78";
shapes = (
{
closed = 1;
nodes = (
(120,435,l),
(350,223,l),
(401,280,l),
(274,397,l),
(920,397,l),
(920,473,l),
(274,473,l),
(401,590,l),
(350,647,l)
);
},
{
closed = 1;
nodes = (
(140,87,l),
(786,87,l),
(659,-30,l),
(710,-87,l),
(940,125,l),
(710,337,l),
(659,280,l),
(786,163,l),
(140,163,l)
);
}
);
width = 1060;
},
{
layerId = "C41EA034-4E7F-46DC-9CBA-05541AA6484D";
shapes = (
{
closed = 1;
nodes = (
(120,440,l),
(374,170,l),
(482,275,l),
(404,357,l),
(990,357,l),
(990,523,l),
(404,523,l),
(498,621,l),
(390,726,l)
);
},
{
closed = 1;
nodes = (
(150,37,l),
(736,37,l),
(642,-61,l),
(750,-166,l),
(1020,120,l),
(766,390,l),
(658,285,l),
(736,203,l),
(150,203,l)
);
}
);
width = 1140;
}
);
note = uni21C6;
unicode = 8646;
}
{
color = 8;
export = 0;
glyphname = leftDoublePairedArrow;
layers = (
{
layerId = "D42A05F0-DBDC-4569-915A-03C7188507B6";
width = 920;
},
{
layerId = "B2FE45D6-EF48-417F-ACCD-B60D15D1CAF3";
shapes = (
{
closed = 1;
nodes = (
(100,119,l),
(293,-59,l),
(308,-42,l),
(145,108,l),
(820,108,l),
(820,130,l),
(145,130,l),
(308,280,l),
(281,286,l)
);
},
{
closed = 1;
nodes = (
(100,441,l),
(281,274,l),
(308,280,l),
(145,430,l),
(820,430,l),
(820,452,l),
(145,452,l),
(308,602,l),
(293,619,l)
);
}
);
width = 920;
},
{
layerId = "D92A4C0B-EB2A-4209-AFE3-2959A8B274DD";
shapes = (
{
closed = 1;
nodes = (
(80,125,l),
(310,-87,l),
(361,-30,l),
(234,87,l),
(880,87,l),
(880,163,l),
(234,163,l),
(361,280,l),
(284,313,l)
);
},
{
closed = 1;
nodes = (
(80,435,l),
(284,247,l),
(361,280,l),
(234,397,l),
(880,397,l),
(880,473,l),
(234,473,l),
(361,590,l),
(310,647,l)
);
}
);
width = 960;
},
{
layerId = "B26C53A4-97D1-457B-8232-65310EC64496";
shapes = (
{
closed = 1;
nodes = (
(120,120,l),
(390,-166,l),
(498,-61,l),
(404,37,l),
(990,37,l),
(990,203,l),
(404,203,l),
(478,280,l),
(336,349,l)
);
},
{
closed = 1;
nodes = (
(120,440,l),
(336,211,l),
(478,280,l),
(404,357,l),
(990,357,l),
(990,523,l),
(404,523,l),
(498,621,l),
(390,726,l)
);
}
);
width = 1110;
}
);
note = uni21C7;
subCategory = Arrow;
unicode = 8647;
}
{
color = 8;
export = 0;
glyphname = upDoublePairedArrow;
layers = (
{
layerId = "D42A05F0-DBDC-4569-915A-03C7188507B6";
width = 878;
},
{
layerId = "B2FE45D6-EF48-417F-ACCD-B60D15D1CAF3";
shapes = (
{
closed = 1;
nodes = (
(100,447,l),
(117,432,l),
(267,595,l),
(267,-80,l),
(289,-80,l),
(289,595,l),
(439,432,l),
(445,459,l),
(278,640,l)
);
},
{
closed = 1;
nodes = (
(433,459,l),
(439,432,l),
(589,595,l),
(589,-80,l),
(611,-80,l),
(611,595,l),
(761,432,l),
(778,447,l),
(600,640,l)
);
}
);
width = 878;
},
{
layerId = "D92A4C0B-EB2A-4209-AFE3-2959A8B274DD";
shapes = (
{
closed = 1;
nodes = (
(80,450,l),
(137,399,l),
(254,526,l),
(254,-120,l),
(330,-120,l),
(330,526,l),
(447,399,l),
(480,476,l),
(292,680,l)
);
},
{
closed = 1;
nodes = (
(414,476,l),
(447,399,l),
(564,526,l),
(564,-120,l),
(640,-120,l),
(640,526,l),
(757,399,l),
(814,450,l),
(602,680,l)
);
}
);
width = 894;
},
{
layerId = "B26C53A4-97D1-457B-8232-65310EC64496";
shapes = (
{
closed = 1;
nodes = (
(120,445,l),
(225,337,l),
(323,431,l),
(323,-155,l),
(489,-155,l),
(489,431,l),
(566,357,l),
(635,499,l),
(406,715,l)
);
},
{
closed = 1;
nodes = (
(497,499,l),
(566,357,l),
(643,431,l),
(643,-155,l),
(809,-155,l),
(809,431,l),
(907,337,l),
(1012,445,l),
(726,715,l)
);
}
);
width = 1132;
}
);
note = uni21C8;
subCategory = Arrow;
unicode = 8648;
}
{
color = 8;
export = 0;
glyphname = rightDoublePairedArrow;
layers = (
{
layerId = "D42A05F0-DBDC-4569-915A-03C7188507B6";
width = 920;
},
{
layerId = "B2FE45D6-EF48-417F-ACCD-B60D15D1CAF3";
shapes = (
{
closed = 1;
nodes = (
(100,108,l),
(775,108,l),
(612,-42,l),
(627,-59,l),
(820,119,l),
(639,286,l),
(612,280,l),
(775,130,l),
(100,130,l)
);
},
{
closed = 1;
nodes = (
(100,430,l),
(775,430,l),
(612,280,l),
(639,274,l),
(820,441,l),
(627,619,l),
(612,602,l),
(775,452,l),
(100,452,l)
);
}
);
width = 920;
},
{
layerId = "D92A4C0B-EB2A-4209-AFE3-2959A8B274DD";
shapes = (
{
closed = 1;
nodes = (
(80,87,l),
(726,87,l),
(599,-30,l),
(650,-87,l),
(880,125,l),
(676,313,l),
(599,280,l),
(726,163,l),
(80,163,l)
);
},
{
closed = 1;
nodes = (
(80,397,l),
(726,397,l),
(599,280,l),
(676,247,l),
(880,435,l),
(650,647,l),
(599,590,l),
(726,473,l),
(80,473,l)
);
}
);
width = 960;
},
{
layerId = "B26C53A4-97D1-457B-8232-65310EC64496";
shapes = (
{
closed = 1;
nodes = (
(120,37,l),
(706,37,l),
(612,-61,l),
(720,-166,l),
(990,120,l),
(774,349,l),
(632,280,l),
(706,203,l),
(120,203,l)
);
},
{
closed = 1;
nodes = (
(120,357,l),
(706,357,l),
(632,280,l),
(774,211,l),
(990,440,l),
(720,726,l),
(612,621,l),
(706,523,l),
(120,523,l)
);
}
);
width = 1110;
}
);
note = uni21C9;
subCategory = Arrow;
unicode = 8649;
}
{
export = 0;
glyphname = downDoublePairedArrow;
layers = (
{
layerId = "C73C0C47-E6C6-445A-8A34-E4CE4D1E91FA";
shapes = (
{
closed = 1;
nodes = (
(100,113,l),
(278,-80,l),
(445,101,l),
(439,128,l),
(289,-35,l),
(289,640,l),
(267,640,l),
(267,-35,l),
(117,128,l)
);
},
{
closed = 1;
nodes = (
(433,101,l),
(600,-80,l),
(778,113,l),
(761,128,l),
(611,-35,l),
(611,640,l),
(589,640,l),
(589,-35,l),
(439,128,l)
);
}
);
width = 878;
},
{
layerId = "D83BBA30-9F2C-4CD6-96B7-4A74A7087E78";
shapes = (
{
closed = 1;
nodes = (
(120,110,l),
(332,-120,l),
(520,84,l),
(487,161,l),
(370,34,l),
(370,680,l),
(294,680,l),
(294,34,l),
(177,161,l)
);
},
{
closed = 1;
nodes = (
(454,84,l),
(642,-120,l),
(854,110,l),
(797,161,l),
(680,34,l),
(680,680,l),
(604,680,l),
(604,34,l),
(487,161,l)
);
}
);
width = 974;
},
{
layerId = "C41EA034-4E7F-46DC-9CBA-05541AA6484D";
shapes = (
{
closed = 1;
nodes = (
(120,115,l),
(406,-155,l),
(635,61,l),
(566,203,l),
(489,129,l),
(489,715,l),
(323,715,l),
(323,129,l),
(225,223,l)
);
},
{
closed = 1;
nodes = (
(497,61,l),
(726,-155,l),
(1012,115,l),
(907,223,l),
(809,129,l),
(809,715,l),
(643,715,l),
(643,129,l),
(566,203,l)
);
}
);
width = 1132;
}
);
note = uni21CA;
unicode = 8650;
}
{
export = 0;
glyphname = leftOverRightHarpoon;
layers = (
{
layerId = "C73C0C47-E6C6-445A-8A34-E4CE4D1E91FA";
shapes = (
{
closed = 1;
nodes = (
(100,355,l),
(105,348,l),
(825,348,l),
(825,370,l),
(150,370,l),
(313,520,l),
(298,537,l)
);
},
{
closed = 1;
nodes = (
(105,190,l),
(780,190,l),
(617,40,l),
(632,23,l),
(830,205,l),
(825,212,l),
(105,212,l)
);
}
);
width = 930;
},
{
layerId = "D83BBA30-9F2C-4CD6-96B7-4A74A7087E78";
shapes = (
{
closed = 1;
nodes = (
(110,367,l),
(132,338,l),
(920,338,l),
(920,414,l),
(274,414,l),
(401,531,l),
(350,588,l)
);
},
{
closed = 1;
nodes = (
(120,146,l),
(766,146,l),
(639,29,l),
(690,-28,l),
(930,193,l),
(908,222,l),
(120,222,l)
);
}
);
width = 1040;
},
{
layerId = "C41EA034-4E7F-46DC-9CBA-05541AA6484D";
shapes = (
{
closed = 1;
nodes = (
(110,367,l),
(153,310,l),
(975,310,l),
(975,476,l),
(419,476,l),
(513,574,l),
(405,679,l)
);
},
{
closed = 1;
nodes = (
(135,84,l),
(691,84,l),
(597,-14,l),
(705,-119,l),
(1000,193,l),
(957,250,l),
(135,250,l)
);
}
);
width = 1110;
}
);
note = uni21CB;
unicode = 8651;
}
{
color = 8;
export = 0;
glyphname = rightOverLeftHarpoon;
layers = (
{
layerId = "D42A05F0-DBDC-4569-915A-03C7188507B6";
width = 930;
},
{
layerId = "B2FE45D6-EF48-417F-ACCD-B60D15D1CAF3";
shapes = (
{
closed = 1;
nodes = (
(100,205,l),
(298,23,l),
(313,40,l),
(150,190,l),
(825,190,l),
(825,212,l),
(105,212,l)
);
},
{
closed = 1;
nodes = (
(105,348,l),
(825,348,l),
(830,355,l),
(632,537,l),
(617,520,l),
(780,370,l),
(105,370,l)
);
}
);
width = 930;
},
{
layerId = "D92A4C0B-EB2A-4209-AFE3-2959A8B274DD";
shapes = (
{
closed = 1;
nodes = (
(80,193,l),
(320,-28,l),
(371,29,l),
(244,146,l),
(890,146,l),
(890,222,l),
(102,222,l)
);
},
{
closed = 1;
nodes = (
(90,338,l),
(878,338,l),
(900,367,l),
(660,588,l),
(609,531,l),
(736,414,l),
(90,414,l)
);
}
);
width = 980;
},
{
layerId = "B26C53A4-97D1-457B-8232-65310EC64496";
shapes = (
{
closed = 1;
nodes = (
(110,193,l),
(405,-119,l),
(513,-14,l),
(419,84,l),
(975,84,l),
(975,250,l),
(153,250,l)
);
},
{
closed = 1;
nodes = (
(135,310,l),
(957,310,l),
(1000,367,l),
(705,679,l),
(597,574,l),
(691,476,l),
(135,476,l)
);
}
);
width = 1110;
}
);
note = uni21CC;
subCategory = Arrow;
unicode = 8652;
}
{
export = 0;
glyphname = leftDoubleStrokeArrow;
layers = (
{
layerId = "C73C0C47-E6C6-445A-8A34-E4CE4D1E91FA";
shapes = (
{
closed = 1;
nodes = (
(100,280,l),
(318,79,l),
(333,96,l),
(231,190,l),
(820,190,l),
(820,212,l),
(207,212,l),
(133,280,l),
(207,348,l),
(820,348,l),
(820,370,l),
(231,370,l),
(333,464,l),
(318,481,l)
);
},
{
closed = 1;
nodes = (
(445,87,l),
(464,76,l),
(675,473,l),
(656,484,l)
);
}
);
width = 920;
},
{
layerId = "D83BBA30-9F2C-4CD6-96B7-4A74A7087E78";
shapes = (
{
closed = 1;
nodes = (
(120,280,l),
(400,12,l),
(452,68,l),
(370,146,l),
(920,146,l),
(920,222,l),
(290,222,l),
(228,280,l),
(290,338,l),
(920,338,l),
(920,414,l),
(370,414,l),
(452,492,l),
(400,548,l)
);
},
{
closed = 1;
nodes = (
(507,36,l),
(571,6,l),
(813,524,l),
(749,554,l)
);
}
);
width = 1040;
},
{
layerId = "C41EA034-4E7F-46DC-9CBA-05541AA6484D";
shapes = (
{
closed = 1;
nodes = (
(120,280,l),
(408,-64,l),
(522,32,l),
(479,84,l),
(990,84,l),
(990,250,l),
(340,250,l),
(315,280,l),
(340,310,l),
(990,310,l),
(990,476,l),
(479,476,l),
(522,528,l),
(408,624,l)
);
},
{
closed = 1;
nodes = (
(544,-15,l),
(700,-72,l),
(936,575,l),
(780,632,l)
);
}
);
width = 1110;
}
);
note = uni21CD;
unicode = 8653;
}
{
export = 0;
glyphname = leftRightDoubleStrokeArrow;
layers = (
{
layerId = "C73C0C47-E6C6-445A-8A34-E4CE4D1E91FA";
shapes = (
{
closed = 1;
nodes = (
(100,280,l),
(318,79,l),
(333,96,l),
(231,190,l),
(809,190,l),
(707,96,l),
(722,79,l),
(940,280,l),
(722,481,l),
(707,464,l),
(809,370,l),
(231,370,l),
(333,464,l),
(318,481,l)
);
},
{
closed = 1;
nodes = (
(133,280,l),
(207,348,l),
(833,348,l),
(907,280,l),
(833,212,l),
(207,212,l)
);
},
{
closed = 1;
nodes = (
(405,87,l),
(424,76,l),
(635,473,l),
(616,484,l)
);
}
);
width = 1040;
},
{
layerId = "D83BBA30-9F2C-4CD6-96B7-4A74A7087E78";
shapes = (
{
closed = 1;
nodes = (
(120,280,l),
(400,12,l),
(452,68,l),
(370,146,l),
(850,146,l),
(768,68,l),
(820,12,l),
(1100,280,l),
(820,548,l),
(768,492,l),
(850,414,l),
(370,414,l),
(452,492,l),
(400,548,l)
);
},
{
closed = 1;
nodes = (
(228,280,l),
(290,338,l),
(930,338,l),
(992,280,l),
(930,222,l),
(290,222,l)
);
},
{
closed = 1;
nodes = (
(457,36,l),
(521,6,l),
(763,524,l),
(699,554,l)
);
}
);
width = 1220;
},
{
layerId = "C41EA034-4E7F-46DC-9CBA-05541AA6484D";
shapes = (
{
closed = 1;
nodes = (
(120,280,l),
(408,-64,l),
(522,32,l),
(479,84,l),
(941,84,l),
(898,32,l),
(1012,-64,l),
(1300,280,l),
(1012,624,l),
(898,528,l),
(941,476,l),
(479,476,l),
(522,528,l),
(408,624,l)
);
},
{
closed = 1;
nodes = (
(315,280,l),
(340,310,l),
(1080,310,l),
(1105,280,l),
(1080,250,l),
(340,250,l)
);
},
{
closed = 1;
nodes = (
(514,-15,l),
(670,-72,l),
(906,575,l),
(750,632,l)
);
}
);
width = 1420;
}
);
note = uni21CE;
unicode = 8654;
}
{
color = 8;
export = 0;
glyphname = rightDoubleStrokeArrow;
layers = (
{
layerId = "D42A05F0-DBDC-4569-915A-03C7188507B6";
width = 920;
},
{
layerId = "B2FE45D6-EF48-417F-ACCD-B60D15D1CAF3";
shapes = (
{
closed = 1;
nodes = (
(100,190,l),
(689,190,l),
(587,96,l),
(602,79,l),
(820,280,l),
(602,481,l),
(587,464,l),
(689,370,l),
(100,370,l),
(100,348,l),
(713,348,l),
(787,280,l),
(713,212,l),
(100,212,l)
);
},
{
closed = 1;
nodes = (
(245,87,l),
(264,76,l),
(475,473,l),
(456,484,l)
);
}
);
width = 920;
},
{
layerId = "D92A4C0B-EB2A-4209-AFE3-2959A8B274DD";
shapes = (
{
closed = 1;
nodes = (
(80,146,l),
(630,146,l),
(548,68,l),
(600,12,l),
(880,280,l),
(600,548,l),
(548,492,l),
(630,414,l),
(80,414,l),
(80,338,l),
(710,338,l),
(772,280,l),
(710,222,l),
(80,222,l)
);
},
{
closed = 1;
nodes = (
(187,36,l),
(251,6,l),
(493,524,l),
(429,554,l)
);
}
);
width = 960;
},
{
layerId = "B26C53A4-97D1-457B-8232-65310EC64496";
shapes = (
{
closed = 1;
nodes = (
(120,84,l),
(631,84,l),
(588,32,l),
(702,-64,l),
(990,280,l),
(702,624,l),
(588,528,l),
(631,476,l),
(120,476,l),
(120,310,l),
(770,310,l),
(795,280,l),
(770,250,l),
(120,250,l)
);
},
{
closed = 1;
nodes = (
(174,-15,l),
(330,-72,l),
(566,575,l),
(410,632,l)
);
}
);
width = 1110;
}
);
note = uni21CF;
subCategory = Arrow;
unicode = 8655;
}
{
glyphname = leftDoubleArrow;
layers = (
{
layerId = "D42A05F0-DBDC-4569-915A-03C7188507B6";
shapes = (
{
closed = 1;
nodes = (
(800,354,l),
(800,356,l),
(203,356,l),
(201,354,l)
);
},
{
pos = (100,0);
ref = doubleArrowHead;
},
{
closed = 1;
nodes = (
(800,204,l),
(800,206,l),
(201,206,l),
(203,204,l)
);
}
);
width = 900;
},
{
background = {
shapes = (
{
closed = 1;
nodes = (
(120,280,l),
(338,79,l),
(353,96,l),
(251,190,l),
(840,190,l),
(840,212,l),
(227,212,l),
(153,280,l),
(227,348,l),
(840,348,l),
(840,370,l),
(251,370,l),
(353,464,l),
(338,481,l)
);
}
);
};
layerId = "B2FE45D6-EF48-417F-ACCD-B60D15D1CAF3";
shapes = (
{
closed = 1;
nodes = (
(820,348,l),
(820,370,l),
(234,370,l),
(210,348,l)
);
},
{
pos = (100,0);
ref = doubleArrowHead;
},
{
closed = 1;
nodes = (
(820,190,l),
(820,212,l),
(210,212,l),
(234,190,l)
);
}
);
width = 920;
},
{
background = {
shapes = (
{
closed = 1;
nodes = (
(100,280,l),
(380,12,l),
(432,68,l),
(350,146,l),
(900,146,l),
(900,222,l),
(270,222,l),
(208,280,l),
(270,338,l),
(900,338,l),
(900,414,l),
(350,414,l),
(432,492,l),
(380,548,l)
);
}
);
};
layerId = "D92A4C0B-EB2A-4209-AFE3-2959A8B274DD";
shapes = (
{
closed = 1;
nodes = (
(880,338,l),
(880,414,l),
(300,414,l),
(220,338,l)
);
},
{
pos = (80,0);
ref = doubleArrowHead;
},
{
closed = 1;
nodes = (
(880,146,l),
(880,222,l),
(220,222,l),
(300,146,l)
);
}
);
width = 960;
},
{
background = {
shapes = (
{
closed = 1;
nodes = (
(140,280,l),
(428,-64,l),
(542,32,l),
(499,84,l),
(1010,84,l),
(1010,250,l),
(360,250,l),
(335,280,l),
(360,310,l),
(1010,310,l),
(1010,476,l),
(499,476,l),
(542,528,l),
(428,624,l)
);
}
);
};
layerId = "B26C53A4-97D1-457B-8232-65310EC64496";
shapes = (
{
closed = 1;
nodes = (
(960,310,l),
(960,476,l),
(410,476,l),
(270,310,l)
);
},
{
pos = (120,0);
ref = doubleArrowHead;
},
{
closed = 1;
nodes = (
(960,84,l),
(960,250,l),
(270,250,l),
(410,84,l)
);
}
);
width = 1080;
}
);
metricLeft = leftArrow;
metricRight = leftArrow;
note = uni21D0;
subCategory = Arrow;
unicode = 8656;
}
{
export = 0;
glyphname = upDoubleArrow;
layers = (
{
layerId = "C73C0C47-E6C6-445A-8A34-E4CE4D1E91FA";
shapes = (
{
closed = 1;
nodes = (
(100,422,l),
(117,407,l),
(211,509,l),
(211,-80,l),
(233,-80,l),
(233,533,l),
(301,607,l),
(369,533,l),
(369,-80,l),
(391,-80,l),
(391,509,l),
(485,407,l),
(502,422,l),
(301,640,l)
);
}
);
width = 602;
},
{
layerId = "D83BBA30-9F2C-4CD6-96B7-4A74A7087E78";
shapes = (
{
closed = 1;
nodes = (
(120,400,l),
(176,348,l),
(254,430,l),
(254,-120,l),
(330,-120,l),
(330,510,l),
(388,572,l),
(446,510,l),
(446,-120,l),
(522,-120,l),
(522,430,l),
(600,348,l),
(656,400,l),
(388,680,l)
);
}
);
width = 776;
},
{
layerId = "C41EA034-4E7F-46DC-9CBA-05541AA6484D";
shapes = (
{
closed = 1;
nodes = (
(211,427,l),
(307,313,l),
(359,356,l),
(359,-155,l),
(525,-155,l),
(525,495,l),
(555,520,l),
(585,495,l),
(585,-155,l),
(751,-155,l),
(751,356,l),
(803,313,l),
(899,427,l),
(555,715,l)
);
}
);
width = 1110;
}
);
note = uni21D1;
unicode = 8657;
}
{
export = 0;
glyphname = rightDoubleArrow;
layers = (
{
layerId = "C73C0C47-E6C6-445A-8A34-E4CE4D1E91FA";
shapes = (
{
closed = 1;
nodes = (
(100,190,l),
(689,190,l),
(587,96,l),
(602,79,l),
(820,280,l),
(602,481,l),
(587,464,l),
(689,370,l),
(100,370,l),
(100,348,l),
(713,348,l),
(787,280,l),
(713,212,l),
(100,212,l)
);
}
);
width = 920;
},
{
layerId = "D83BBA30-9F2C-4CD6-96B7-4A74A7087E78";
shapes = (
{
closed = 1;
nodes = (
(120,146,l),
(670,146,l),
(588,68,l),
(640,12,l),
(920,280,l),
(640,548,l),
(588,492,l),
(670,414,l),
(120,414,l),
(120,338,l),
(750,338,l),
(812,280,l),
(750,222,l),
(120,222,l)
);
}
);
width = 1040;
},
{
layerId = "C41EA034-4E7F-46DC-9CBA-05541AA6484D";
shapes = (
{
closed = 1;
nodes = (
(120,84,l),
(631,84,l),
(588,32,l),
(702,-64,l),
(990,280,l),
(702,624,l),
(588,528,l),
(631,476,l),
(120,476,l),
(120,310,l),
(770,310,l),
(795,280,l),
(770,250,l),
(120,250,l)
);
}
);
width = 1110;
}
);
note = uni21D2;
unicode = 8658;
}
{
export = 0;
glyphname = downDoubleArrow;
layers = (
{
layerId = "C73C0C47-E6C6-445A-8A34-E4CE4D1E91FA";
shapes = (
{
closed = 1;
nodes = (
(100,138,l),
(301,-80,l),
(502,138,l),
(485,153,l),
(391,51,l),
(391,640,l),
(369,640,l),
(369,27,l),
(301,-47,l),
(233,27,l),
(233,640,l),
(211,640,l),
(211,51,l),
(117,153,l)
);
}
);
width = 602;
},
{
layerId = "D83BBA30-9F2C-4CD6-96B7-4A74A7087E78";
shapes = (
{
closed = 1;
nodes = (
(120,160,l),
(388,-120,l),
(656,160,l),
(600,212,l),
(522,130,l),
(522,680,l),
(446,680,l),
(446,50,l),
(388,-12,l),
(330,50,l),
(330,680,l),
(254,680,l),
(254,130,l),
(176,212,l)
);
}
);
width = 776;
},
{
layerId = "C41EA034-4E7F-46DC-9CBA-05541AA6484D";
shapes = (
{
closed = 1;
nodes = (
(211,133,l),
(555,-155,l),
(899,133,l),
(803,247,l),
(751,204,l),
(751,715,l),
(585,715,l),
(585,65,l),
(555,40,l),
(525,65,l),
(525,715,l),
(359,715,l),
(359,204,l),
(307,247,l)
);
}
);
width = 1110;
}
);
note = uni21D3;
unicode = 8659;
}
{
export = 0;
glyphname = leftRightDoubleArrow;
layers = (
{
layerId = "C73C0C47-E6C6-445A-8A34-E4CE4D1E91FA";
shapes = (
{
closed = 1;
nodes = (
(100,280,l),
(318,79,l),
(333,96,l),
(231,190,l),
(769,190,l),
(667,96,l),
(682,79,l),
(900,280,l),
(682,481,l),
(667,464,l),
(769,370,l),
(231,370,l),
(333,464,l),
(318,481,l)
);
},
{
closed = 1;
nodes = (
(133,280,l),
(207,348,l),
(793,348,l),
(867,280,l),
(793,212,l),
(207,212,l)
);
}
);
width = 1000;
},
{
layerId = "D83BBA30-9F2C-4CD6-96B7-4A74A7087E78";
shapes = (
{
closed = 1;
nodes = (
(120,280,l),
(400,12,l),
(452,68,l),
(370,146,l),
(750,146,l),
(668,68,l),
(720,12,l),
(1000,280,l),
(720,548,l),
(668,492,l),
(750,414,l),
(370,414,l),
(452,492,l),
(400,548,l)
);
},
{
closed = 1;
nodes = (
(228,280,l),
(290,338,l),
(830,338,l),
(892,280,l),
(830,222,l),
(290,222,l)
);
}
);
width = 1120;
},
{
layerId = "C41EA034-4E7F-46DC-9CBA-05541AA6484D";
shapes = (
{
closed = 1;
nodes = (
(120,280,l),
(408,-64,l),
(522,32,l),
(479,84,l),
(811,84,l),
(768,32,l),
(882,-64,l),
(1170,280,l),
(882,624,l),
(768,528,l),
(811,476,l),
(479,476,l),
(522,528,l),
(408,624,l)
);
},
{
closed = 1;
nodes = (
(315,280,l),
(340,310,l),
(950,310,l),
(975,280,l),
(950,250,l),
(340,250,l)
);
}
);
width = 1290;
}
);
note = uni21D4;
unicode = 8660;
}
{
export = 0;
glyphname = upDownDoubleArrow;
layers = (
{
layerId = "C73C0C47-E6C6-445A-8A34-E4CE4D1E91FA";
shapes = (
{
closed = 1;
nodes = (
(100,98,l),
(301,-120,l),
(502,98,l),
(485,113,l),
(391,11,l),
(391,549,l),
(485,447,l),
(502,462,l),
(301,680,l),
(100,462,l),
(117,447,l),
(211,549,l),
(211,11,l),
(117,113,l)
);
},
{
closed = 1;
nodes = (
(233,-13,l),
(233,573,l),
(301,647,l),
(369,573,l),
(369,-13,l),
(301,-87,l)
);
}
);
width = 602;
},
{
layerId = "D83BBA30-9F2C-4CD6-96B7-4A74A7087E78";
shapes = (
{
closed = 1;
nodes = (
(120,120,l),
(388,-160,l),
(656,120,l),
(600,172,l),
(522,90,l),
(522,470,l),
(600,388,l),
(656,440,l),
(388,720,l),
(120,440,l),
(176,388,l),
(254,470,l),
(254,90,l),
(176,172,l)
);
},
{
closed = 1;
nodes = (
(330,10,l),
(330,550,l),
(388,612,l),
(446,550,l),
(446,10,l),
(388,-52,l)
);
}
);
width = 776;
},
{
layerId = "C41EA034-4E7F-46DC-9CBA-05541AA6484D";
shapes = (
{
closed = 1;
nodes = (
(301,43,l),
(645,-245,l),
(989,43,l),
(893,157,l),
(841,114,l),
(841,446,l),
(893,403,l),
(989,517,l),
(645,805,l),
(301,517,l),
(397,403,l),
(449,446,l),
(449,114,l),
(397,157,l)
);
},
{
closed = 1;
nodes = (
(615,-25,l),
(615,585,l),
(645,610,l),
(675,585,l),
(675,-25,l),
(645,-50,l)
);
}
);
width = 1290;
}
);
note = uni21D5;
unicode = 8661;
}
{
export = 0;
glyphname = northWestDoubleArrow;
layers = (
{
layerId = "C73C0C47-E6C6-445A-8A34-E4CE4D1E91FA";
shapes = (
{
closed = 1;
nodes = (
(100,535,l),
(112,238,l),
(135,240,l),
(129,378,l),
(546,-38,l),
(561,-23,l),
(128,411,l),
(124,511,l),
(224,507,l),
(658,74,l),
(673,89,l),
(257,506,l),
(395,500,l),
(397,523,l)
);
}
);
width = 773;
},
{
layerId = "D83BBA30-9F2C-4CD6-96B7-4A74A7087E78";
shapes = (
{
closed = 1;
nodes = (
(120,563,l),
(129,175,l),
(205,178,l),
(202,291,l),
(591,-98,l),
(645,-44,l),
(199,402,l),
(197,486,l),
(281,484,l),
(727,38,l),
(781,92,l),
(392,481,l),
(505,478,l),
(508,554,l)
);
}
);
width = 901;
},
{
layerId = "C41EA034-4E7F-46DC-9CBA-05541AA6484D";
shapes = (
{
closed = 1;
nodes = (
(247,588,l),
(208,141,l),
(356,128,l),
(363,195,l),
(724,-166,l),
(841,-49,l),
(382,411,l),
(385,450,l),
(424,453,l),
(884,-6,l),
(1001,111,l),
(640,472,l),
(707,479,l),
(694,627,l)
);
}
);
width = 1110;
}
);
note = uni21D6;
unicode = 8662;
}
{
export = 0;
glyphname = northEastDoubleArrow;
layers = (
{
layerId = "C73C0C47-E6C6-445A-8A34-E4CE4D1E91FA";
shapes = (
{
closed = 1;
nodes = (
(100,89,l),
(115,74,l),
(549,507,l),
(649,511,l),
(645,411,l),
(212,-23,l),
(227,-38,l),
(644,378,l),
(638,240,l),
(661,238,l),
(673,535,l),
(376,523,l),
(378,500,l),
(516,506,l)
);
}
);
width = 773;
},
{
layerId = "D83BBA30-9F2C-4CD6-96B7-4A74A7087E78";
shapes = (
{
closed = 1;
nodes = (
(120,92,l),
(174,38,l),
(620,484,l),
(704,486,l),
(702,402,l),
(256,-44,l),
(310,-98,l),
(699,291,l),
(696,178,l),
(772,175,l),
(781,563,l),
(393,554,l),
(396,478,l),
(509,481,l)
);
}
);
width = 901;
},
{
layerId = "C41EA034-4E7F-46DC-9CBA-05541AA6484D";
shapes = (
{
closed = 1;
nodes = (
(208,111,l),
(325,-6,l),
(785,453,l),
(824,450,l),
(827,411,l),
(368,-49,l),
(485,-166,l),
(846,195,l),
(853,128,l),
(1001,141,l),
(962,588,l),
(515,627,l),
(502,479,l),
(569,472,l)
);
}
);
width = 1110;
}
);
note = uni21D7;
unicode = 8663;
}
{
export = 0;
glyphname = southEastDoubleArrow;
layers = (
{
layerId = "C73C0C47-E6C6-445A-8A34-E4CE4D1E91FA";
shapes = (
{
closed = 1;
nodes = (
(100,408,l),
(516,-9,l),
(378,-3,l),
(376,-26,l),
(673,-38,l),
(661,259,l),
(638,257,l),
(644,119,l),
(227,535,l),
(212,520,l),
(645,86,l),
(649,-14,l),
(549,-10,l),
(115,423,l)
);
}
);
width = 773;
},
{
layerId = "D83BBA30-9F2C-4CD6-96B7-4A74A7087E78";
shapes = (
{
closed = 1;
nodes = (
(120,373,l),
(509,-16,l),
(396,-13,l),
(393,-89,l),
(781,-98,l),
(772,290,l),
(696,287,l),
(699,174,l),
(310,563,l),
(256,509,l),
(702,63,l),
(704,-21,l),
(620,-19,l),
(174,427,l)
);
}
);
width = 901;
},
{
layerId = "C41EA034-4E7F-46DC-9CBA-05541AA6484D";
shapes = (
{
closed = 1;
nodes = (
(208,350,l),
(569,-11,l),
(502,-18,l),
(515,-166,l),
(962,-127,l),
(1001,320,l),
(853,333,l),
(846,266,l),
(485,627,l),
(368,510,l),
(827,50,l),
(824,11,l),
(785,8,l),
(325,467,l)
);
}
);
width = 1110;
}
);
note = uni21D8;
unicode = 8664;
}
{
export = 0;
glyphname = southWestDoubleArrow;
layers = (
{
layerId = "C73C0C47-E6C6-445A-8A34-E4CE4D1E91FA";
shapes = (
{
closed = 1;
nodes = (
(100,-38,l),
(397,-26,l),
(395,-3,l),
(257,-9,l),
(673,408,l),
(658,423,l),
(224,-10,l),
(124,-14,l),
(128,86,l),
(561,520,l),
(546,535,l),
(129,119,l),
(135,257,l),
(112,259,l)
);
}
);
width = 773;
},
{
layerId = "D83BBA30-9F2C-4CD6-96B7-4A74A7087E78";
shapes = (
{
closed = 1;
nodes = (
(120,-98,l),
(508,-89,l),
(505,-13,l),
(392,-16,l),
(781,373,l),
(727,427,l),
(281,-19,l),
(197,-21,l),
(199,63,l),
(645,509,l),
(591,563,l),
(202,174,l),
(205,287,l),
(129,290,l)
);
}
);
width = 901;
},
{
layerId = "C41EA034-4E7F-46DC-9CBA-05541AA6484D";
shapes = (
{
closed = 1;
nodes = (
(247,-127,l),
(694,-166,l),
(707,-18,l),
(640,-11,l),
(1001,350,l),
(884,467,l),
(424,8,l),
(385,11,l),
(382,50,l),
(841,510,l),
(724,627,l),
(363,266,l),
(356,333,l),
(208,320,l)
);
}
);
width = 1110;
}
);
note = uni21D9;
unicode = 8665;
}
{
export = 0;
glyphname = leftTripleArrow;
layers = (
{
layerId = "C73C0C47-E6C6-445A-8A34-E4CE4D1E91FA";
shapes = (
{
closed = 1;
nodes = (
(100,280,l),
(323,19,l),
(339,34,l),
(257,130,l),
(820,130,l),
(820,152,l),
(238,152,l),
(138,269,l),
(820,269,l),
(820,291,l),
(138,291,l),
(238,408,l),
(820,408,l),
(820,430,l),
(257,430,l),
(339,526,l),
(323,541,l)
);
}
);
width = 920;
},
{
layerId = "D83BBA30-9F2C-4CD6-96B7-4A74A7087E78";
shapes = (
{
closed = 1;
nodes = (
(120,280,l),
(415,-53,l),
(471,-2,l),
(411,66,l),
(920,66,l),
(920,142,l),
(344,142,l),
(255,242,l),
(920,242,l),
(920,318,l),
(255,318,l),
(344,418,l),
(920,418,l),
(920,494,l),
(411,494,l),
(471,562,l),
(415,613,l)
);
}
);
width = 1040;
},
{
layerId = "C41EA034-4E7F-46DC-9CBA-05541AA6484D";
shapes = (
{
closed = 1;
nodes = (
(120,280,l),
(427,-173,l),
(549,-86,l),
(510,-29,l),
(990,-29,l),
(990,137,l),
(398,137,l),
(357,197,l),
(990,197,l),
(990,363,l),
(357,363,l),
(398,423,l),
(990,423,l),
(990,589,l),
(510,589,l),
(549,646,l),
(427,733,l)
);
}
);
width = 1110;
}
);
note = uni21DA;
unicode = 8666;
}
{
export = 0;
glyphname = rightTripleArrow;
layers = (
{
layerId = "C73C0C47-E6C6-445A-8A34-E4CE4D1E91FA";
shapes = (
{
closed = 1;
nodes = (
(100,130,l),
(663,130,l),
(581,34,l),
(597,19,l),
(820,280,l),
(597,541,l),
(581,526,l),
(663,430,l),
(100,430,l),
(100,408,l),
(682,408,l),
(782,291,l),
(100,291,l),
(100,269,l),
(782,269,l),
(682,152,l),
(100,152,l)
);
}
);
width = 920;
},
{
layerId = "D83BBA30-9F2C-4CD6-96B7-4A74A7087E78";
shapes = (
{
closed = 1;
nodes = (
(120,66,l),
(629,66,l),
(569,-2,l),
(625,-53,l),
(920,280,l),
(625,613,l),
(569,562,l),
(629,494,l),
(120,494,l),
(120,418,l),
(696,418,l),
(785,318,l),
(120,318,l),
(120,242,l),
(785,242,l),
(696,142,l),
(120,142,l)
);
}
);
width = 1040;
},
{
layerId = "C41EA034-4E7F-46DC-9CBA-05541AA6484D";
shapes = (
{
closed = 1;
nodes = (
(120,-29,l),
(600,-29,l),
(561,-86,l),
(683,-173,l),
(990,280,l),
(683,733,l),
(561,646,l),
(600,589,l),
(120,589,l),
(120,423,l),
(712,423,l),
(753,363,l),
(120,363,l),
(120,197,l),
(753,197,l),
(712,137,l),
(120,137,l)
);
}
);
width = 1110;
}
);
note = uni21DB;
unicode = 8667;
}
{
color = 4;
glyphname = leftSquiggleArrow;
layers = (
{
layerId = "C73C0C47-E6C6-445A-8A34-E4CE4D1E91FA";
shapes = (
{
closed = 1;
nodes = (
(699,134,o),
(702,404,o),
(770,404,cs),
(819,404,o),
(832,269,o),
(902,269,cs),
(940,269,l),
(940,291,l),
(905,291,ls),
(846,291,o),
(838,426,o),
(770,426,cs),
(681,426,o),
(678,156,o),
(610,156,cs),
(542,156,o),
(539,426,o),
(450,426,cs),
(382,426,o),
(374,291,o),
(315,291,cs),
(134,291,l),
(134,269,l),
(318,269,ls),
(388,269,o),
(401,404,o),
(450,404,cs),
(518,404,o),
(521,134,o),
(610,134,cs)
);
},
{
pos = (100,0);
ref = arrowHead;
}
);
width = 1040;
},
{
layerId = "D83BBA30-9F2C-4CD6-96B7-4A74A7087E78";
shapes = (
{
closed = 1;
nodes = (
(810,120,o),
(789,364,o),
(834,364,cs),
(867,364,o),
(892,242,o),
(1016,242,cs),
(1060,242,l),
(1060,318,l),
(1016,318,ls),
(929,318,o),
(918,440,o),
(834,440,cs),
(712,440,o),
(733,196,o),
(688,196,cs),
(643,196,o),
(664,440,o),
(542,440,cs),
(458,440,o),
(447,318,o),
(360,318,cs),
(240,318,l),
(240,242,l),
(360,242,ls),
(484,242,o),
(509,364,o),
(542,364,cs),
(587,364,o),
(566,120,o),
(688,120,cs)
);
},
{
pos = (120,0);
ref = arrowHead;
}
);
width = 1180;
},
{
layerId = "C41EA034-4E7F-46DC-9CBA-05541AA6484D";
shapes = (
{
closed = 1;
nodes = (
(969,37,o),
(977,343,o),
(999,343,cs),
(1021,343,o),
(1030,197,o),
(1183,197,cs),
(1246,197,l),
(1246,363,l),
(1198,363,ls),
(1112,363,o),
(1105,521,o),
(999,521,cs),
(855,521,o),
(847,215,o),
(825,215,cs),
(803,215,o),
(795,521,o),
(651,521,cs),
(545,521,o),
(538,363,o),
(452,363,cs),
(340,363,l),
(340,197,l),
(467,197,ls),
(620,197,o),
(629,343,o),
(651,343,cs),
(673,343,o),
(681,37,o),
(825,37,cs)
);
},
{
pos = (120,0);
ref = arrowHead;
}
);
width = 1366;
}
);
note = uni21DC;
unicode = 8668;
}
{
export = 0;
glyphname = leftDashArrow;
layers = (
{
layerId = "C73C0C47-E6C6-445A-8A34-E4CE4D1E91FA";
shapes = (
{
closed = 1;
nodes = (
(100,280,l),
(293,102,l),
(308,119,l),
(145,269,l),
(316,269,l),
(316,291,l),
(145,291,l),
(308,441,l),
(293,458,l)
);
},
{
closed = 1;
nodes = (
(364,269,l),
(484,269,l),
(484,291,l),
(364,291,l)
);
},
{
closed = 1;
nodes = (
(532,269,l),
(652,269,l),
(652,291,l),
(532,291,l)
);
},
{
closed = 1;
nodes = (
(700,269,l),
(820,269,l),
(820,291,l),
(700,291,l)
);
}
);
width = 920;
},
{
layerId = "D83BBA30-9F2C-4CD6-96B7-4A74A7087E78";
shapes = (
{
closed = 1;
nodes = (
(120,280,l),
(350,68,l),
(401,125,l),
(274,242,l),
(416,242,l),
(416,318,l),
(274,318,l),
(401,435,l),
(350,492,l)
);
},
{
closed = 1;
nodes = (
(464,242,l),
(584,242,l),
(584,318,l),
(464,318,l)
);
},
{
closed = 1;
nodes = (
(632,242,l),
(752,242,l),
(752,318,l),
(632,318,l)
);
},
{
closed = 1;
nodes = (
(800,242,l),
(920,242,l),
(920,318,l),
(800,318,l)
);
}
);
width = 1040;
},
{
layerId = "C41EA034-4E7F-46DC-9CBA-05541AA6484D";
shapes = (
{
closed = 1;
nodes = (
(120,280,l),
(390,-6,l),
(510,99,l),
(404,197,l),
(514,197,l),
(514,363,l),
(404,363,l),
(498,461,l),
(390,566,l)
);
},
{
closed = 1;
nodes = (
(550,197,l),
(686,197,l),
(686,363,l),
(550,363,l)
);
},
{
closed = 1;
nodes = (
(722,197,l),
(858,197,l),
(858,363,l),
(722,363,l)
);
},
{
closed = 1;
nodes = (
(894,197,l),
(1030,197,l),
(1030,363,l),
(894,363,l)
);
}
);
width = 1150;
}
);
note = uni21E0;
unicode = 8672;
}
{
color = 8;
export = 0;
glyphname = upDashArrow;
layers = (
{
layerId = "D42A05F0-DBDC-4569-915A-03C7188507B6";
width = 556;
},
{
layerId = "B2FE45D6-EF48-417F-ACCD-B60D15D1CAF3";
shapes = (
{
closed = 1;
nodes = (
(100,447,l),
(117,432,l),
(267,595,l),
(267,424,l),
(289,424,l),
(289,595,l),
(439,432,l),
(456,447,l),
(278,640,l)
);
},
{
closed = 1;
nodes = (
(267,-80,l),
(289,-80,l),
(289,40,l),
(267,40,l)
);
},
{
closed = 1;
nodes = (
(267,88,l),
(289,88,l),
(289,208,l),
(267,208,l)
);
},
{
closed = 1;
nodes = (
(267,256,l),
(289,256,l),
(289,376,l),
(267,376,l)
);
}
);
width = 556;
},
{
layerId = "D92A4C0B-EB2A-4209-AFE3-2959A8B274DD";
shapes = (
{
closed = 1;
nodes = (
(80,450,l),
(137,399,l),
(254,526,l),
(254,384,l),
(330,384,l),
(330,526,l),
(447,399,l),
(504,450,l),
(292,680,l)
);
},
{
closed = 1;
nodes = (
(254,-120,l),
(330,-120,l),
(330,0,l),
(254,0,l)
);
},
{
closed = 1;
nodes = (
(254,48,l),
(330,48,l),
(330,168,l),
(254,168,l)
);
},
{
closed = 1;
nodes = (
(254,216,l),
(330,216,l),
(330,336,l),
(254,336,l)
);
}
);
width = 584;
},
{
layerId = "B26C53A4-97D1-457B-8232-65310EC64496";
shapes = (
{
closed = 1;
nodes = (
(120,465,l),
(225,345,l),
(323,451,l),
(323,341,l),
(489,341,l),
(489,451,l),
(587,357,l),
(692,465,l),
(406,735,l)
);
},
{
closed = 1;
nodes = (
(323,-175,l),
(489,-175,l),
(489,-39,l),
(323,-39,l)
);
},
{
closed = 1;
nodes = (
(323,-3,l),
(489,-3,l),
(489,133,l),
(323,133,l)
);
},
{
closed = 1;
nodes = (
(323,169,l),
(489,169,l),
(489,305,l),
(323,305,l)
);
}
);
width = 812;
}
);
note = uni21E1;
subCategory = Arrow;
unicode = 8673;
}
{
export = 0;
glyphname = rightDashArrow;
layers = (
{
layerId = "C73C0C47-E6C6-445A-8A34-E4CE4D1E91FA";
shapes = (
{
closed = 1;
nodes = (
(100,269,l),
(220,269,l),
(220,291,l),
(100,291,l)
);
},
{
closed = 1;
nodes = (
(268,269,l),
(388,269,l),
(388,291,l),
(268,291,l)
);
},
{
closed = 1;
nodes = (
(436,269,l),
(556,269,l),
(556,291,l),
(436,291,l)
);
},
{
closed = 1;
nodes = (
(604,269,l),
(775,269,l),
(612,119,l),
(627,102,l),
(820,280,l),
(627,458,l),
(612,441,l),
(775,291,l),
(604,291,l)
);
}
);
width = 920;
},
{
layerId = "D83BBA30-9F2C-4CD6-96B7-4A74A7087E78";
shapes = (
{
closed = 1;
nodes = (
(120,242,l),
(240,242,l),
(240,318,l),
(120,318,l)
);
},
{
closed = 1;
nodes = (
(288,242,l),
(408,242,l),
(408,318,l),
(288,318,l)
);
},
{
closed = 1;
nodes = (
(456,242,l),
(576,242,l),
(576,318,l),
(456,318,l)
);
},
{
closed = 1;
nodes = (
(624,242,l),
(766,242,l),
(639,125,l),
(690,68,l),
(920,280,l),
(690,492,l),
(639,435,l),
(766,318,l),
(624,318,l)
);
}
);
width = 1040;
},
{
layerId = "C41EA034-4E7F-46DC-9CBA-05541AA6484D";
shapes = (
{
closed = 1;
nodes = (
(120,197,l),
(256,197,l),
(256,363,l),
(120,363,l)
);
},
{
closed = 1;
nodes = (
(292,197,l),
(428,197,l),
(428,363,l),
(292,363,l)
);
},
{
closed = 1;
nodes = (
(464,197,l),
(600,197,l),
(600,363,l),
(464,363,l)
);
},
{
closed = 1;
nodes = (
(636,197,l),
(746,197,l),
(640,99,l),
(760,-6,l),
(1030,280,l),
(760,566,l),
(652,461,l),
(746,363,l),
(636,363,l)
);
}
);
width = 1150;
}
);
note = uni21E2;
unicode = 8674;
}
{
export = 0;
glyphname = dashdownArrow;
layers = (
{
layerId = "C73C0C47-E6C6-445A-8A34-E4CE4D1E91FA";
shapes = (
{
closed = 1;
nodes = (
(100,113,l),
(278,-80,l),
(456,113,l),
(439,128,l),
(289,-35,l),
(289,136,l),
(267,136,l),
(267,-35,l),
(117,128,l)
);
},
{
closed = 1;
nodes = (
(267,184,l),
(289,184,l),
(289,304,l),
(267,304,l)
);
},
{
closed = 1;
nodes = (
(267,352,l),
(289,352,l),
(289,472,l),
(267,472,l)
);
},
{
closed = 1;
nodes = (
(267,520,l),
(289,520,l),
(289,640,l),
(267,640,l)
);
}
);
width = 556;
},
{
layerId = "D83BBA30-9F2C-4CD6-96B7-4A74A7087E78";
shapes = (
{
closed = 1;
nodes = (
(120,110,l),
(332,-120,l),
(544,110,l),
(487,161,l),
(370,34,l),
(370,176,l),
(294,176,l),
(294,34,l),
(177,161,l)
);
},
{
closed = 1;
nodes = (
(294,224,l),
(370,224,l),
(370,344,l),
(294,344,l)
);
},
{
closed = 1;
nodes = (
(294,392,l),
(370,392,l),
(370,512,l),
(294,512,l)
);
},
{
closed = 1;
nodes = (
(294,560,l),
(370,560,l),
(370,680,l),
(294,680,l)
);
}
);
width = 664;
},
{
layerId = "C41EA034-4E7F-46DC-9CBA-05541AA6484D";
shapes = (
{
closed = 1;
nodes = (
(120,95,l),
(406,-175,l),
(692,95,l),
(587,203,l),
(489,109,l),
(489,219,l),
(323,219,l),
(323,109,l),
(225,215,l)
);
},
{
closed = 1;
nodes = (
(323,255,l),
(489,255,l),
(489,391,l),
(323,391,l)
);
},
{
closed = 1;
nodes = (
(323,427,l),
(489,427,l),
(489,563,l),
(323,563,l)
);
},
{
closed = 1;
nodes = (
(323,599,l),
(489,599,l),
(489,735,l),
(323,735,l)
);
}
);
width = 812;
}
);
note = uni21E3;
unicode = 8675;
}
{
color = 8;
export = 0;
glyphname = leftTabArrow;
layers = (
{
layerId = "D42A05F0-DBDC-4569-915A-03C7188507B6";
width = 920;
},
{
layerId = "B2FE45D6-EF48-417F-ACCD-B60D15D1CAF3";
shapes = (
{
closed = 1;
nodes = (
(100,104,l),
(122,104,l),
(122,456,l),
(100,456,l)
);
},
{
closed = 1;
nodes = (
(118,280,l),
(311,102,l),
(326,119,l),
(163,269,l),
(820,269,l),
(820,291,l),
(163,291,l),
(326,441,l),
(311,458,l)
);
}
);
width = 920;
},
{
layerId = "D92A4C0B-EB2A-4209-AFE3-2959A8B274DD";
shapes = (
{
closed = 1;
nodes = (
(80,88,l),
(156,88,l),
(156,472,l),
(80,472,l)
);
},
{
closed = 1;
nodes = (
(146,280,l),
(376,68,l),
(427,125,l),
(300,242,l),
(946,242,l),
(946,318,l),
(300,318,l),
(427,435,l),
(376,492,l)
);
}
);
width = 1026;
},
{
layerId = "B26C53A4-97D1-457B-8232-65310EC64496";
shapes = (
{
closed = 1;
nodes = (
(120,10,l),
(286,10,l),
(286,550,l),
(120,550,l)
);
},
{
closed = 1;
nodes = (
(270,280,l),
(540,-6,l),
(648,99,l),
(554,197,l),
(1140,197,l),
(1140,363,l),
(554,363,l),
(648,461,l),
(540,566,l)
);
}
);
width = 1260;
}
);
note = uni21E4;
subCategory = Arrow;
unicode = 8676;
}
{
color = 8;
export = 0;
glyphname = rightTabArrow;
layers = (
{
layerId = "D42A05F0-DBDC-4569-915A-03C7188507B6";
width = 920;
},
{
layerId = "B2FE45D6-EF48-417F-ACCD-B60D15D1CAF3";
shapes = (
{
closed = 1;
nodes = (
(100,269,l),
(757,269,l),
(594,119,l),
(609,102,l),
(802,280,l),
(609,458,l),
(594,441,l),
(757,291,l),
(100,291,l)
);
},
{
closed = 1;
nodes = (
(798,104,l),
(820,104,l),
(820,456,l),
(798,456,l)
);
}
);
width = 920;
},
{
layerId = "D92A4C0B-EB2A-4209-AFE3-2959A8B274DD";
shapes = (
{
closed = 1;
nodes = (
(80,242,l),
(726,242,l),
(599,125,l),
(650,68,l),
(880,280,l),
(650,492,l),
(599,435,l),
(726,318,l),
(80,318,l)
);
},
{
closed = 1;
nodes = (
(870,88,l),
(946,88,l),
(946,472,l),
(870,472,l)
);
}
);
width = 1026;
},
{
layerId = "B26C53A4-97D1-457B-8232-65310EC64496";
shapes = (
{
closed = 1;
nodes = (
(120,197,l),
(706,197,l),
(612,99,l),
(720,-6,l),
(990,280,l),
(720,566,l),
(612,461,l),
(706,363,l),
(120,363,l)
);
},
{
closed = 1;
nodes = (
(974,10,l),
(1140,10,l),
(1140,550,l),
(974,550,l)
);
}
);
width = 1260;
}
);
note = uni21E5;
subCategory = Arrow;
unicode = 8677;
}
{
color = 8;
export = 0;
glyphname = leftWhiteArrow;
layers = (
{
layerId = "D42A05F0-DBDC-4569-915A-03C7188507B6";
width = 920;
},
{
layerId = "B2FE45D6-EF48-417F-ACCD-B60D15D1CAF3";
shapes = (
{
closed = 1;
nodes = (
(100,280,l),
(345,54,l),
(345,168,l),
(820,168,l),
(820,392,l),
(345,392,l),
(345,506,l)
);
},
{
closed = 1;
nodes = (
(134,280,l),
(323,455,l),
(323,370,l),
(798,370,l),
(798,190,l),
(323,190,l),
(323,105,l)
);
}
);
width = 920;
},
{
layerId = "D92A4C0B-EB2A-4209-AFE3-2959A8B274DD";
shapes = (
{
closed = 1;
nodes = (
(80,280,l),
(398,-20,l),
(398,132,l),
(880,132,l),
(880,428,l),
(398,428,l),
(398,580,l)
);
},
{
closed = 1;
nodes = (
(174,280,l),
(342,438,l),
(342,364,l),
(816,364,l),
(816,196,l),
(342,196,l),
(342,122,l)
);
}
);
width = 960;
},
{
layerId = "B26C53A4-97D1-457B-8232-65310EC64496";
shapes = (
{
closed = 1;
nodes = (
(120,280,l),
(476,-56,l),
(476,110,l),
(990,110,l),
(990,450,l),
(476,450,l),
(476,616,l)
);
},
{
closed = 1;
nodes = (
(302,280,l),
(406,378,l),
(406,322,l),
(862,322,l),
(862,238,l),
(406,238,l),
(406,182,l)
);
}
);
width = 1110;
}
);
note = uni21E6;
subCategory = Arrow;
unicode = 8678;
}
{
export = 0;
glyphname = rightWhiteArrow;
layers = (
{
layerId = "C73C0C47-E6C6-445A-8A34-E4CE4D1E91FA";
shapes = (
{
closed = 1;
nodes = (
(100,158,l),
(575,168,l),
(575,54,l),
(820,280,l),
(575,506,l),
(575,392,l),
(100,392,l)
);
},
{
closed = 1;
nodes = (
(122,190,l),
(122,370,l),
(597,370,l),
(597,455,l),
(786,280,l),
(597,105,l),
(597,190,l)
);
}
);
width = 920;
},
{
layerId = "D83BBA30-9F2C-4CD6-96B7-4A74A7087E78";
shapes = (
{
closed = 1;
nodes = (
(120,132,l),
(602,132,l),
(602,-20,l),
(920,280,l),
(602,580,l),
(602,428,l),
(120,428,l)
);
},
{
closed = 1;
nodes = (
(184,196,l),
(184,364,l),
(658,364,l),
(658,438,l),
(826,280,l),
(658,122,l),
(658,196,l)
);
}
);
width = 1040;
},
{
layerId = "C41EA034-4E7F-46DC-9CBA-05541AA6484D";
shapes = (
{
closed = 1;
nodes = (
(120,110,l),
(634,110,l),
(634,-56,l),
(990,280,l),
(634,616,l),
(634,450,l),
(120,450,l)
);
},
{
closed = 1;
nodes = (
(248,238,l),
(248,322,l),
(704,322,l),
(704,378,l),
(808,280,l),
(704,182,l),
(704,238,l)
);
}
);
width = 1110;
}
);
note = uni21E8;
unicode = 8680;
}
{
color = 8;
export = 0;
glyphname = downWhiteArrow;
layers = (
{
layerId = "D42A05F0-DBDC-4569-915A-03C7188507B6";
width = 652;
},
{
layerId = "B2FE45D6-EF48-417F-ACCD-B60D15D1CAF3";
shapes = (
{
closed = 1;
nodes = (
(100,165,l),
(326,-80,l),
(552,165,l),
(438,165,l),
(438,640,l),
(214,640,l),
(214,165,l)
);
},
{
closed = 1;
nodes = (
(151,143,l),
(236,143,l),
(236,618,l),
(416,618,l),
(416,143,l),
(501,143,l),
(326,-46,l)
);
}
);
width = 652;
},
{
layerId = "D92A4C0B-EB2A-4209-AFE3-2959A8B274DD";
shapes = (
{
closed = 1;
nodes = (
(80,198,l),
(380,-120,l),
(680,198,l),
(528,198,l),
(528,680,l),
(232,680,l),
(232,198,l)
);
},
{
closed = 1;
nodes = (
(222,142,l),
(296,142,l),
(296,616,l),
(464,616,l),
(464,142,l),
(538,142,l),
(380,-26,l)
);
}
);
width = 760;
},
{
layerId = "B26C53A4-97D1-457B-8232-65310EC64496";
shapes = (
{
closed = 1;
nodes = (
(120,201,l),
(456,-155,l),
(792,201,l),
(626,201,l),
(626,715,l),
(286,715,l),
(286,201,l)
);
},
{
closed = 1;
nodes = (
(358,131,l),
(414,131,l),
(414,587,l),
(498,587,l),
(498,131,l),
(554,131,l),
(456,27,l)
);
}
);
width = 912;
}
);
note = uni21E9;
subCategory = Arrow;
unicode = 8681;
}
{
export = 0;
glyphname = capslock;
layers = (
{
layerId = "C73C0C47-E6C6-445A-8A34-E4CE4D1E91FA";
shapes = (
{
closed = 1;
nodes = (
(100,395,l),
(214,395,l),
(214,100,l),
(438,100,l),
(438,395,l),
(552,395,l),
(326,640,l)
);
},
{
closed = 1;
nodes = (
(151,417,l),
(326,606,l),
(501,417,l),
(416,417,l),
(416,122,l),
(236,122,l),
(236,417,l)
);
},
{
closed = 1;
nodes = (
(214,60,l),
(214,-80,l),
(438,-80,l),
(438,60,l)
);
},
{
closed = 1;
nodes = (
(236,38,l),
(416,38,l),
(416,-58,l),
(236,-58,l)
);
}
);
width = 652;
},
{
layerId = "D83BBA30-9F2C-4CD6-96B7-4A74A7087E78";
shapes = (
{
closed = 1;
nodes = (
(120,362,l),
(272,362,l),
(272,128,l),
(568,128,l),
(568,362,l),
(720,362,l),
(420,680,l)
);
},
{
closed = 1;
nodes = (
(262,418,l),
(420,586,l),
(578,418,l),
(504,418,l),
(504,192,l),
(336,192,l),
(336,418,l)
);
},
{
closed = 1;
nodes = (
(272,72,l),
(272,-120,l),
(568,-120,l),
(568,72,l)
);
},
{
closed = 1;
nodes = (
(336,8,l),
(504,8,l),
(504,-56,l),
(336,-56,l)
);
}
);
width = 840;
},
{
layerId = "C41EA034-4E7F-46DC-9CBA-05541AA6484D";
shapes = (
{
closed = 1;
nodes = (
(120,359,l),
(286,359,l),
(286,149,l),
(626,149,l),
(626,359,l),
(792,359,l),
(456,715,l)
);
},
{
closed = 1;
nodes = (
(358,429,l),
(456,533,l),
(554,429,l),
(498,429,l),
(498,245,l),
(414,245,l),
(414,429,l)
);
},
{
closed = 1;
nodes = (
(286,101,l),
(286,-155,l),
(626,-155,l),
(626,101,l)
);
},
{
closed = 1;
nodes = (
(394,5,l),
(518,5,l),
(518,-59,l),
(394,-59,l)
);
}
);
width = 912;
}
);
note = uni21EA;
unicode = 8682;
}
{
color = 8;
export = 0;
glyphname = upOnPedestalWhiteArrow;
layers = (
{
layerId = "D42A05F0-DBDC-4569-915A-03C7188507B6";
width = 652;
},
{
layerId = "B2FE45D6-EF48-417F-ACCD-B60D15D1CAF3";
shapes = (
{
closed = 1;
nodes = (
(100,395,l),
(214,395,l),
(214,60,l),
(112,60,l),
(112,-80,l),
(540,-80,l),
(540,60,l),
(438,60,l),
(438,395,l),
(552,395,l),
(326,640,l)
);
},
{
closed = 1;
nodes = (
(134,38,l),
(236,38,l),
(236,417,l),
(151,417,l),
(326,606,l),
(501,417,l),
(416,417,l),
(416,38,l),
(518,38,l),
(518,-58,l),
(134,-58,l)
);
}
);
width = 652;
},
{
layerId = "D92A4C0B-EB2A-4209-AFE3-2959A8B274DD";
shapes = (
{
closed = 1;
nodes = (
(80,362,l),
(232,362,l),
(232,72,l),
(88,72,l),
(88,-120,l),
(672,-120,l),
(672,72,l),
(528,72,l),
(528,362,l),
(680,362,l),
(380,680,l)
);
},
{
closed = 1;
nodes = (
(152,8,l),
(296,8,l),
(296,418,l),
(222,418,l),
(380,586,l),
(538,418,l),
(464,418,l),
(464,8,l),
(608,8,l),
(608,-56,l),
(152,-56,l)
);
}
);
width = 760;
},
{
layerId = "B26C53A4-97D1-457B-8232-65310EC64496";
shapes = (
{
closed = 1;
nodes = (
(120,359,l),
(286,359,l),
(286,129,l),
(128,129,l),
(128,-155,l),
(784,-155,l),
(784,129,l),
(626,129,l),
(626,359,l),
(792,359,l),
(456,715,l)
);
},
{
closed = 1;
nodes = (
(256,21,l),
(414,21,l),
(414,429,l),
(358,429,l),
(456,533,l),
(554,429,l),
(498,429,l),
(498,21,l),
(656,21,l),
(656,-35,l),
(256,-35,l)
);
}
);
width = 912;
}
);
note = uni21EB;
subCategory = Arrow;
unicode = 8683;
}
{
export = 0;
glyphname = upArrowOnPedestalHorizontalWhiteBar;
layers = (
{
layerId = "C73C0C47-E6C6-445A-8A34-E4CE4D1E91FA";
shapes = (
{
closed = 1;
nodes = (
(100,395,l),
(214,395,l),
(214,60,l),
(112,60,l),
(112,-80,l),
(540,-80,l),
(540,60,l),
(438,60,l),
(438,395,l),
(552,395,l),
(326,640,l)
);
},
{
closed = 1;
nodes = (
(134,38,l),
(236,38,l),
(236,417,l),
(151,417,l),
(220,491,l),
(432,491,l),
(501,417,l),
(416,417,l),
(416,38,l),
(518,38,l),
(518,-58,l),
(134,-58,l)
);
},
{
closed = 1;
nodes = (
(240,513,l),
(326,606,l),
(412,513,l)
);
}
);
width = 652;
},
{
layerId = "D83BBA30-9F2C-4CD6-96B7-4A74A7087E78";
shapes = (
{
closed = 1;
nodes = (
(120,362,l),
(272,362,l),
(272,72,l),
(128,72,l),
(128,-120,l),
(712,-120,l),
(712,72,l),
(568,72,l),
(568,362,l),
(720,362,l),
(420,680,l)
);
},
{
closed = 1;
nodes = (
(192,8,l),
(336,8,l),
(336,418,l),
(262,418,l),
(296,454,l),
(544,454,l),
(578,418,l),
(504,418,l),
(504,8,l),
(648,8,l),
(648,-56,l),
(192,-56,l)
);
},
{
closed = 1;
nodes = (
(352,514,l),
(420,586,l),
(488,514,l)
);
}
);
width = 840;
},
{
layerId = "C41EA034-4E7F-46DC-9CBA-05541AA6484D";
shapes = (
{
closed = 1;
nodes = (
(120,359,l),
(294,359,l),
(294,129,l),
(128,129,l),
(128,-155,l),
(784,-155,l),
(784,129,l),
(618,129,l),
(618,359,l),
(792,359,l),
(456,715,l)
);
},
{
closed = 1;
nodes = (
(256,21,l),
(414,21,l),
(414,419,l),
(301,419,l),
(331,449,l),
(581,449,l),
(611,419,l),
(498,419,l),
(498,21,l),
(656,21,l),
(656,-35,l),
(256,-35,l)
);
},
{
closed = 1;
nodes = (
(404,521,l),
(456,573,l),
(508,521,l)
);
}
);
width = 912;
}
);
note = uni21EC;
unicode = 8684;
}
{
color = 8;
export = 0;
glyphname = upArrowOnPedestalVerticalWhiteBar;
layers = (
{
layerId = "D42A05F0-DBDC-4569-915A-03C7188507B6";
width = 652;
},
{
layerId = "B2FE45D6-EF48-417F-ACCD-B60D15D1CAF3";
shapes = (
{
closed = 1;
nodes = (
(100,395,l),
(214,395,l),
(214,60,l),
(112,60,l),
(112,-80,l),
(540,-80,l),
(540,60,l),
(438,60,l),
(438,395,l),
(552,395,l),
(326,640,l)
);
},
{
closed = 1;
nodes = (
(134,38,l),
(236,38,l),
(236,417,l),
(151,417,l),
(315,594,l),
(315,-58,l),
(134,-58,l)
);
},
{
closed = 1;
nodes = (
(337,-58,l),
(337,594,l),
(501,417,l),
(416,417,l),
(416,38,l),
(518,38,l),
(518,-58,l)
);
}
);
width = 652;
},
{
layerId = "D92A4C0B-EB2A-4209-AFE3-2959A8B274DD";
shapes = (
{
closed = 1;
nodes = (
(80,362,l),
(232,362,l),
(232,72,l),
(88,72,l),
(88,-120,l),
(672,-120,l),
(672,72,l),
(528,72,l),
(528,362,l),
(680,362,l),
(380,680,l)
);
},
{
closed = 1;
nodes = (
(152,8,l),
(296,8,l),
(296,418,l),
(222,418,l),
(348,552,l),
(348,-56,l),
(152,-56,l)
);
},
{
closed = 1;
nodes = (
(412,-56,l),
(412,552,l),
(538,418,l),
(464,418,l),
(464,8,l),
(608,8,l),
(608,-56,l)
);
}
);
width = 760;
},
{
layerId = "B26C53A4-97D1-457B-8232-65310EC64496";
shapes = (
{
closed = 1;
nodes = (
(120,359,l),
(272,359,l),
(272,65,l),
(128,65,l),
(128,-155,l),
(784,-155,l),
(784,65,l),
(640,65,l),
(640,359,l),
(792,359,l),
(456,715,l)
);
},
{
closed = 1;
nodes = (
(224,-19,l),
(368,-19,l),
(368,429,l),
(322,429,l),
(408,532,l),
(408,-59,l),
(224,-59,l)
);
},
{
closed = 1;
nodes = (
(504,-59,l),
(504,532,l),
(590,429,l),
(544,429,l),
(544,-19,l),
(688,-19,l),
(688,-59,l)
);
}
);
width = 912;
}
);
note = uni21ED;
subCategory = Arrow;
unicode = 8685;
}
{
export = 0;
glyphname = upDoubleWhiteArrow;
layers = (
{
layerId = "C73C0C47-E6C6-445A-8A34-E4CE4D1E91FA";
shapes = (
{
closed = 1;
nodes = (
(100,275,l),
(214,275,l),
(214,-80,l),
(438,-80,l),
(438,275,l),
(552,275,l),
(441,395,l),
(552,395,l),
(326,640,l),
(100,395,l),
(211,395,l)
);
},
{
closed = 1;
nodes = (
(151,297,l),
(326,486,l),
(501,297,l),
(416,297,l),
(416,-58,l),
(236,-58,l),
(236,297,l)
);
},
{
closed = 1;
nodes = (
(151,417,l),
(326,606,l),
(501,417,l),
(421,417,l),
(326,520,l),
(231,417,l)
);
}
);
width = 652;
},
{
layerId = "D83BBA30-9F2C-4CD6-96B7-4A74A7087E78";
shapes = (
{
closed = 1;
nodes = (
(120,202,l),
(272,202,l),
(272,-120,l),
(568,-120,l),
(568,202,l),
(720,202,l),
(569,362,l),
(720,362,l),
(420,680,l),
(120,362,l),
(271,362,l)
);
},
{
closed = 1;
nodes = (
(262,258,l),
(420,426,l),
(578,258,l),
(504,258,l),
(504,-56,l),
(336,-56,l),
(336,258,l)
);
},
{
closed = 1;
nodes = (
(262,418,l),
(420,586,l),
(578,418,l),
(516,418,l),
(420,520,l),
(324,418,l)
);
}
);
width = 840;
},
{
layerId = "C41EA034-4E7F-46DC-9CBA-05541AA6484D";
shapes = (
{
closed = 1;
nodes = (
(120,161,l),
(286,161,l),
(286,-155,l),
(626,-155,l),
(626,161,l),
(792,161,l),
(605,359,l),
(792,359,l),
(456,715,l),
(120,359,l),
(307,359,l)
);
},
{
closed = 1;
nodes = (
(321,241,l),
(456,375,l),
(591,241,l),
(506,241,l),
(506,-47,l),
(406,-47,l),
(406,241,l)
);
},
{
closed = 1;
nodes = (
(321,439,l),
(456,573,l),
(591,439,l),
(530,439,l),
(456,517,l),
(382,439,l)
);
}
);
width = 912;
}
);
note = uni21EE;
unicode = 8686;
}
{
color = 8;
export = 0;
glyphname = upDoubleOnPedestalWhiteArrow;
layers = (
{
layerId = "D42A05F0-DBDC-4569-915A-03C7188507B6";
width = 652;
},
{
layerId = "B2FE45D6-EF48-417F-ACCD-B60D15D1CAF3";
shapes = (
{
closed = 1;
nodes = (
(100,275,l),
(214,275,l),
(214,60,l),
(112,60,l),
(112,-80,l),
(540,-80,l),
(540,60,l),
(438,60,l),
(438,275,l),
(552,275,l),
(441,395,l),
(552,395,l),
(326,640,l),
(100,395,l),
(211,395,l)
);
},
{
closed = 1;
nodes = (
(134,38,l),
(236,38,l),
(236,297,l),
(151,297,l),
(326,486,l),
(501,297,l),
(416,297,l),
(416,38,l),
(518,38,l),
(518,-58,l),
(134,-58,l)
);
},
{
closed = 1;
nodes = (
(151,417,l),
(326,606,l),
(501,417,l),
(421,417,l),
(326,520,l),
(231,417,l)
);
}
);
width = 652;
},
{
layerId = "D92A4C0B-EB2A-4209-AFE3-2959A8B274DD";
shapes = (
{
closed = 1;
nodes = (
(80,202,l),
(232,202,l),
(232,72,l),
(88,72,l),
(88,-120,l),
(672,-120,l),
(672,72,l),
(528,72,l),
(528,202,l),
(680,202,l),
(529,362,l),
(680,362,l),
(380,680,l),
(80,362,l),
(231,362,l)
);
},
{
closed = 1;
nodes = (
(152,8,l),
(296,8,l),
(296,258,l),
(222,258,l),
(380,426,l),
(538,258,l),
(464,258,l),
(464,8,l),
(608,8,l),
(608,-56,l),
(152,-56,l)
);
},
{
closed = 1;
nodes = (
(222,418,l),
(380,586,l),
(538,418,l),
(476,418,l),
(380,520,l),
(284,418,l)
);
}
);
width = 760;
},
{
layerId = "B26C53A4-97D1-457B-8232-65310EC64496";
shapes = (
{
closed = 1;
nodes = (
(120,161,l),
(306,161,l),
(306,89,l),
(128,89,l),
(128,-155,l),
(784,-155,l),
(784,89,l),
(606,89,l),
(606,161,l),
(792,161,l),
(605,359,l),
(792,359,l),
(456,715,l),
(120,359,l),
(307,359,l)
);
},
{
closed = 1;
nodes = (
(236,-7,l),
(406,-7,l),
(406,241,l),
(321,241,l),
(456,375,l),
(591,241,l),
(506,241,l),
(506,-7,l),
(676,-7,l),
(676,-55,l),
(236,-55,l)
);
},
{
closed = 1;
nodes = (
(321,439,l),
(456,573,l),
(591,439,l),
(530,439,l),
(456,517,l),
(382,439,l)
);
}
);
width = 912;
}
);
note = uni21EF;
subCategory = Arrow;
unicode = 8687;
}
{
color = 8;
export = 0;
glyphname = rightFromWallWhiteArrow;
layers = (
{
layerId = "D42A05F0-DBDC-4569-915A-03C7188507B6";
width = 920;
},
{
layerId = "B2FE45D6-EF48-417F-ACCD-B60D15D1CAF3";
shapes = (
{
closed = 1;
nodes = (
(100,66,l),
(240,66,l),
(240,168,l),
(575,168,l),
(575,54,l),
(820,280,l),
(575,506,l),
(575,392,l),
(240,392,l),
(240,494,l),
(100,494,l)
);
},
{
closed = 1;
nodes = (
(122,88,l),
(122,472,l),
(218,472,l),
(218,370,l),
(597,370,l),
(597,455,l),
(786,280,l),
(597,105,l),
(597,190,l),
(218,190,l),
(218,88,l)
);
}
);
width = 920;
},
{
layerId = "D92A4C0B-EB2A-4209-AFE3-2959A8B274DD";
shapes = (
{
closed = 1;
nodes = (
(80,-12,l),
(272,-12,l),
(272,132,l),
(562,132,l),
(562,-20,l),
(880,280,l),
(562,580,l),
(562,428,l),
(272,428,l),
(272,572,l),
(80,572,l)
);
},
{
closed = 1;
nodes = (
(144,52,l),
(144,508,l),
(208,508,l),
(208,364,l),
(618,364,l),
(618,438,l),
(786,280,l),
(618,122,l),
(618,196,l),
(208,196,l),
(208,52,l)
);
}
);
width = 960;
},
{
layerId = "B26C53A4-97D1-457B-8232-65310EC64496";
shapes = (
{
closed = 1;
nodes = (
(120,-48,l),
(404,-48,l),
(404,110,l),
(634,110,l),
(634,-56,l),
(990,280,l),
(634,616,l),
(634,450,l),
(404,450,l),
(404,608,l),
(120,608,l)
);
},
{
closed = 1;
nodes = (
(240,80,l),
(240,480,l),
(296,480,l),
(296,322,l),
(704,322,l),
(704,378,l),
(808,280,l),
(704,182,l),
(704,238,l),
(296,238,l),
(296,80,l)
);
}
);
width = 1110;
}
);
note = uni21F0;
subCategory = Arrow;
unicode = 8688;
}
{
color = 8;
export = 0;
glyphname = northWestArrowToCorner;
layers = (
{
layerId = "D42A05F0-DBDC-4569-915A-03C7188507B6";
width = 792;
},
{
layerId = "B2FE45D6-EF48-417F-ACCD-B60D15D1CAF3";
shapes = (
{
closed = 1;
nodes = (
(100,48,l),
(122,48,l),
(122,618,l),
(692,618,l),
(692,640,l),
(100,640,l)
);
},
{
closed = 1;
nodes = (
(174,566,l),
(185,303,l),
(208,305,l),
(198,526,l),
(676,49,l),
(691,64,l),
(214,542,l),
(435,532,l),
(437,555,l)
);
}
);
width = 792;
},
{
layerId = "D92A4C0B-EB2A-4209-AFE3-2959A8B274DD";
shapes = (
{
closed = 1;
nodes = (
(80,-32,l),
(156,-32,l),
(156,602,l),
(792,602,l),
(792,678,l),
(80,678,l)
);
},
{
closed = 1;
nodes = (
(196,563,l),
(209,250,l),
(285,255,l),
(278,427,l),
(735,-30,l),
(789,24,l),
(332,481,l),
(504,474,l),
(509,550,l)
);
}
);
width = 872;
},
{
layerId = "B26C53A4-97D1-457B-8232-65310EC64496";
shapes = (
{
closed = 1;
nodes = (
(120,-106,l),
(286,-106,l),
(286,653,l),
(1045,653,l),
(1045,819,l),
(120,819,l)
);
},
{
closed = 1;
nodes = (
(351,588,l),
(340,194,l),
(491,192,l),
(494,328,l),
(908,-86,l),
(1025,31,l),
(611,445,l),
(747,448,l),
(745,599,l)
);
}
);
width = 1165;
}
);
note = uni21F1;
subCategory = Arrow;
unicode = 8689;
}
{
export = 0;
glyphname = southEastArrowToCorner;
layers = (
{
layerId = "C73C0C47-E6C6-445A-8A34-E4CE4D1E91FA";
shapes = (
{
closed = 1;
nodes = (
(100,48,l),
(692,48,l),
(692,640,l),
(670,640,l),
(670,70,l),
(100,70,l)
);
},
{
closed = 1;
nodes = (
(101,624,l),
(578,146,l),
(357,156,l),
(355,133,l),
(618,122,l),
(607,385,l),
(584,383,l),
(594,162,l),
(116,639,l)
);
}
);
width = 792;
},
{
layerId = "D83BBA30-9F2C-4CD6-96B7-4A74A7087E78";
shapes = (
{
closed = 1;
nodes = (
(120,-32,l),
(832,-32,l),
(832,678,l),
(756,678,l),
(756,44,l),
(120,44,l)
);
},
{
closed = 1;
nodes = (
(123,622,l),
(580,165,l),
(408,172,l),
(403,96,l),
(716,83,l),
(703,396,l),
(627,391,l),
(634,219,l),
(177,676,l)
);
}
);
width = 952;
},
{
layerId = "C41EA034-4E7F-46DC-9CBA-05541AA6484D";
shapes = (
{
closed = 1;
nodes = (
(120,-106,l),
(1045,-106,l),
(1045,819,l),
(879,819,l),
(879,60,l),
(120,60,l)
);
},
{
closed = 1;
nodes = (
(140,682,l),
(554,268,l),
(418,265,l),
(420,114,l),
(814,125,l),
(825,519,l),
(674,521,l),
(671,385,l),
(257,799,l)
);
}
);
width = 1165;
}
);
note = uni21F2;
unicode = 8690;
}
{
export = 0;
glyphname = upDownWhiteArrow;
layers = (
{
layerId = "C73C0C47-E6C6-445A-8A34-E4CE4D1E91FA";
shapes = (
{
closed = 1;
nodes = (
(100,145,l),
(326,-100,l),
(552,145,l),
(438,145,l),
(438,415,l),
(552,415,l),
(326,660,l),
(100,415,l),
(214,415,l),
(214,145,l)
);
},
{
closed = 1;
nodes = (
(151,123,l),
(236,123,l),
(236,437,l),
(151,437,l),
(326,626,l),
(501,437,l),
(416,437,l),
(416,123,l),
(501,123,l),
(326,-66,l)
);
}
);
width = 652;
},
{
layerId = "D83BBA30-9F2C-4CD6-96B7-4A74A7087E78";
shapes = (
{
closed = 1;
nodes = (
(120,158,l),
(420,-160,l),
(720,158,l),
(568,158,l),
(568,402,l),
(720,402,l),
(420,720,l),
(120,402,l),
(272,402,l),
(272,158,l)
);
},
{
closed = 1;
nodes = (
(262,102,l),
(336,102,l),
(336,458,l),
(262,458,l),
(420,626,l),
(578,458,l),
(504,458,l),
(504,102,l),
(578,102,l),
(420,-66,l)
);
}
);
width = 840;
},
{
layerId = "C41EA034-4E7F-46DC-9CBA-05541AA6484D";
shapes = (
{
closed = 1;
nodes = (
(120,176,l),
(456,-180,l),
(792,176,l),
(626,176,l),
(626,384,l),
(792,384,l),
(456,740,l),
(120,384,l),
(286,384,l),
(286,176,l)
);
},
{
closed = 1;
nodes = (
(358,106,l),
(414,106,l),
(414,454,l),
(358,454,l),
(456,558,l),
(554,454,l),
(498,454,l),
(498,106,l),
(554,106,l),
(456,2,l)
);
}
);
width = 912;
}
);
note = uni21F3;
unicode = 8691;
}
{
export = 0;
glyphname = rightCircleArrow;
layers = (
{
layerId = "C73C0C47-E6C6-445A-8A34-E4CE4D1E91FA";
shapes = (
{
closed = 1;
nodes = (
(100,269,l),
(250,269,l),
(250,269,l),
(518,269,l),
(518,269,l),
(775,269,l),
(612,119,l),
(627,102,l),
(820,280,l),
(627,458,l),
(612,441,l),
(775,291,l),
(518,291,l),
(518,291,l),
(250,291,l),
(250,291,l),
(100,291,l)
);
},
{
closed = 1;
nodes = (
(234,197,o),
(301,130,o),
(384,130,cs),
(467,130,o),
(534,197,o),
(534,280,cs),
(534,363,o),
(467,430,o),
(384,430,cs),
(301,430,o),
(234,363,o),
(234,280,cs)
);
},
{
closed = 1;
nodes = (
(256,351,o),
(313,408,o),
(384,408,cs),
(455,408,o),
(512,351,o),
(512,280,cs),
(512,209,o),
(455,152,o),
(384,152,cs),
(313,152,o),
(256,209,o),
(256,280,cs)
);
}
);
width = 920;
},
{
layerId = "D83BBA30-9F2C-4CD6-96B7-4A74A7087E78";
shapes = (
{
closed = 1;
nodes = (
(120,242,l),
(300,242,l),
(300,242,l),
(540,242,l),
(540,242,l),
(766,242,l),
(639,125,l),
(690,68,l),
(920,280,l),
(690,492,l),
(639,435,l),
(766,318,l),
(540,318,l),
(540,318,l),
(300,318,l),
(300,318,l),
(120,318,l)
);
},
{
closed = 1;
nodes = (
(252,187,o),
(327,112,o),
(420,112,cs),
(513,112,o),
(588,187,o),
(588,280,cs),
(588,373,o),
(513,448,o),
(420,448,cs),
(327,448,o),
(252,373,o),
(252,280,cs)
);
},
{
closed = 1;
nodes = (
(316,337,o),
(363,384,o),
(420,384,cs),
(477,384,o),
(524,337,o),
(524,280,cs),
(524,223,o),
(477,176,o),
(420,176,cs),
(363,176,o),
(316,223,o),
(316,280,cs)
);
}
);
width = 1040;
},
{
layerId = "C41EA034-4E7F-46DC-9CBA-05541AA6484D";
shapes = (
{
closed = 1;
nodes = (
(120,197,l),
(300,197,l),
(300,216,l),
(620,216,l),
(620,197,l),
(786,197,l),
(692,99,l),
(800,-6,l),
(1070,280,l),
(800,566,l),
(692,461,l),
(786,363,l),
(620,363,l),
(620,344,l),
(300,344,l),
(300,363,l),
(120,363,l)
);
},
{
closed = 1;
nodes = (
(220,148,o),
(328,40,o),
(460,40,cs),
(592,40,o),
(700,148,o),
(700,280,cs),
(700,412,o),
(592,520,o),
(460,520,cs),
(328,520,o),
(220,412,o),
(220,280,cs)
);
},
{
closed = 1;
nodes = (
(348,342,o),
(398,392,o),
(460,392,cs),
(522,392,o),
(572,342,o),
(572,280,cs),
(572,218,o),
(522,168,o),
(460,168,cs),
(398,168,o),
(348,218,o),
(348,280,cs)
);
}
);
width = 1190;
}
);
note = uni21F4;
unicode = 8692;
}
{
color = 8;
export = 0;
glyphname = threeRightArrow;
layers = (
{
layerId = "D42A05F0-DBDC-4569-915A-03C7188507B6";
width = 920;
},
{
layerId = "B2FE45D6-EF48-417F-ACCD-B60D15D1CAF3";
shapes = (
{
closed = 1;
nodes = (
(100,-53,l),
(775,-53,l),
(612,-203,l),
(627,-220,l),
(820,-42,l),
(639,125,l),
(612,119,l),
(775,-31,l),
(100,-31,l)
);
},
{
closed = 1;
nodes = (
(100,269,l),
(775,269,l),
(612,119,l),
(639,113,l),
(820,280,l),
(639,447,l),
(612,441,l),
(775,291,l),
(100,291,l)
);
},
{
closed = 1;
nodes = (
(100,591,l),
(775,591,l),
(612,441,l),
(639,435,l),
(820,602,l),
(627,780,l),
(612,763,l),
(775,613,l),
(100,613,l)
);
}
);
width = 920;
},
{
layerId = "D92A4C0B-EB2A-4209-AFE3-2959A8B274DD";
shapes = (
{
closed = 1;
nodes = (
(80,-68,l),
(726,-68,l),
(599,-185,l),
(650,-242,l),
(880,-30,l),
(676,158,l),
(599,125,l),
(726,8,l),
(80,8,l)
);
},
{
closed = 1;
nodes = (
(80,242,l),
(726,242,l),
(599,125,l),
(676,92,l),
(880,280,l),
(676,468,l),
(599,435,l),
(726,318,l),
(80,318,l)
);
},
{
closed = 1;
nodes = (
(80,552,l),
(726,552,l),
(599,435,l),
(676,402,l),
(880,590,l),
(650,802,l),
(599,745,l),
(726,628,l),
(80,628,l)
);
}
);
width = 960;
},
{
layerId = "B26C53A4-97D1-457B-8232-65310EC64496";
shapes = (
{
closed = 1;
nodes = (
(120,-123,l),
(706,-123,l),
(612,-221,l),
(720,-326,l),
(990,-40,l),
(774,189,l),
(632,120,l),
(706,43,l),
(120,43,l)
);
},
{
closed = 1;
nodes = (
(120,197,l),
(706,197,l),
(632,120,l),
(774,51,l),
(990,280,l),
(774,509,l),
(632,440,l),
(706,363,l),
(120,363,l)
);
},
{
closed = 1;
nodes = (
(120,517,l),
(706,517,l),
(632,440,l),
(774,371,l),
(990,600,l),
(720,886,l),
(612,781,l),
(706,683,l),
(120,683,l)
);
}
);
width = 1110;
}
);
note = uni21F6;
subCategory = Arrow;
unicode = 8694;
}
{
color = 4;
glyphname = leftVerticalStrokeArrow;
layers = (
{
layerId = "C73C0C47-E6C6-445A-8A34-E4CE4D1E91FA";
shapes = (
{
closed = 1;
nodes = (
(531,104,l),
(531,456,l),
(509,456,l),
(509,104,l)
);
},
{
ref = leftArrow;
}
);
width = 920;
},
{
layerId = "D83BBA30-9F2C-4CD6-96B7-4A74A7087E78";
shapes = (
{
closed = 1;
nodes = (
(658,88,l),
(658,472,l),
(582,472,l),
(582,88,l)
);
},
{
ref = leftArrow;
}
);
width = 1040;
},
{
layerId = "C41EA034-4E7F-46DC-9CBA-05541AA6484D";
shapes = (
{
closed = 1;
nodes = (
(773,10,l),
(773,550,l),
(607,550,l),
(607,10,l)
);
},
{
ref = leftArrow;
}
);
width = 1110;
}
);
note = uni21F7;
unicode = 8695;
}
{
color = 4;
glyphname = leftRightVerticalStrokeArrow;
layers = (
{
layerId = "C73C0C47-E6C6-445A-8A34-E4CE4D1E91FA";
shapes = (
{
closed = 1;
nodes = (
(511,104,l),
(511,456,l),
(489,456,l),
(489,104,l)
);
},
{
ref = leftRightArrow;
}
);
width = 1000;
},
{
layerId = "D83BBA30-9F2C-4CD6-96B7-4A74A7087E78";
shapes = (
{
closed = 1;
nodes = (
(598,88,l),
(598,472,l),
(522,472,l),
(522,88,l)
);
},
{
ref = leftRightArrow;
}
);
width = 1120;
},
{
layerId = "C41EA034-4E7F-46DC-9CBA-05541AA6484D";
shapes = (
{
closed = 1;
nodes = (
(723,10,l),
(723,550,l),
(557,550,l),
(557,10,l)
);
},
{
ref = leftRightArrow;
}
);
width = 1280;
}
);
note = uni21F9;
unicode = 8697;
}
{
color = 4;
glyphname = leftDoubleVerticalStrokeArrow;
layers = (
{
layerId = "C73C0C47-E6C6-445A-8A34-E4CE4D1E91FA";
shapes = (
{
closed = 1;
nodes = (
(820,269,l),
(820,291,l),
(134,291,l),
(134,269,l)
);
},
{
closed = 1;
nodes = (
(478,104,l),
(478,456,l),
(456,456,l),
(456,104,l)
);
},
{
closed = 1;
nodes = (
(600,104,l),
(600,456,l),
(578,456,l),
(578,104,l)
);
},
{
pos = (100,0);
ref = arrowHead;
}
);
width = 920;
},
{
layerId = "D83BBA30-9F2C-4CD6-96B7-4A74A7087E78";
shapes = (
{
closed = 1;
nodes = (
(920,242,l),
(920,318,l),
(240,318,l),
(240,242,l)
);
},
{
closed = 1;
nodes = (
(578,88,l),
(578,472,l),
(502,472,l),
(502,88,l)
);
},
{
closed = 1;
nodes = (
(724,88,l),
(724,472,l),
(648,472,l),
(648,88,l)
);
},
{
pos = (120,0);
ref = arrowHead;
}
);
width = 1040;
},
{
layerId = "C41EA034-4E7F-46DC-9CBA-05541AA6484D";
shapes = (
{
closed = 1;
nodes = (
(1030,197,l),
(1030,363,l),
(340,363,l),
(340,197,l)
);
},
{
closed = 1;
nodes = (
(704,10,l),
(704,550,l),
(538,550,l),
(538,10,l)
);
},
{
closed = 1;
nodes = (
(910,10,l),
(910,550,l),
(744,550,l),
(744,10,l)
);
},
{
pos = (120,0);
ref = arrowHead;
}
);
width = 1150;
}
);
note = uni21FA;
unicode = 8698;
}
{
color = 4;
glyphname = leftRightDoubleVerticalStrokeArrow;
layers = (
{
layerId = "C73C0C47-E6C6-445A-8A34-E4CE4D1E91FA";
shapes = (
{
closed = 1;
nodes = (
(866,269,l),
(866,291,l),
(134,291,l),
(134,269,l)
);
},
{
closed = 1;
nodes = (
(450,104,l),
(450,456,l),
(428,456,l),
(428,104,l)
);
},
{
closed = 1;
nodes = (
(572,104,l),
(572,456,l),
(550,456,l),
(550,104,l)
);
},
{
pos = (100,0);
ref = arrowHead;
},
{
pos = (900,0);
ref = arrowHead;
scale = (-1,1);
}
);
width = 1000;
},
{
layerId = "D83BBA30-9F2C-4CD6-96B7-4A74A7087E78";
shapes = (
{
closed = 1;
nodes = (
(900,242,l),
(900,318,l),
(240,318,l),
(240,242,l)
);
},
{
closed = 1;
nodes = (
(537,88,l),
(537,472,l),
(461,472,l),
(461,88,l)
);
},
{
closed = 1;
nodes = (
(679,88,l),
(679,472,l),
(603,472,l),
(603,88,l)
);
},
{
pos = (120,0);
ref = arrowHead;
},
{
pos = (1020,0);
ref = arrowHead;
scale = (-1,1);
}
);
width = 1140;
},
{
layerId = "C41EA034-4E7F-46DC-9CBA-05541AA6484D";
shapes = (
{
closed = 1;
nodes = (
(1040,197,l),
(1040,363,l),
(340,363,l),
(340,197,l)
);
},
{
closed = 1;
nodes = (
(674,10,l),
(674,550,l),
(508,550,l),
(508,10,l)
);
},
{
closed = 1;
nodes = (
(872,10,l),
(872,550,l),
(706,550,l),
(706,10,l)
);
},
{
pos = (120,0);
ref = arrowHead;
},
{
pos = (1260,0);
ref = arrowHead;
scale = (-1,1);
}
);
width = 1380;
}
);
note = uni21FC;
unicode = 8700;
}
{
export = 0;
glyphname = leftOpenHeadedArrow;
layers = (
{
layerId = "C73C0C47-E6C6-445A-8A34-E4CE4D1E91FA";
shapes = (
{
closed = 1;
nodes = (
(100,280,l),
(298,92,l),
(298,269,l),
(820,269,l),
(820,291,l),
(298,291,l),
(298,468,l)
);
},
{
closed = 1;
nodes = (
(132,280,l),
(276,417,l),
(276,143,l)
);
}
);
width = 920;
},
{
layerId = "D83BBA30-9F2C-4CD6-96B7-4A74A7087E78";
shapes = (
{
closed = 1;
nodes = (
(120,280,l),
(386,29,l),
(386,242,l),
(920,242,l),
(920,318,l),
(386,318,l),
(386,531,l)
);
},
{
closed = 1;
nodes = (
(214,280,l),
(320,380,l),
(320,180,l)
);
}
);
width = 1040;
},
{
layerId = "C41EA034-4E7F-46DC-9CBA-05541AA6484D";
shapes = (
{
closed = 1;
nodes = (
(120,280,l),
(476,-56,l),
(476,203,l),
(990,203,l),
(990,357,l),
(476,357,l),
(476,616,l)
);
},
{
closed = 1;
nodes = (
(286,280,l),
(368,357,l),
(368,203,l)
);
}
);
width = 1110;
}
);
note = uni21FD;
unicode = 8701;
}
{
export = 0;
glyphname = rightOpenHeadedArrow;
layers = (
{
layerId = "C73C0C47-E6C6-445A-8A34-E4CE4D1E91FA";
shapes = (
{
closed = 1;
nodes = (
(100,269,l),
(622,269,l),
(622,92,l),
(820,280,l),
(622,468,l),
(622,291,l),
(100,291,l)
);
},
{
closed = 1;
nodes = (
(644,143,l),
(644,417,l),
(788,280,l)
);
}
);
width = 920;
},
{
layerId = "D83BBA30-9F2C-4CD6-96B7-4A74A7087E78";
shapes = (
{
closed = 1;
nodes = (
(120,242,l),
(654,242,l),
(654,29,l),
(920,280,l),
(654,531,l),
(654,318,l),
(120,318,l)
);
},
{
closed = 1;
nodes = (
(720,180,l),
(720,380,l),
(826,280,l)
);
}
);
width = 1040;
},
{
layerId = "C41EA034-4E7F-46DC-9CBA-05541AA6484D";
shapes = (
{
closed = 1;
nodes = (
(120,203,l),
(634,203,l),
(634,-56,l),
(990,280,l),
(634,616,l),
(634,357,l),
(120,357,l)
);
},
{
closed = 1;
nodes = (
(742,203,l),
(742,357,l),
(824,280,l)
);
}
);
width = 1110;
}
);
note = uni21FE;
unicode = 8702;
}
{
export = 0;
glyphname = leftRightOpenHeadedArrow;
layers = (
{
layerId = "C73C0C47-E6C6-445A-8A34-E4CE4D1E91FA";
shapes = (
{
closed = 1;
nodes = (
(100,280,l),
(298,92,l),
(298,269,l),
(742,269,l),
(742,92,l),
(940,280,l),
(742,468,l),
(742,291,l),
(298,291,l),
(298,468,l)
);
},
{
closed = 1;
nodes = (
(132,280,l),
(276,417,l),
(276,143,l)
);
},
{
closed = 1;
nodes = (
(764,143,l),
(764,417,l),
(908,280,l)
);
}
);
width = 1040;
},
{
layerId = "D83BBA30-9F2C-4CD6-96B7-4A74A7087E78";
shapes = (
{
closed = 1;
nodes = (
(120,280,l),
(386,29,l),
(386,242,l),
(774,242,l),
(774,29,l),
(1040,280,l),
(774,531,l),
(774,318,l),
(386,318,l),
(386,531,l)
);
},
{
closed = 1;
nodes = (
(214,280,l),
(320,380,l),
(320,180,l)
);
},
{
closed = 1;
nodes = (
(840,180,l),
(840,380,l),
(946,280,l)
);
}
);
width = 1160;
},
{
layerId = "C41EA034-4E7F-46DC-9CBA-05541AA6484D";
shapes = (
{
closed = 1;
nodes = (
(120,280,l),
(476,-56,l),
(476,203,l),
(814,203,l),
(814,-56,l),
(1170,280,l),
(814,616,l),
(814,357,l),
(476,357,l),
(476,616,l)
);
},
{
closed = 1;
nodes = (
(286,280,l),
(368,357,l),
(368,203,l)
);
},
{
closed = 1;
nodes = (
(922,203,l),
(922,357,l),
(1004,280,l)
);
}
);
width = 1290;
}
);
note = uni21FF;
unicode = 8703;
}
{
export = 0;
glyphname = upQuadrupleArrow;
layers = (
{
layerId = "C73C0C47-E6C6-445A-8A34-E4CE4D1E91FA";
shapes = (
{
closed = 1;
nodes = (
(100,437,l),
(114,419,l),
(173,465,l),
(173,-80,l),
(195,-80,l),
(195,482,l),
(291,557,l),
(291,-80,l),
(313,-80,l),
(313,574,l),
(361,611,l),
(409,574,l),
(409,-80,l),
(431,-80,l),
(431,557,l),
(527,482,l),
(527,-80,l),
(549,-80,l),
(549,465,l),
(608,419,l),
(622,437,l),
(361,640,l)
);
}
);
width = 722;
},
{
layerId = "D83BBA30-9F2C-4CD6-96B7-4A74A7087E78";
shapes = (
{
closed = 1;
nodes = (
(120,411,l),
(167,352,l),
(199,377,l),
(199,-120,l),
(275,-120,l),
(275,435,l),
(355,496,l),
(355,-120,l),
(431,-120,l),
(431,554,l),
(471,585,l),
(511,554,l),
(511,-120,l),
(587,-120,l),
(587,496,l),
(667,435,l),
(667,-120,l),
(743,-120,l),
(743,377,l),
(775,352,l),
(822,411,l),
(471,680,l)
);
}
);
width = 942;
},
{
layerId = "C41EA034-4E7F-46DC-9CBA-05541AA6484D";
shapes = (
{
closed = 1;
nodes = (
(120,415,l),
(199,287,l),
(234,308,l),
(234,-155,l),
(386,-155,l),
(386,402,l),
(430,429,l),
(430,-155,l),
(582,-155,l),
(582,522,l),
(608,538,l),
(626,527,l),
(626,-155,l),
(778,-155,l),
(778,434,l),
(822,407,l),
(822,-155,l),
(974,-155,l),
(974,313,l),
(1017,287,l),
(1096,415,l),
(608,715,l)
);
}
);
width = 1216;
}
);
note = uni27F0;
unicode = 10224;
}
{
color = 8;
export = 0;
glyphname = downQuadrupleArrow;
layers = (
{
layerId = "D42A05F0-DBDC-4569-915A-03C7188507B6";
width = 722;
},
{
layerId = "B2FE45D6-EF48-417F-ACCD-B60D15D1CAF3";
shapes = (
{
closed = 1;
nodes = (
(100,123,l),
(361,-80,l),
(622,123,l),
(608,141,l),
(549,95,l),
(549,640,l),
(527,640,l),
(527,78,l),
(431,3,l),
(431,640,l),
(409,640,l),
(409,-14,l),
(361,-51,l),
(313,-14,l),
(313,640,l),
(291,640,l),
(291,3,l),
(195,78,l),
(195,640,l),
(173,640,l),
(173,95,l),
(114,141,l)
);
}
);
width = 722;
},
{
layerId = "D92A4C0B-EB2A-4209-AFE3-2959A8B274DD";
shapes = (
{
closed = 1;
nodes = (
(80,149,l),
(431,-120,l),
(782,149,l),
(735,208,l),
(703,183,l),
(703,680,l),
(627,680,l),
(627,125,l),
(547,64,l),
(547,680,l),
(471,680,l),
(471,6,l),
(431,-25,l),
(391,6,l),
(391,680,l),
(315,680,l),
(315,64,l),
(235,125,l),
(235,680,l),
(159,680,l),
(159,183,l),
(127,208,l)
);
}
);
width = 862;
},
{
layerId = "B26C53A4-97D1-457B-8232-65310EC64496";
shapes = (
{
closed = 1;
nodes = (
(120,145,l),
(608,-155,l),
(1096,145,l),
(1017,273,l),
(974,247,l),
(974,715,l),
(822,715,l),
(822,153,l),
(778,126,l),
(778,715,l),
(626,715,l),
(626,33,l),
(608,22,l),
(582,38,l),
(582,715,l),
(430,715,l),
(430,131,l),
(386,158,l),
(386,715,l),
(234,715,l),
(234,252,l),
(199,273,l)
);
}
);
width = 1216;
}
);
note = uni27F1;
subCategory = Arrow;
unicode = 10225;
}
{
color = 8;
export = 0;
glyphname = anticlockwiseGappedCircleArrow;
layers = (
{
layerId = "D42A05F0-DBDC-4569-915A-03C7188507B6";
width = 800;
},
{
layerId = "B2FE45D6-EF48-417F-ACCD-B60D15D1CAF3";
shapes = (
{
closed = 1;
nodes = (
(67,596,l),
(138,360,l),
(367,450,l),
(358,471,l),
(167,396,l),
(203,507,o),
(310,591,o),
(433,591,cs),
(586,591,o),
(711,466,o),
(711,313,cs),
(711,160,o),
(586,35,o),
(433,35,cs),
(310,35,o),
(205,116,o),
(169,227,c),
(147,220,l),
(186,99,o),
(299,13,o),
(433,13,cs),
(599,13,o),
(733,147,o),
(733,313,cs),
(733,479,o),
(599,613,o),
(433,613,cs),
(299,613,o),
(186,527,o),
(147,406,c),
(89,602,l)
);
}
);
width = 800;
},
{
layerId = "D92A4C0B-EB2A-4209-AFE3-2959A8B274DD";
shapes = (
{
closed = 1;
nodes = (
(80,612,l),
(136,314,l),
(430,394,l),
(408,468,l),
(250,424,l),
(291,501,o),
(374,558,o),
(468,558,cs),
(603,558,o),
(712,449,o),
(712,314,cs),
(712,179,o),
(603,70,o),
(468,70,cs),
(371,70,o),
(290,127,o),
(250,208,c),
(180,174,l),
(232,68,o),
(341,-6,o),
(468,-6,cs),
(645,-6,o),
(788,137,o),
(788,314,cs),
(788,491,o),
(645,634,o),
(468,634,cs),
(345,634,o),
(240,565,o),
(186,464,c),
(156,626,l)
);
}
);
width = 868;
},
{
layerId = "B26C53A4-97D1-457B-8232-65310EC64496";
shapes = (
{
closed = 1;
nodes = (
(120,652,l),
(176,286,l),
(544,322,l),
(530,448,l),
(396,434,l),
(432,479,o),
(486,508,o),
(548,508,cs),
(655,508,o),
(742,421,o),
(742,314,cs),
(742,207,o),
(655,120,o),
(548,120,cs),
(482,120,o),
(425,154,o),
(390,204,c),
(254,108,l),
(319,15,o),
(426,-46,o),
(548,-46,cs),
(747,-46,o),
(908,115,o),
(908,314,cs),
(908,513,o),
(747,674,o),
(548,674,cs),
(433,674,o),
(330,620,o),
(264,536,c),
(246,670,l)
);
}
);
width = 1028;
}
);
note = uni27F2;
subCategory = Arrow;
unicode = 10226;
}
{
export = 0;
glyphname = clockwiseGappedCircleArrow;
layers = (
{
layerId = "C73C0C47-E6C6-445A-8A34-E4CE4D1E91FA";
shapes = (
{
closed = 1;
nodes = (
(67,147,o),
(201,13,o),
(367,13,cs),
(501,13,o),
(614,99,o),
(653,220,c),
(631,227,l),
(595,116,o),
(490,35,o),
(367,35,cs),
(214,35,o),
(89,160,o),
(89,313,cs),
(89,466,o),
(214,591,o),
(367,591,cs),
(490,591,o),
(597,507,o),
(633,396,c),
(442,471,l),
(433,450,l),
(662,360,l),
(733,596,l),
(711,602,l),
(653,406,l),
(614,527,o),
(501,613,o),
(367,613,cs),
(201,613,o),
(67,479,o),
(67,313,cs)
);
}
);
width = 800;
},
{
layerId = "D83BBA30-9F2C-4CD6-96B7-4A74A7087E78";
shapes = (
{
closed = 1;
nodes = (
(120,137,o),
(263,-6,o),
(440,-6,cs),
(567,-6,o),
(676,68,o),
(728,174,c),
(658,208,l),
(618,127,o),
(537,70,o),
(440,70,cs),
(305,70,o),
(196,179,o),
(196,314,cs),
(196,449,o),
(305,558,o),
(440,558,cs),
(534,558,o),
(617,501,o),
(658,424,c),
(500,468,l),
(478,394,l),
(772,314,l),
(828,612,l),
(752,626,l),
(722,464,l),
(668,565,o),
(563,634,o),
(440,634,cs),
(263,634,o),
(120,491,o),
(120,314,cs)
);
}
);
width = 948;
},
{
layerId = "C41EA034-4E7F-46DC-9CBA-05541AA6484D";
shapes = (
{
closed = 1;
nodes = (
(120,115,o),
(281,-46,o),
(480,-46,cs),
(602,-46,o),
(709,15,o),
(774,108,c),
(638,204,l),
(603,154,o),
(546,120,o),
(480,120,cs),
(373,120,o),
(286,207,o),
(286,314,cs),
(286,421,o),
(373,508,o),
(480,508,cs),
(542,508,o),
(596,479,o),
(632,434,c),
(498,448,l),
(484,322,l),
(852,286,l),
(908,652,l),
(782,670,l),
(764,536,l),
(698,620,o),
(595,674,o),
(480,674,cs),
(281,674,o),
(120,513,o),
(120,314,cs)
);
}
);
width = 1028;
}
);
note = uni27F3;
unicode = 10227;
}
{
color = 8;
export = 0;
glyphname = rightCircledPlusArrow;
layers = (
{
layerId = "D42A05F0-DBDC-4569-915A-03C7188507B6";
width = 920;
},
{
layerId = "B2FE45D6-EF48-417F-ACCD-B60D15D1CAF3";
shapes = (
{
closed = 1;
nodes = (
(100,269,l),
(216,269,l),
(216,269,l),
(552,269,l),
(552,269,l),
(775,269,l),
(612,119,l),
(627,102,l),
(820,280,l),
(627,458,l),
(612,441,l),
(775,291,l),
(552,291,l),
(552,291,l),
(216,291,l),
(216,291,l),
(100,291,l)
);
},
{
closed = 1;
nodes = (
(202,180,o),
(284,98,o),
(384,98,cs),
(484,98,o),
(566,180,o),
(566,280,cs),
(566,380,o),
(484,462,o),
(384,462,cs),
(284,462,o),
(202,380,o),
(202,280,cs)
);
},
{
closed = 1;
nodes = (
(224,368,o),
(296,440,o),
(384,440,cs),
(472,440,o),
(544,368,o),
(544,280,cs),
(544,192,o),
(472,120,o),
(384,120,cs),
(296,120,o),
(224,192,o),
(224,280,cs)
);
},
{
closed = 1;
nodes = (
(373,110,l),
(395,110,l),
(395,450,l),
(373,450,l)
);
}
);
width = 920;
},
{
layerId = "D92A4C0B-EB2A-4209-AFE3-2959A8B274DD";
shapes = (
{
closed = 1;
nodes = (
(80,242,l),
(220,242,l),
(220,246,l),
(540,246,l),
(540,242,l),
(726,242,l),
(599,125,l),
(650,68,l),
(880,280,l),
(650,492,l),
(599,435,l),
(726,318,l),
(540,318,l),
(540,314,l),
(220,314,l),
(220,318,l),
(80,318,l)
);
},
{
closed = 1;
nodes = (
(188,174,o),
(274,88,o),
(380,88,cs),
(486,88,o),
(572,174,o),
(572,280,cs),
(572,386,o),
(486,472,o),
(380,472,cs),
(274,472,o),
(188,386,o),
(188,280,cs)
);
},
{
closed = 1;
nodes = (
(252,351,o),
(309,408,o),
(380,408,cs),
(451,408,o),
(508,351,o),
(508,280,cs),
(508,209,o),
(451,152,o),
(380,152,cs),
(309,152,o),
(252,209,o),
(252,280,cs)
);
},
{
closed = 1;
nodes = (
(346,120,l),
(414,120,l),
(414,440,l),
(346,440,l)
);
}
);
width = 960;
},
{
layerId = "B26C53A4-97D1-457B-8232-65310EC64496";
shapes = (
{
closed = 1;
nodes = (
(120,197,l),
(268,197,l),
(268,220,l),
(628,220,l),
(628,197,l),
(786,197,l),
(692,99,l),
(800,-6,l),
(1070,280,l),
(800,566,l),
(692,461,l),
(786,363,l),
(628,363,l),
(628,340,l),
(268,340,l),
(268,363,l),
(120,363,l)
);
},
{
closed = 1;
nodes = (
(168,125,o),
(293,0,o),
(448,0,cs),
(603,0,o),
(728,125,o),
(728,280,cs),
(728,435,o),
(603,560,o),
(448,560,cs),
(293,560,o),
(168,435,o),
(168,280,cs)
);
},
{
closed = 1;
nodes = (
(292,366,o),
(362,436,o),
(448,436,cs),
(534,436,o),
(604,366,o),
(604,280,cs),
(604,194,o),
(534,124,o),
(448,124,cs),
(362,124,o),
(292,194,o),
(292,280,cs)
);
},
{
closed = 1;
nodes = (
(388,88,l),
(508,88,l),
(508,472,l),
(388,472,l)
);
}
);
width = 1190;
}
);
note = uni27F4;
subCategory = Arrow;
unicode = 10228;
}
{
color = 4;
glyphname = leftLongArrow;
layers = (
{
layerId = "C73C0C47-E6C6-445A-8A34-E4CE4D1E91FA";
shapes = (
{
closed = 1;
nodes = (
(1460,269,l),
(1460,291,l),
(134,291,l),
(134,269,l)
);
},
{
pos = (100,0);
ref = arrowHead;
}
);
width = 1560;
},
{
layerId = "D83BBA30-9F2C-4CD6-96B7-4A74A7087E78";
shapes = (
{
closed = 1;
nodes = (
(1560,242,l),
(1560,318,l),
(240,318,l),
(240,242,l)
);
},
{
pos = (120,0);
ref = arrowHead;
}
);
width = 1680;
},
{
layerId = "C41EA034-4E7F-46DC-9CBA-05541AA6484D";
shapes = (
{
closed = 1;
nodes = (
(1670,197,l),
(1670,363,l),
(340,363,l),
(340,197,l)
);
},
{
pos = (120,0);
ref = arrowHead;
}
);
width = 1790;
}
);
note = uni27F5;
unicode = 10229;
}
{
color = 4;
glyphname = leftRightLongArrow;
layers = (
{
layerId = "C73C0C47-E6C6-445A-8A34-E4CE4D1E91FA";
shapes = (
{
closed = 1;
nodes = (
(1506,269,l),
(1506,291,l),
(134,291,l),
(134,269,l)
);
},
{
pos = (100,0);
ref = arrowHead;
},
{
pos = (1540,0);
ref = arrowHead;
scale = (-1,1);
}
);
width = 1640;
},
{
layerId = "D83BBA30-9F2C-4CD6-96B7-4A74A7087E78";
shapes = (
{
closed = 1;
nodes = (
(1520,242,l),
(1520,318,l),
(240,318,l),
(240,242,l)
);
},
{
pos = (120,0);
ref = arrowHead;
},
{
pos = (1640,0);
ref = arrowHead;
scale = (-1,1);
}
);
width = 1760;
},
{
layerId = "C41EA034-4E7F-46DC-9CBA-05541AA6484D";
shapes = (
{
closed = 1;
nodes = (
(1590,197,l),
(1590,363,l),
(340,363,l),
(340,197,l)
);
},
{
pos = (120,0);
ref = arrowHead;
},
{
pos = (1810,0);
ref = arrowHead;
scale = (-1,1);
}
);
width = 1930;
}
);
note = uni27F7;
unicode = 10231;
}
{
export = 0;
glyphname = leftLongDoubleArrow;
layers = (
{
layerId = "C73C0C47-E6C6-445A-8A34-E4CE4D1E91FA";
shapes = (
{
closed = 1;
nodes = (
(100,280,l),
(318,79,l),
(333,96,l),
(231,190,l),
(1460,190,l),
(1460,212,l),
(207,212,l),
(133,280,l),
(207,348,l),
(1460,348,l),
(1460,370,l),
(231,370,l),
(333,464,l),
(318,481,l)
);
}
);
width = 1560;
},
{
layerId = "D83BBA30-9F2C-4CD6-96B7-4A74A7087E78";
shapes = (
{
closed = 1;
nodes = (
(120,280,l),
(400,12,l),
(452,68,l),
(370,146,l),
(1560,146,l),
(1560,222,l),
(290,222,l),
(228,280,l),
(290,338,l),
(1560,338,l),
(1560,414,l),
(370,414,l),
(452,492,l),
(400,548,l)
);
}
);
width = 1680;
},
{
layerId = "C41EA034-4E7F-46DC-9CBA-05541AA6484D";
shapes = (
{
closed = 1;
nodes = (
(120,280,l),
(408,-64,l),
(522,32,l),
(479,84,l),
(1630,84,l),
(1630,250,l),
(340,250,l),
(315,280,l),
(340,310,l),
(1630,310,l),
(1630,476,l),
(479,476,l),
(522,528,l),
(408,624,l)
);
}
);
width = 1750;
}
);
note = uni27F8;
unicode = 10232;
}
{
export = 0;
glyphname = rightLongDoubleArrow;
layers = (
{
layerId = "C73C0C47-E6C6-445A-8A34-E4CE4D1E91FA";
shapes = (
{
closed = 1;
nodes = (
(100,190,l),
(1329,190,l),
(1227,96,l),
(1242,79,l),
(1460,280,l),
(1242,481,l),
(1227,464,l),
(1329,370,l),
(100,370,l),
(100,348,l),
(1353,348,l),
(1427,280,l),
(1353,212,l),
(100,212,l)
);
}
);
width = 1560;
},
{
layerId = "D83BBA30-9F2C-4CD6-96B7-4A74A7087E78";
shapes = (
{
closed = 1;
nodes = (
(120,146,l),
(1310,146,l),
(1228,68,l),
(1280,12,l),
(1560,280,l),
(1280,548,l),
(1228,492,l),
(1310,414,l),
(120,414,l),
(120,338,l),
(1390,338,l),
(1452,280,l),
(1390,222,l),
(120,222,l)
);
}
);
width = 1680;
},
{
layerId = "C41EA034-4E7F-46DC-9CBA-05541AA6484D";
shapes = (
{
closed = 1;
nodes = (
(120,84,l),
(1271,84,l),
(1228,32,l),
(1342,-64,l),
(1630,280,l),
(1342,624,l),
(1228,528,l),
(1271,476,l),
(120,476,l),
(120,310,l),
(1410,310,l),
(1435,280,l),
(1410,250,l),
(120,250,l)
);
}
);
width = 1750;
}
);
note = uni27F9;
unicode = 10233;
}
{
export = 0;
glyphname = leftRightLongDoubleArrow;
layers = (
{
layerId = "C73C0C47-E6C6-445A-8A34-E4CE4D1E91FA";
shapes = (
{
closed = 1;
nodes = (
(100,280,l),
(318,79,l),
(333,96,l),
(231,190,l),
(1409,190,l),
(1307,96,l),
(1322,79,l),
(1540,280,l),
(1322,481,l),
(1307,464,l),
(1409,370,l),
(231,370,l),
(333,464,l),
(318,481,l)
);
},
{
closed = 1;
nodes = (
(133,280,l),
(207,348,l),
(1433,348,l),
(1507,280,l),
(1433,212,l),
(207,212,l)
);
}
);
width = 1640;
},
{
layerId = "D83BBA30-9F2C-4CD6-96B7-4A74A7087E78";
shapes = (
{
closed = 1;
nodes = (
(120,280,l),
(400,12,l),
(452,68,l),
(370,146,l),
(1390,146,l),
(1308,68,l),
(1360,12,l),
(1640,280,l),
(1360,548,l),
(1308,492,l),
(1390,414,l),
(370,414,l),
(452,492,l),
(400,548,l)
);
},
{
closed = 1;
nodes = (
(228,280,l),
(290,338,l),
(1470,338,l),
(1532,280,l),
(1470,222,l),
(290,222,l)
);
}
);
width = 1760;
},
{
layerId = "C41EA034-4E7F-46DC-9CBA-05541AA6484D";
shapes = (
{
closed = 1;
nodes = (
(120,280,l),
(408,-64,l),
(522,32,l),
(479,84,l),
(1451,84,l),
(1408,32,l),
(1522,-64,l),
(1810,280,l),
(1522,624,l),
(1408,528,l),
(1451,476,l),
(479,476,l),
(522,528,l),
(408,624,l)
);
},
{
closed = 1;
nodes = (
(315,280,l),
(340,310,l),
(1590,310,l),
(1615,280,l),
(1590,250,l),
(340,250,l)
);
}
);
width = 1930;
}
);
note = uni27FA;
unicode = 10234;
}
{
color = 4;
glyphname = leftLongFromBarArrow;
layers = (
{
layerId = "C73C0C47-E6C6-445A-8A34-E4CE4D1E91FA";
shapes = (
{
closed = 1;
nodes = (
(1460,104,l),
(1460,456,l),
(1438,456,l),
(1438,104,l)
);
},
{
ref = leftLongArrow;
}
);
width = 1560;
},
{
layerId = "D83BBA30-9F2C-4CD6-96B7-4A74A7087E78";
shapes = (
{
closed = 1;
nodes = (
(1560,88,l),
(1560,472,l),
(1484,472,l),
(1484,88,l)
);
},
{
ref = leftLongArrow;
}
);
width = 1680;
},
{
layerId = "C41EA034-4E7F-46DC-9CBA-05541AA6484D";
shapes = (
{
closed = 1;
nodes = (
(1670,10,l),
(1670,550,l),
(1504,550,l),
(1504,10,l)
);
},
{
ref = leftLongArrow;
}
);
width = 1790;
}
);
note = uni27FB;
unicode = 10235;
}
{
export = 0;
glyphname = leftLongDoubleFromBarArrow;
layers = (
{
layerId = "C73C0C47-E6C6-445A-8A34-E4CE4D1E91FA";
shapes = (
{
closed = 1;
nodes = (
(100,280,l),
(318,79,l),
(333,96,l),
(231,190,l),
(1438,190,l),
(1438,82,l),
(1460,82,l),
(1460,478,l),
(1438,478,l),
(1438,370,l),
(231,370,l),
(333,464,l),
(318,481,l)
);
},
{
closed = 1;
nodes = (
(133,280,l),
(207,348,l),
(1438,348,l),
(1438,212,l),
(207,212,l)
);
}
);
width = 1560;
},
{
layerId = "D83BBA30-9F2C-4CD6-96B7-4A74A7087E78";
shapes = (
{
closed = 1;
nodes = (
(120,280,l),
(400,12,l),
(452,68,l),
(370,146,l),
(1480,146,l),
(1480,32,l),
(1560,32,l),
(1560,528,l),
(1480,528,l),
(1480,414,l),
(370,414,l),
(452,492,l),
(400,548,l)
);
},
{
closed = 1;
nodes = (
(228,280,l),
(290,338,l),
(1480,338,l),
(1480,222,l),
(290,222,l)
);
}
);
width = 1680;
},
{
layerId = "C41EA034-4E7F-46DC-9CBA-05541AA6484D";
shapes = (
{
closed = 1;
nodes = (
(120,280,l),
(408,-64,l),
(522,32,l),
(479,84,l),
(1464,84,l),
(1464,-40,l),
(1630,-40,l),
(1630,600,l),
(1464,600,l),
(1464,476,l),
(479,476,l),
(522,528,l),
(408,624,l)
);
},
{
closed = 1;
nodes = (
(315,280,l),
(340,310,l),
(1464,310,l),
(1464,250,l),
(340,250,l)
);
}
);
width = 1750;
}
);
note = uni27FD;
unicode = 10237;
}
{
export = 0;
glyphname = leftDoubleArrowWithVerticalStroke;
layers = (
{
layerId = "C73C0C47-E6C6-445A-8A34-E4CE4D1E91FA";
shapes = (
{
closed = 1;
nodes = (
(318,79,l),
(100,280,l),
(318,481,l),
(333,464,l),
(231,370,l),
(512,370,l),
(512,478,l),
(534,478,l),
(534,370,l),
(820,370,l),
(820,348,l),
(534,348,l),
(534,212,l),
(820,212,l),
(820,190,l),
(534,190,l),
(534,82,l),
(512,82,l),
(512,190,l),
(231,190,l),
(333,96,l)
);
},
{
closed = 1;
nodes = (
(512,212,l),
(512,348,l),
(207,348,l),
(133,280,l),
(207,212,l)
);
}
);
width = 920;
},
{
layerId = "D83BBA30-9F2C-4CD6-96B7-4A74A7087E78";
shapes = (
{
closed = 1;
nodes = (
(920,144,l),
(680,144,l),
(680,32,l),
(600,32,l),
(600,144,l),
(370,144,l),
(452,68,l),
(400,12,l),
(120,280,l),
(400,548,l),
(452,492,l),
(370,416,l),
(600,416,l),
(600,528,l),
(680,528,l),
(680,416,l),
(920,416,l),
(920,338,l),
(680,338,l),
(680,222,l),
(920,222,l)
);
},
{
closed = 1;
nodes = (
(600,338,l),
(290,338,l),
(228,280,l),
(290,222,l),
(600,222,l)
);
}
);
width = 1040;
},
{
layerId = "C41EA034-4E7F-46DC-9CBA-05541AA6484D";
width = 600;
}
);
note = uni2902;
unicode = 10498;
}
{
export = 0;
glyphname = rightDoubleArrowWithVerticalStroke;
layers = (
{
layerId = "C73C0C47-E6C6-445A-8A34-E4CE4D1E91FA";
shapes = (
{
closed = 1;
nodes = (
(602,79,l),
(820,280,l),
(602,481,l),
(587,464,l),
(689,370,l),
(408,370,l),
(408,478,l),
(386,478,l),
(386,370,l),
(100,370,l),
(100,348,l),
(386,348,l),
(386,212,l),
(100,212,l),
(100,190,l),
(386,190,l),
(386,82,l),
(408,82,l),
(408,190,l),
(689,190,l),
(587,96,l)
);
},
{
closed = 1;
nodes = (
(408,348,l),
(713,348,l),
(787,280,l),
(713,212,l),
(408,212,l)
);
}
);
width = 920;
},
{
layerId = "D83BBA30-9F2C-4CD6-96B7-4A74A7087E78";
shapes = (
{
closed = 1;
nodes = (
(120,144,l),
(360,144,l),
(360,32,l),
(440,32,l),
(440,144,l),
(670,144,l),
(588,68,l),
(640,12,l),
(920,280,l),
(640,548,l),
(588,492,l),
(670,416,l),
(440,416,l),
(440,528,l),
(360,528,l),
(360,416,l),
(120,416,l),
(120,338,l),
(360,338,l),
(360,222,l),
(120,222,l)
);
},
{
closed = 1;
nodes = (
(440,338,l),
(750,338,l),
(812,280,l),
(750,222,l),
(440,222,l)
);
}
);
width = 1040;
},
{
layerId = "C41EA034-4E7F-46DC-9CBA-05541AA6484D";
width = 600;
}
);
note = uni2903;
unicode = 10499;
}
{
export = 0;
glyphname = leftRightDoubleArrowWithVerticalStroke;
layers = (
{
layerId = "C73C0C47-E6C6-445A-8A34-E4CE4D1E91FA";
shapes = (
{
closed = 1;
nodes = (
(207,348,l),
(489,348,l),
(489,212,l),
(207,212,l),
(133,280,l)
);
},
{
closed = 1;
nodes = (
(231,190,l),
(489,190,l),
(489,82,l),
(511,82,l),
(511,190,l),
(769,190,l),
(667,96,l),
(682,79,l),
(900,280,l),
(682,481,l),
(667,464,l),
(769,370,l),
(511,370,l),
(511,478,l),
(489,478,l),
(489,370,l),
(231,370,l),
(333,464,l),
(318,481,l),
(100,280,l),
(318,79,l),
(333,96,l)
);
},
{
closed = 1;
nodes = (
(511,212,l),
(511,348,l),
(793,348,l),
(867,280,l),
(793,212,l)
);
}
);
width = 1000;
},
{
layerId = "D83BBA30-9F2C-4CD6-96B7-4A74A7087E78";
shapes = (
{
closed = 1;
nodes = (
(290,222,l),
(560,222,l),
(560,338,l),
(290,338,l),
(228,280,l)
);
},
{
closed = 1;
nodes = (
(640,222,l),
(910,222,l),
(972,280,l),
(910,338,l),
(640,338,l)
);
},
{
closed = 1;
nodes = (
(640,144,l),
(640,32,l),
(560,32,l),
(560,144,l),
(370,144,l),
(452,68,l),
(400,12,l),
(120,280,l),
(400,548,l),
(452,492,l),
(370,416,l),
(560,416,l),
(560,528,l),
(640,528,l),
(640,416,l),
(830,416,l),
(748,492,l),
(800,548,l),
(1080,280,l),
(800,12,l),
(748,68,l),
(830,144,l)
);
}
);
width = 1200;
},
{
layerId = "C41EA034-4E7F-46DC-9CBA-05541AA6484D";
width = 600;
}
);
note = uni2904;
unicode = 10500;
}
{
glyphname = leftDoubleArrowFromBar;
layers = (
{
layerId = "D42A05F0-DBDC-4569-915A-03C7188507B6";
shapes = (
{
closed = 1;
nodes = (
(800,106,l),
(800,454,l),
(798,454,l),
(798,106,l)
);
},
{
ref = leftDoubleArrow;
}
);
width = 900;
},
{
layerId = "B2FE45D6-EF48-417F-ACCD-B60D15D1CAF3";
shapes = (
{
closed = 1;
nodes = (
(820,79,l),
(820,481,l),
(798,481,l),
(798,79,l)
);
},
{
ref = leftDoubleArrow;
}
);
width = 920;
},
{
background = {
shapes = (
{
closed = 1;
nodes = (
(800,222,l),
(800,338,l),
(250,338,l),
(188,280,l),
(250,222,l)
);
},
{
closed = 1;
nodes = (
(880,528,l),
(880,32,l),
(800,32,l),
(800,144,l),
(330,144,l),
(412,68,l),
(360,12,l),
(80,280,l),
(360,548,l),
(412,492,l),
(330,416,l),
(800,416,l),
(800,528,l)
);
}
);
};
layerId = "D92A4C0B-EB2A-4209-AFE3-2959A8B274DD";
shapes = (
{
closed = 1;
nodes = (
(920,30,l),
(920,530,l),
(844,530,l),
(844,30,l)
);
},
{
ref = leftDoubleArrow;
}
);
width = 1000;
},
{
layerId = "B26C53A4-97D1-457B-8232-65310EC64496";
shapes = (
{
closed = 1;
nodes = (
(1050,-40,l),
(1050,600,l),
(884,600,l),
(884,-40,l)
);
},
{
ref = leftDoubleArrow;
}
);
width = 1170;
}
);
metricLeft = leftDoubleArrow;
metricRight = leftFrombarArrow;
note = uni2906;
subCategory = Arrow;
unicode = 10502;
}
{
export = 0;
glyphname = rightDoubleArrowFromBar;
layers = (
{
layerId = "C73C0C47-E6C6-445A-8A34-E4CE4D1E91FA";
shapes = (
{
closed = 1;
nodes = (
(602,79,l),
(820,280,l),
(602,481,l),
(587,464,l),
(689,370,l),
(122,370,l),
(122,478,l),
(100,478,l),
(100,82,l),
(122,82,l),
(122,190,l),
(689,190,l),
(587,96,l)
);
},
{
closed = 1;
nodes = (
(122,212,l),
(122,348,l),
(713,348,l),
(787,280,l),
(713,212,l)
);
}
);
width = 920;
},
{
layerId = "D83BBA30-9F2C-4CD6-96B7-4A74A7087E78";
shapes = (
{
closed = 1;
nodes = (
(200,222,l),
(200,338,l),
(750,338,l),
(812,280,l),
(750,222,l)
);
},
{
closed = 1;
nodes = (
(120,528,l),
(120,32,l),
(200,32,l),
(200,144,l),
(670,144,l),
(588,68,l),
(640,12,l),
(920,280,l),
(640,548,l),
(588,492,l),
(670,416,l),
(200,416,l),
(200,528,l)
);
}
);
width = 1040;
},
{
layerId = "C41EA034-4E7F-46DC-9CBA-05541AA6484D";
width = 600;
}
);
note = uni2907;
unicode = 10503;
}
{
color = 8;
export = 0;
glyphname = upTripleArrow;
layers = (
{
layerId = "D42A05F0-DBDC-4569-915A-03C7188507B6";
width = 722;
},
{
layerId = "B2FE45D6-EF48-417F-ACCD-B60D15D1CAF3";
shapes = (
{
closed = 1;
nodes = (
(100,417,l),
(115,401,l),
(211,483,l),
(211,-80,l),
(233,-80,l),
(233,502,l),
(350,602,l),
(350,-80,l),
(372,-80,l),
(372,602,l),
(489,502,l),
(489,-80,l),
(511,-80,l),
(511,483,l),
(607,401,l),
(622,417,l),
(361,640,l)
);
}
);
width = 722;
},
{
layerId = "D92A4C0B-EB2A-4209-AFE3-2959A8B274DD";
shapes = (
{
closed = 1;
nodes = (
(80,385,l),
(131,329,l),
(199,389,l),
(199,-120,l),
(275,-120,l),
(275,456,l),
(375,545,l),
(375,-120,l),
(451,-120,l),
(451,545,l),
(551,456,l),
(551,-120,l),
(627,-120,l),
(627,389,l),
(695,329,l),
(746,385,l),
(413,680,l)
);
}
);
width = 826;
},
{
layerId = "B26C53A4-97D1-457B-8232-65310EC64496";
shapes = (
{
closed = 1;
nodes = (
(120,408,l),
(207,286,l),
(264,325,l),
(264,-155,l),
(430,-155,l),
(430,437,l),
(490,478,l),
(490,-155,l),
(656,-155,l),
(656,478,l),
(716,437,l),
(716,-155,l),
(882,-155,l),
(882,325,l),
(939,286,l),
(1026,408,l),
(573,715,l)
);
}
);
width = 1146;
}
);
note = uni290A;
subCategory = Arrow;
unicode = 10506;
}
{
color = 8;
export = 0;
glyphname = downTripleArrow;
layers = (
{
layerId = "D42A05F0-DBDC-4569-915A-03C7188507B6";
width = 722;
},
{
layerId = "B2FE45D6-EF48-417F-ACCD-B60D15D1CAF3";
shapes = (
{
closed = 1;
nodes = (
(100,143,l),
(361,-80,l),
(622,143,l),
(607,159,l),
(511,77,l),
(511,640,l),
(489,640,l),
(489,58,l),
(372,-42,l),
(372,640,l),
(350,640,l),
(350,-42,l),
(233,58,l),
(233,640,l),
(211,640,l),
(211,77,l),
(115,159,l)
);
}
);
width = 722;
},
{
layerId = "D92A4C0B-EB2A-4209-AFE3-2959A8B274DD";
shapes = (
{
closed = 1;
nodes = (
(80,175,l),
(413,-120,l),
(746,175,l),
(695,231,l),
(627,171,l),
(627,680,l),
(551,680,l),
(551,104,l),
(451,15,l),
(451,680,l),
(375,680,l),
(375,15,l),
(275,104,l),
(275,680,l),
(199,680,l),
(199,171,l),
(131,231,l)
);
}
);
width = 826;
},
{
layerId = "B26C53A4-97D1-457B-8232-65310EC64496";
shapes = (
{
closed = 1;
nodes = (
(120,152,l),
(573,-155,l),
(1026,152,l),
(939,274,l),
(882,235,l),
(882,715,l),
(716,715,l),
(716,123,l),
(656,82,l),
(656,715,l),
(490,715,l),
(490,82,l),
(430,123,l),
(430,715,l),
(264,715,l),
(264,235,l),
(207,274,l)
);
}
);
width = 1146;
}
);
note = uni290B;
subCategory = Arrow;
unicode = 10507;
}
{
export = 0;
glyphname = upArrowToBar;
layers = (
{
layerId = "C73C0C47-E6C6-445A-8A34-E4CE4D1E91FA";
shapes = (
{
closed = 1;
nodes = (
(636,640,l),
(284,640,l),
(284,618,l),
(636,618,l)
);
},
{
closed = 1;
nodes = (
(460,622,l),
(282,429,l),
(299,414,l),
(449,577,l),
(449,-80,l),
(471,-80,l),
(471,577,l),
(621,414,l),
(638,429,l)
);
}
);
width = 960;
},
{
layerId = "D83BBA30-9F2C-4CD6-96B7-4A74A7087E78";
shapes = (
{
closed = 1;
nodes = (
(140,716,l),
(140,636,l),
(524,636,l),
(524,716,l)
);
},
{
closed = 1;
nodes = (
(332,644,l),
(120,414,l),
(180,360,l),
(292,484,l),
(292,-156,l),
(372,-156,l),
(372,484,l),
(484,360,l),
(544,414,l)
);
}
);
width = 664;
},
{
layerId = "C41EA034-4E7F-46DC-9CBA-05541AA6484D";
width = 600;
}
);
note = uni2912;
unicode = 10514;
}
{
export = 0;
glyphname = downArrowToBar;
layers = (
{
layerId = "C73C0C47-E6C6-445A-8A34-E4CE4D1E91FA";
shapes = (
{
closed = 1;
nodes = (
(636,-80,l),
(284,-80,l),
(284,-58,l),
(636,-58,l)
);
},
{
closed = 1;
nodes = (
(460,-62,l),
(282,131,l),
(299,146,l),
(449,-17,l),
(449,640,l),
(471,640,l),
(471,-17,l),
(621,146,l),
(638,131,l)
);
}
);
width = 960;
},
{
layerId = "D83BBA30-9F2C-4CD6-96B7-4A74A7087E78";
shapes = (
{
closed = 1;
nodes = (
(140,-156,l),
(140,-76,l),
(524,-76,l),
(524,-156,l)
);
},
{
closed = 1;
nodes = (
(332,-84,l),
(120,146,l),
(180,200,l),
(292,76,l),
(292,716,l),
(372,716,l),
(372,76,l),
(484,200,l),
(544,146,l)
);
}
);
width = 664;
},
{
layerId = "C41EA034-4E7F-46DC-9CBA-05541AA6484D";
width = 600;
}
);
note = uni2913;
unicode = 10515;
}
{
color = 4;
glyphname = leftArrowTail;
layers = (
{
layerId = "C73C0C47-E6C6-445A-8A34-E4CE4D1E91FA";
shapes = (
{
closed = 1;
nodes = (
(640,269,l),
(640,291,l),
(100,291,l),
(100,269,l)
);
},
{
pos = (612,0);
ref = arrowTail;
}
);
width = 920;
},
{
layerId = "D83BBA30-9F2C-4CD6-96B7-4A74A7087E78";
shapes = (
{
closed = 1;
nodes = (
(720,242,l),
(720,318,l),
(120,318,l),
(120,242,l)
);
},
{
pos = (640,0);
ref = arrowTail;
}
);
width = 1040;
},
{
layerId = "C41EA034-4E7F-46DC-9CBA-05541AA6484D";
shapes = (
{
closed = 1;
nodes = (
(740,197,l),
(740,363,l),
(120,363,l),
(120,197,l)
);
},
{
pos = (612,0);
ref = arrowTail;
}
);
width = 1110;
}
);
note = uni2919;
unicode = 10521;
}
{
color = 4;
glyphname = leftDoubleArrowTail;
layers = (
{
background = {
shapes = (
{
closed = 1;
nodes = (
(484,269,l),
(665,102,l),
(680,119,l),
(517,269,l),
(624,269,l),
(805,102,l),
(820,119,l),
(645,280,l),
(820,441,l),
(805,458,l),
(624,291,l),
(517,291,l),
(680,441,l),
(665,458,l),
(484,291,l),
(100,291,l),
(100,269,l)
);
}
);
};
layerId = "C73C0C47-E6C6-445A-8A34-E4CE4D1E91FA";
shapes = (
{
closed = 1;
nodes = (
(640,269,l),
(640,291,l),
(100,291,l),
(100,269,l)
);
},
{
pos = (472,0);
ref = arrowTail;
},
{
pos = (612,0);
ref = arrowTail;
}
);
width = 920;
},
{
layerId = "D83BBA30-9F2C-4CD6-96B7-4A74A7087E78";
shapes = (
{
closed = 1;
nodes = (
(720,242,l),
(720,318,l),
(120,318,l),
(120,242,l)
);
},
{
pos = (460,0);
ref = arrowTail;
},
{
pos = (640,0);
ref = arrowTail;
}
);
width = 1040;
},
{
layerId = "C41EA034-4E7F-46DC-9CBA-05541AA6484D";
shapes = (
{
closed = 1;
nodes = (
(780,197,l),
(780,363,l),
(120,363,l),
(120,197,l)
);
},
{
pos = (402,0);
ref = arrowTail;
},
{
pos = (652,0);
ref = arrowTail;
}
);
width = 1150;
}
);
note = uni291B;
unicode = 10523;
}
{
color = 4;
glyphname = northWestArrowAndNorthEastArrow;
layers = (
{
layerId = "C73C0C47-E6C6-445A-8A34-E4CE4D1E91FA";
shapes = (
{
closed = 1;
nodes = (
(100,-23,l),
(692,569,l),
(658,566,o),
(634,565,o),
(586,563,cs),
(469,558,l),
(469,580,l),
(730,591,l),
(719,330,l),
(697,330,l),
(702,447,ls),
(704,495,o),
(705,519,o),
(708,553,c),
(116,-39,l)
);
},
{
closed = 1;
nodes = (
(122,553,l),
(125,519,o),
(126,495,o),
(128,447,cs),
(133,330,l),
(111,330,l),
(100,591,l),
(361,580,l),
(361,558,l),
(244,563,ls),
(196,565,o),
(172,566,o),
(138,569,c),
(730,-23,l),
(714,-39,l)
);
}
);
width = 830;
},
{
layerId = "D83BBA30-9F2C-4CD6-96B7-4A74A7087E78";
shapes = (
{
closed = 1;
nodes = (
(120,-33,l),
(695,542,l),
(668,537,o),
(640,535,o),
(607,534,cs),
(515,531,l),
(513,606,l),
(825,619,l),
(812,307,l),
(737,309,l),
(740,401,ls),
(741,434,o),
(743,463,o),
(749,490,c),
(173,-86,l)
);
},
{
closed = 1;
nodes = (
(196,490,l),
(202,463,o),
(204,434,o),
(205,401,cs),
(208,309,l),
(133,307,l),
(120,619,l),
(432,606,l),
(430,531,l),
(338,534,ls),
(305,535,o),
(277,537,o),
(250,542,c),
(825,-33,l),
(772,-86,l)
);
}
);
width = 945;
},
{
layerId = "C41EA034-4E7F-46DC-9CBA-05541AA6484D";
shapes = (
{
closed = 1;
nodes = (
(120,-25,l),
(663,517,l),
(619,511,o),
(584,508,o),
(548,508,cs),
(532,508,l),
(534,654,l),
(907,644,l),
(918,251,l),
(768,249,l),
(767,285,ls),
(766,321,o),
(766,352,o),
(776,396,c),
(238,-143,l)
);
},
{
closed = 1;
nodes = (
(262,396,l),
(272,352,o),
(272,321,o),
(271,285,cs),
(270,249,l),
(120,251,l),
(131,644,l),
(504,654,l),
(506,508,l),
(490,508,ls),
(454,508,o),
(419,511,o),
(375,517,c),
(918,-25,l),
(800,-143,l)
);
}
);
width = 1038;
}
);
note = uni2927;
unicode = 10535;
}
{
color = 8;
export = 0;
glyphname = risingDiagonalCrossingFallingDiagonal;
layers = (
{
layerId = "D42A05F0-DBDC-4569-915A-03C7188507B6";
width = 760;
},
{
layerId = "B2FE45D6-EF48-417F-ACCD-B60D15D1CAF3";
shapes = (
{
closed = 1;
nodes = (
(100,12,l),
(116,-4,l),
(660,541,l),
(645,556,l)
);
},
{
closed = 1;
nodes = (
(100,541,l),
(326,314,l),
(342,330,l),
(115,556,l)
);
},
{
closed = 1;
nodes = (
(418,223,l),
(644,-4,l),
(660,12,l),
(433,238,l)
);
}
);
width = 760;
},
{
layerId = "D92A4C0B-EB2A-4209-AFE3-2959A8B274DD";
width = 760;
},
{
layerId = "B26C53A4-97D1-457B-8232-65310EC64496";
width = 600;
}
);
note = uni292B;
subCategory = Arrow;
unicode = 10539;
}
{
export = 0;
glyphname = fallingDiagonalCrossingRisingDiagonal;
layers = (
{
layerId = "C73C0C47-E6C6-445A-8A34-E4CE4D1E91FA";
shapes = (
{
closed = 1;
nodes = (
(100,12,l),
(116,-4,l),
(342,223,l),
(327,238,l)
);
},
{
closed = 1;
nodes = (
(100,541,l),
(644,-4,l),
(660,12,l),
(115,556,l)
);
},
{
closed = 1;
nodes = (
(418,330,l),
(434,314,l),
(660,541,l),
(645,556,l)
);
}
);
width = 760;
},
{
layerId = "D83BBA30-9F2C-4CD6-96B7-4A74A7087E78";
width = 600;
},
{
layerId = "C41EA034-4E7F-46DC-9CBA-05541AA6484D";
width = 600;
}
);
note = uni292C;
unicode = 10540;
}
{
color = 8;
export = 0;
glyphname = northEastArrowCrossingSouthEastArrow;
layers = (
{
layerId = "D42A05F0-DBDC-4569-915A-03C7188507B6";
width = 760;
},
{
layerId = "B2FE45D6-EF48-417F-ACCD-B60D15D1CAF3";
shapes = (
{
closed = 1;
nodes = (
(100,12,l),
(116,-4,l),
(632,513,l),
(610,338,l),
(632,334,l),
(660,556,l),
(438,528,l),
(442,506,l),
(617,528,l)
);
},
{
closed = 1;
nodes = (
(100,540,l),
(327,314,l),
(342,329,l),
(116,556,l)
);
},
{
closed = 1;
nodes = (
(418,222,l),
(617,24,l),
(442,46,l),
(438,24,l),
(660,-4,l),
(632,218,l),
(610,214,l),
(632,39,l),
(434,238,l)
);
}
);
width = 760;
},
{
layerId = "D92A4C0B-EB2A-4209-AFE3-2959A8B274DD";
width = 760;
},
{
layerId = "B26C53A4-97D1-457B-8232-65310EC64496";
width = 600;
}
);
note = uni292E;
subCategory = Arrow;
unicode = 10542;
}
{
export = 0;
glyphname = fallingDiagonalCrossingNorthEastArrow;
layers = (
{
layerId = "C73C0C47-E6C6-445A-8A34-E4CE4D1E91FA";
shapes = (
{
closed = 1;
nodes = (
(100,12,l),
(116,-4,l),
(342,223,l),
(327,238,l)
);
},
{
closed = 1;
nodes = (
(100,541,l),
(644,-4,l),
(660,12,l),
(115,556,l)
);
},
{
closed = 1;
nodes = (
(418,330,l),
(434,314,l),
(632,513,l),
(610,338,l),
(632,334,l),
(660,556,l),
(438,528,l),
(442,506,l),
(617,528,l)
);
}
);
width = 760;
},
{
layerId = "D83BBA30-9F2C-4CD6-96B7-4A74A7087E78";
width = 600;
},
{
layerId = "C41EA034-4E7F-46DC-9CBA-05541AA6484D";
width = 600;
}
);
note = uni292F;
unicode = 10543;
}
{
export = 0;
glyphname = risingDiagonalCrossingSouthEastArrow;
layers = (
{
layerId = "C73C0C47-E6C6-445A-8A34-E4CE4D1E91FA";
shapes = (
{
closed = 1;
nodes = (
(100,12,l),
(116,-4,l),
(660,541,l),
(645,556,l)
);
},
{
closed = 1;
nodes = (
(100,540,l),
(327,314,l),
(342,329,l),
(116,556,l)
);
},
{
closed = 1;
nodes = (
(418,222,l),
(617,24,l),
(442,46,l),
(438,24,l),
(660,-4,l),
(632,218,l),
(610,214,l),
(632,39,l),
(434,238,l)
);
}
);
width = 760;
},
{
layerId = "D83BBA30-9F2C-4CD6-96B7-4A74A7087E78";
width = 600;
},
{
layerId = "C41EA034-4E7F-46DC-9CBA-05541AA6484D";
width = 600;
}
);
note = uni2930;
unicode = 10544;
}
{
export = 0;
glyphname = northEastArrowCrossingNorthWestArrow;
layers = (
{
layerId = "C73C0C47-E6C6-445A-8A34-E4CE4D1E91FA";
shapes = (
{
closed = 1;
nodes = (
(100,12,l),
(116,-4,l),
(632,513,l),
(610,338,l),
(632,334,l),
(660,556,l),
(438,528,l),
(442,506,l),
(617,528,l)
);
},
{
closed = 1;
nodes = (
(100,556,l),
(128,334,l),
(150,338,l),
(128,513,l),
(326,314,l),
(342,330,l),
(143,528,l),
(318,506,l),
(322,528,l)
);
},
{
closed = 1;
nodes = (
(418,223,l),
(644,-4,l),
(660,12,l),
(433,238,l)
);
}
);
width = 760;
},
{
layerId = "D83BBA30-9F2C-4CD6-96B7-4A74A7087E78";
width = 600;
},
{
layerId = "C41EA034-4E7F-46DC-9CBA-05541AA6484D";
width = 600;
}
);
note = uni2931;
unicode = 10545;
}
{
color = 4;
glyphname = leftBarbUpRightBarbUpHarpoon;
layers = (
{
layerId = "C73C0C47-E6C6-445A-8A34-E4CE4D1E91FA";
shapes = (
{
closed = 1;
nodes = (
(866,269,l),
(866,291,l),
(134,291,l),
(134,269,l)
);
},
{
pos = (95,0);
ref = harpoonHead;
},
{
pos = (905,0);
ref = harpoonHead;
scale = (-1,1);
}
);
width = 1000;
},
{
layerId = "D83BBA30-9F2C-4CD6-96B7-4A74A7087E78";
shapes = (
{
closed = 1;
nodes = (
(880,242,l),
(880,318,l),
(240,318,l),
(240,242,l)
);
},
{
pos = (110,0);
ref = harpoonHead;
},
{
pos = (1010,0);
ref = harpoonHead;
scale = (-1,1);
}
);
width = 1120;
},
{
layerId = "C41EA034-4E7F-46DC-9CBA-05541AA6484D";
shapes = (
{
closed = 1;
nodes = (
(940,197,l),
(940,363,l),
(340,363,l),
(340,197,l)
);
},
{
pos = (95,0);
ref = harpoonHead;
},
{
pos = (1185,0);
ref = harpoonHead;
scale = (-1,1);
}
);
width = 1280;
}
);
note = uni294E;
unicode = 10574;
}
{
export = 0;
glyphname = leftHarpoonWithBarbUpToBar;
layers = (
{
layerId = "C73C0C47-E6C6-445A-8A34-E4CE4D1E91FA";
shapes = (
{
closed = 1;
nodes = (
(100,456,l),
(100,104,l),
(122,104,l),
(122,456,l)
);
},
{
closed = 1;
nodes = (
(113,276,l),
(118,269,l),
(820,269,l),
(820,291,l),
(163,291,l),
(326,441,l),
(311,458,l)
);
}
);
width = 920;
},
{
layerId = "D83BBA30-9F2C-4CD6-96B7-4A74A7087E78";
width = 600;
},
{
layerId = "C41EA034-4E7F-46DC-9CBA-05541AA6484D";
width = 600;
}
);
note = uni2952;
unicode = 10578;
}
{
color = 8;
export = 0;
glyphname = rightHarpoonWithBarbUpToBar;
layers = (
{
layerId = "D42A05F0-DBDC-4569-915A-03C7188507B6";
width = 920;
},
{
layerId = "B2FE45D6-EF48-417F-ACCD-B60D15D1CAF3";
shapes = (
{
closed = 1;
nodes = (
(820,456,l),
(820,104,l),
(798,104,l),
(798,456,l)
);
},
{
closed = 1;
nodes = (
(807,276,l),
(802,269,l),
(100,269,l),
(100,291,l),
(757,291,l),
(594,441,l),
(609,458,l)
);
}
);
width = 920;
},
{
layerId = "D92A4C0B-EB2A-4209-AFE3-2959A8B274DD";
width = 760;
},
{
layerId = "B26C53A4-97D1-457B-8232-65310EC64496";
width = 600;
}
);
note = uni2953;
subCategory = Arrow;
unicode = 10579;
}
{
export = 0;
glyphname = upHarpoonWithBarbRightToBar;
layers = (
{
layerId = "C73C0C47-E6C6-445A-8A34-E4CE4D1E91FA";
shapes = (
{
closed = 1;
nodes = (
(454,641,l),
(102,641,l),
(102,619,l),
(454,619,l)
);
},
{
closed = 1;
nodes = (
(274,628,l),
(267,623,l),
(267,-79,l),
(289,-79,l),
(289,578,l),
(439,415,l),
(456,430,l)
);
}
);
width = 556;
},
{
layerId = "D83BBA30-9F2C-4CD6-96B7-4A74A7087E78";
width = 600;
},
{
layerId = "C41EA034-4E7F-46DC-9CBA-05541AA6484D";
width = 600;
}
);
note = uni2954;
unicode = 10580;
}
{
color = 8;
export = 0;
glyphname = downHarpoonWithBarbRightToBar;
layers = (
{
layerId = "D42A05F0-DBDC-4569-915A-03C7188507B6";
width = 556;
},
{
layerId = "B2FE45D6-EF48-417F-ACCD-B60D15D1CAF3";
shapes = (
{
closed = 1;
nodes = (
(454,-79,l),
(102,-79,l),
(102,-57,l),
(454,-57,l)
);
},
{
closed = 1;
nodes = (
(274,-66,l),
(267,-61,l),
(267,641,l),
(289,641,l),
(289,-16,l),
(439,147,l),
(456,132,l)
);
}
);
width = 556;
},
{
layerId = "D92A4C0B-EB2A-4209-AFE3-2959A8B274DD";
width = 760;
},
{
layerId = "B26C53A4-97D1-457B-8232-65310EC64496";
width = 600;
}
);
note = uni2955;
subCategory = Arrow;
unicode = 10581;
}
{
export = 0;
glyphname = leftHarpoonWithBarbDownToBar;
layers = (
{
layerId = "C73C0C47-E6C6-445A-8A34-E4CE4D1E91FA";
shapes = (
{
closed = 1;
nodes = (
(100,104,l),
(100,456,l),
(122,456,l),
(122,104,l)
);
},
{
closed = 1;
nodes = (
(113,284,l),
(118,291,l),
(820,291,l),
(820,269,l),
(163,269,l),
(326,119,l),
(311,102,l)
);
}
);
width = 920;
},
{
layerId = "D83BBA30-9F2C-4CD6-96B7-4A74A7087E78";
width = 600;
},
{
layerId = "C41EA034-4E7F-46DC-9CBA-05541AA6484D";
width = 600;
}
);
note = uni2956;
unicode = 10582;
}
{
export = 0;
glyphname = rightHarpoonWithBarbDownToBar;
layers = (
{
layerId = "C73C0C47-E6C6-445A-8A34-E4CE4D1E91FA";
shapes = (
{
closed = 1;
nodes = (
(820,104,l),
(820,456,l),
(798,456,l),
(798,104,l)
);
},
{
closed = 1;
nodes = (
(807,284,l),
(802,291,l),
(100,291,l),
(100,269,l),
(757,269,l),
(594,119,l),
(609,102,l)
);
}
);
width = 920;
},
{
layerId = "D83BBA30-9F2C-4CD6-96B7-4A74A7087E78";
width = 600;
},
{
layerId = "C41EA034-4E7F-46DC-9CBA-05541AA6484D";
width = 600;
}
);
note = uni2957;
unicode = 10583;
}
{
export = 0;
glyphname = upHarpoonWithBarbLeftToBar;
layers = (
{
layerId = "C73C0C47-E6C6-445A-8A34-E4CE4D1E91FA";
shapes = (
{
closed = 1;
nodes = (
(102,639,l),
(454,639,l),
(454,617,l),
(102,617,l)
);
},
{
closed = 1;
nodes = (
(282,626,l),
(289,621,l),
(289,-81,l),
(267,-81,l),
(267,576,l),
(117,413,l),
(100,428,l)
);
}
);
width = 556;
},
{
layerId = "D83BBA30-9F2C-4CD6-96B7-4A74A7087E78";
width = 600;
},
{
layerId = "C41EA034-4E7F-46DC-9CBA-05541AA6484D";
width = 600;
}
);
note = uni2958;
unicode = 10584;
}
{
export = 0;
glyphname = downHarpoonWithBarbLeftToBar;
layers = (
{
layerId = "C73C0C47-E6C6-445A-8A34-E4CE4D1E91FA";
shapes = (
{
closed = 1;
nodes = (
(102,-81,l),
(454,-81,l),
(454,-59,l),
(102,-59,l)
);
},
{
closed = 1;
nodes = (
(282,-68,l),
(289,-63,l),
(289,639,l),
(267,639,l),
(267,-18,l),
(117,145,l),
(100,130,l)
);
}
);
width = 556;
},
{
layerId = "D83BBA30-9F2C-4CD6-96B7-4A74A7087E78";
width = 600;
},
{
layerId = "C41EA034-4E7F-46DC-9CBA-05541AA6484D";
width = 600;
}
);
note = uni2959;
unicode = 10585;
}
{
color = 4;
glyphname = leftHarpoonWithBarbUpFromBar;
layers = (
{
layerId = "C73C0C47-E6C6-445A-8A34-E4CE4D1E91FA";
shapes = (
{
closed = 1;
nodes = (
(820,104,l),
(820,456,l),
(798,456,l),
(798,104,l)
);
},
{
ref = leftBarbUpHarpoon;
}
);
width = 920;
},
{
layerId = "D83BBA30-9F2C-4CD6-96B7-4A74A7087E78";
shapes = (
{
closed = 1;
nodes = (
(920,88,l),
(920,472,l),
(844,472,l),
(844,88,l)
);
},
{
ref = leftBarbUpHarpoon;
}
);
width = 1040;
},
{
layerId = "C41EA034-4E7F-46DC-9CBA-05541AA6484D";
shapes = (
{
closed = 1;
nodes = (
(990,10,l),
(990,550,l),
(824,550,l),
(824,10,l)
);
},
{
ref = leftBarbUpHarpoon;
}
);
width = 1110;
}
);
note = uni295A;
unicode = 10586;
}
{
export = 0;
glyphname = leftHarpoonWithBarbUpAboveLeftHarpoonWithBarbDown;
layers = (
{
layerId = "C73C0C47-E6C6-445A-8A34-E4CE4D1E91FA";
shapes = (
{
closed = 1;
nodes = (
(95,205,l),
(100,212,l),
(820,212,l),
(820,190,l),
(145,190,l),
(308,40,l),
(293,23,l)
);
},
{
closed = 1;
nodes = (
(95,355,l),
(100,348,l),
(820,348,l),
(820,370,l),
(145,370,l),
(308,520,l),
(293,537,l)
);
}
);
width = 920;
},
{
layerId = "D83BBA30-9F2C-4CD6-96B7-4A74A7087E78";
width = 600;
},
{
layerId = "C41EA034-4E7F-46DC-9CBA-05541AA6484D";
width = 600;
}
);
note = uni2962;
unicode = 10594;
}
{
export = 0;
glyphname = upHarpoonWithBarbLeftBesideUpHarpoonWithBarbRight;
layers = (
{
layerId = "C73C0C47-E6C6-445A-8A34-E4CE4D1E91FA";
shapes = (
{
closed = 1;
nodes = (
(382,642,l),
(390,638,l),
(390,-82,l),
(368,-82,l),
(368,592,l),
(218,430,l),
(200,444,l)
);
},
{
closed = 1;
nodes = (
(532,642,l),
(526,638,l),
(526,-82,l),
(548,-82,l),
(548,592,l),
(698,430,l),
(714,444,l)
);
}
);
width = 920;
},
{
layerId = "D83BBA30-9F2C-4CD6-96B7-4A74A7087E78";
width = 600;
},
{
layerId = "C41EA034-4E7F-46DC-9CBA-05541AA6484D";
width = 600;
}
);
note = uni2963;
unicode = 10595;
}
{
export = 0;
glyphname = rightHarpoonWithBarbUpAboveRightHarpoonWithBarbDown;
layers = (
{
layerId = "C73C0C47-E6C6-445A-8A34-E4CE4D1E91FA";
shapes = (
{
closed = 1;
nodes = (
(820,205,l),
(815,212,l),
(95,212,l),
(95,190,l),
(770,190,l),
(607,40,l),
(622,23,l)
);
},
{
closed = 1;
nodes = (
(820,355,l),
(815,348,l),
(95,348,l),
(95,370,l),
(770,370,l),
(607,520,l),
(622,537,l)
);
}
);
width = 920;
},
{
layerId = "D83BBA30-9F2C-4CD6-96B7-4A74A7087E78";
width = 600;
},
{
layerId = "C41EA034-4E7F-46DC-9CBA-05541AA6484D";
width = 600;
}
);
note = uni2964;
unicode = 10596;
}
{
export = 0;
glyphname = downHarpoonWithBarbLeftBesideDownHarpoonWithBarbRight;
layers = (
{
layerId = "C73C0C47-E6C6-445A-8A34-E4CE4D1E91FA";
shapes = (
{
closed = 1;
nodes = (
(382,-82,l),
(390,-78,l),
(390,642,l),
(368,642,l),
(368,-32,l),
(218,130,l),
(200,116,l)
);
},
{
closed = 1;
nodes = (
(532,-82,l),
(526,-78,l),
(526,642,l),
(548,642,l),
(548,-32,l),
(698,130,l),
(714,116,l)
);
}
);
width = 920;
},
{
layerId = "D83BBA30-9F2C-4CD6-96B7-4A74A7087E78";
width = 600;
},
{
layerId = "C41EA034-4E7F-46DC-9CBA-05541AA6484D";
width = 600;
}
);
note = uni2965;
unicode = 10597;
}
{
color = 8;
export = 0;
glyphname = leftHarpoonWithBarbUpAboveRightHarpoonWithBarbUp;
layers = (
{
layerId = "D42A05F0-DBDC-4569-915A-03C7188507B6";
width = 930;
},
{
layerId = "B2FE45D6-EF48-417F-ACCD-B60D15D1CAF3";
shapes = (
{
closed = 1;
nodes = (
(830,197,l),
(825,190,l),
(105,190,l),
(105,212,l),
(780,212,l),
(676,308,l),
(691,325,l)
);
},
{
closed = 1;
nodes = (
(100,355,l),
(105,348,l),
(825,348,l),
(825,370,l),
(150,370,l),
(313,520,l),
(298,537,l)
);
}
);
width = 930;
},
{
layerId = "D92A4C0B-EB2A-4209-AFE3-2959A8B274DD";
width = 760;
},
{
layerId = "B26C53A4-97D1-457B-8232-65310EC64496";
width = 600;
}
);
note = uni2966;
subCategory = Arrow;
unicode = 10598;
}
{
export = 0;
glyphname = leftHarpoonWithBarbDownAboveRightHarpoonWithBarbDown;
layers = (
{
layerId = "C73C0C47-E6C6-445A-8A34-E4CE4D1E91FA";
shapes = (
{
closed = 1;
nodes = (
(100,363,l),
(105,370,l),
(825,370,l),
(825,348,l),
(150,348,l),
(254,252,l),
(239,235,l)
);
},
{
closed = 1;
nodes = (
(830,205,l),
(825,212,l),
(105,212,l),
(105,190,l),
(780,190,l),
(617,40,l),
(632,23,l)
);
}
);
width = 930;
},
{
layerId = "D83BBA30-9F2C-4CD6-96B7-4A74A7087E78";
width = 600;
},
{
layerId = "C41EA034-4E7F-46DC-9CBA-05541AA6484D";
width = 600;
}
);
note = uni2967;
unicode = 10599;
}
{
export = 0;
glyphname = rightHarpoonWithBarbUpAboveLeftHarpoonWithBarbUp;
layers = (
{
layerId = "C73C0C47-E6C6-445A-8A34-E4CE4D1E91FA";
shapes = (
{
closed = 1;
nodes = (
(100,197,l),
(105,190,l),
(825,190,l),
(825,212,l),
(150,212,l),
(254,308,l),
(239,325,l)
);
},
{
closed = 1;
nodes = (
(830,355,l),
(825,348,l),
(105,348,l),
(105,370,l),
(780,370,l),
(617,520,l),
(632,537,l)
);
}
);
width = 930;
},
{
layerId = "D83BBA30-9F2C-4CD6-96B7-4A74A7087E78";
width = 600;
},
{
layerId = "C41EA034-4E7F-46DC-9CBA-05541AA6484D";
width = 600;
}
);
note = uni2968;
unicode = 10600;
}
{
color = 8;
export = 0;
glyphname = rightHarpoonWithBarbDownAboveLeftHarpoonWithBarbDown;
layers = (
{
layerId = "D42A05F0-DBDC-4569-915A-03C7188507B6";
width = 930;
},
{
layerId = "B2FE45D6-EF48-417F-ACCD-B60D15D1CAF3";
shapes = (
{
closed = 1;
nodes = (
(830,363,l),
(825,370,l),
(105,370,l),
(105,348,l),
(780,348,l),
(676,252,l),
(691,235,l)
);
},
{
closed = 1;
nodes = (
(100,205,l),
(105,212,l),
(825,212,l),
(825,190,l),
(150,190,l),
(313,40,l),
(298,23,l)
);
}
);
width = 930;
},
{
layerId = "D92A4C0B-EB2A-4209-AFE3-2959A8B274DD";
width = 760;
},
{
layerId = "B26C53A4-97D1-457B-8232-65310EC64496";
width = 600;
}
);
note = uni2969;
subCategory = Arrow;
unicode = 10601;
}
{
export = 0;
glyphname = leftHarpoonWithBarbUpAboveLongDash;
layers = (
{
layerId = "C73C0C47-E6C6-445A-8A34-E4CE4D1E91FA";
shapes = (
{
closed = 1;
nodes = (
(105,190,l),
(825,190,l),
(825,212,l),
(105,212,l)
);
},
{
closed = 1;
nodes = (
(100,355,l),
(105,348,l),
(825,348,l),
(825,370,l),
(150,370,l),
(313,520,l),
(298,537,l)
);
}
);
width = 925;
},
{
layerId = "D83BBA30-9F2C-4CD6-96B7-4A74A7087E78";
width = 600;
},
{
layerId = "C41EA034-4E7F-46DC-9CBA-05541AA6484D";
width = 600;
}
);
note = uni296A;
unicode = 10602;
}
{
color = 8;
export = 0;
glyphname = leftHarpoonWithBarbDownBelowLongDash;
layers = (
{
layerId = "D42A05F0-DBDC-4569-915A-03C7188507B6";
width = 925;
},
{
layerId = "B2FE45D6-EF48-417F-ACCD-B60D15D1CAF3";
shapes = (
{
closed = 1;
nodes = (
(105,370,l),
(825,370,l),
(825,348,l),
(105,348,l)
);
},
{
closed = 1;
nodes = (
(100,205,l),
(105,212,l),
(825,212,l),
(825,190,l),
(150,190,l),
(313,40,l),
(298,23,l)
);
}
);
width = 925;
},
{
layerId = "D92A4C0B-EB2A-4209-AFE3-2959A8B274DD";
width = 760;
},
{
layerId = "B26C53A4-97D1-457B-8232-65310EC64496";
width = 600;
}
);
note = uni296B;
subCategory = Arrow;
unicode = 10603;
}
{
color = 8;
export = 0;
glyphname = rightHarpoonWithBarbUpAboveLongDash;
layers = (
{
layerId = "D42A05F0-DBDC-4569-915A-03C7188507B6";
width = 925;
},
{
layerId = "B2FE45D6-EF48-417F-ACCD-B60D15D1CAF3";
shapes = (
{
closed = 1;
nodes = (
(820,190,l),
(100,190,l),
(100,212,l),
(820,212,l)
);
},
{
closed = 1;
nodes = (
(825,355,l),
(820,348,l),
(100,348,l),
(100,370,l),
(775,370,l),
(612,520,l),
(627,537,l)
);
}
);
width = 925;
},
{
layerId = "D92A4C0B-EB2A-4209-AFE3-2959A8B274DD";
width = 760;
},
{
layerId = "B26C53A4-97D1-457B-8232-65310EC64496";
width = 600;
}
);
note = uni296C;
subCategory = Arrow;
unicode = 10604;
}
{
export = 0;
glyphname = rightHarpoonWithBarbDownBelowLongDash;
layers = (
{
layerId = "C73C0C47-E6C6-445A-8A34-E4CE4D1E91FA";
shapes = (
{
closed = 1;
nodes = (
(820,370,l),
(100,370,l),
(100,348,l),
(820,348,l)
);
},
{
closed = 1;
nodes = (
(825,205,l),
(820,212,l),
(100,212,l),
(100,190,l),
(775,190,l),
(612,40,l),
(627,23,l)
);
}
);
width = 925;
},
{
layerId = "D83BBA30-9F2C-4CD6-96B7-4A74A7087E78";
width = 600;
},
{
layerId = "C41EA034-4E7F-46DC-9CBA-05541AA6484D";
width = 600;
}
);
note = uni296D;
unicode = 10605;
}
{
color = 8;
export = 0;
glyphname = upHarpoonWithBarbLeftBesideDownHarpoonWithBarbRight;
layers = (
{
layerId = "D42A05F0-DBDC-4569-915A-03C7188507B6";
width = 714;
},
{
layerId = "B2FE45D6-EF48-417F-ACCD-B60D15D1CAF3";
shapes = (
{
closed = 1;
nodes = (
(282,645,l),
(289,640,l),
(289,-80,l),
(267,-80,l),
(267,595,l),
(117,432,l),
(100,447,l)
);
},
{
closed = 1;
nodes = (
(432,-85,l),
(425,-80,l),
(425,640,l),
(447,640,l),
(447,-35,l),
(597,128,l),
(614,113,l)
);
}
);
width = 714;
},
{
layerId = "D92A4C0B-EB2A-4209-AFE3-2959A8B274DD";
shapes = (
{
closed = 1;
nodes = (
(332,666,l),
(301,690,l),
(80,450,l),
(140,396,l),
(252,520,l),
(252,-120,l),
(332,-120,l)
);
},
{
closed = 1;
nodes = (
(492,-106,l),
(523,-130,l),
(744,110,l),
(684,164,l),
(572,40,l),
(572,680,l),
(492,680,l)
);
}
);
width = 824;
},
{
layerId = "B26C53A4-97D1-457B-8232-65310EC64496";
width = 600;
}
);
note = uni296E;
subCategory = Arrow;
unicode = 10606;
}
{
export = 0;
glyphname = downHarpoonWithBarbLeftBesideUpHarpoonWithBarbRight;
layers = (
{
layerId = "C73C0C47-E6C6-445A-8A34-E4CE4D1E91FA";
shapes = (
{
closed = 1;
nodes = (
(282,-85,l),
(289,-80,l),
(289,640,l),
(267,640,l),
(267,-35,l),
(117,128,l),
(100,113,l)
);
},
{
closed = 1;
nodes = (
(432,645,l),
(425,640,l),
(425,-80,l),
(447,-80,l),
(447,595,l),
(597,432,l),
(614,447,l)
);
}
);
width = 714;
},
{
layerId = "D83BBA30-9F2C-4CD6-96B7-4A74A7087E78";
shapes = (
{
closed = 1;
nodes = (
(532,666,l),
(563,690,l),
(784,450,l),
(724,396,l),
(612,520,l),
(612,-120,l),
(532,-120,l)
);
},
{
closed = 1;
nodes = (
(372,-106,l),
(341,-130,l),
(120,110,l),
(180,164,l),
(292,40,l),
(292,680,l),
(372,680,l)
);
}
);
width = 904;
},
{
layerId = "C41EA034-4E7F-46DC-9CBA-05541AA6484D";
width = 600;
}
);
note = uni296F;
unicode = 10607;
}
{
export = 0;
glyphname = leftarrowwithcircle;
layers = (
{
layerId = "C73C0C47-E6C6-445A-8A34-E4CE4D1E91FA";
shapes = (
{
closed = 1;
nodes = (
(100,280,l),
(293,102,l),
(308,119,l),
(145,269,l),
(402,269,l),
(402,269,l),
(670,269,l),
(670,269,l),
(820,269,l),
(820,291,l),
(670,291,l),
(670,291,l),
(402,291,l),
(402,291,l),
(145,291,l),
(308,441,l),
(293,458,l)
);
},
{
closed = 1;
nodes = (
(386,197,o),
(453,130,o),
(536,130,cs),
(619,130,o),
(686,197,o),
(686,280,cs),
(686,363,o),
(619,430,o),
(536,430,cs),
(453,430,o),
(386,363,o),
(386,280,cs)
);
},
{
closed = 1;
nodes = (
(408,351,o),
(465,408,o),
(536,408,cs),
(607,408,o),
(664,351,o),
(664,280,cs),
(664,209,o),
(607,152,o),
(536,152,cs),
(465,152,o),
(408,209,o),
(408,280,cs)
);
}
);
width = 920;
},
{
layerId = "D83BBA30-9F2C-4CD6-96B7-4A74A7087E78";
shapes = (
{
closed = 1;
nodes = (
(120,280,l),
(350,68,l),
(401,125,l),
(274,242,l),
(500,242,l),
(500,242,l),
(740,242,l),
(740,242,l),
(920,242,l),
(920,318,l),
(740,318,l),
(740,318,l),
(500,318,l),
(500,318,l),
(274,318,l),
(401,435,l),
(350,492,l)
);
},
{
closed = 1;
nodes = (
(452,187,o),
(527,112,o),
(620,112,cs),
(713,112,o),
(788,187,o),
(788,280,cs),
(788,373,o),
(713,448,o),
(620,448,cs),
(527,448,o),
(452,373,o),
(452,280,cs)
);
},
{
closed = 1;
nodes = (
(516,337,o),
(563,384,o),
(620,384,cs),
(677,384,o),
(724,337,o),
(724,280,cs),
(724,223,o),
(677,176,o),
(620,176,cs),
(563,176,o),
(516,223,o),
(516,280,cs)
);
}
);
width = 1040;
},
{
layerId = "C41EA034-4E7F-46DC-9CBA-05541AA6484D";
shapes = (
{
closed = 1;
nodes = (
(120,280,l),
(390,-6,l),
(498,99,l),
(404,197,l),
(570,197,l),
(570,216,l),
(890,216,l),
(890,197,l),
(1070,197,l),
(1070,363,l),
(890,363,l),
(890,344,l),
(570,344,l),
(570,363,l),
(404,363,l),
(498,461,l),
(390,566,l)
);
},
{
closed = 1;
nodes = (
(490,148,o),
(598,40,o),
(730,40,cs),
(862,40,o),
(970,148,o),
(970,280,cs),
(970,412,o),
(862,520,o),
(730,520,cs),
(598,520,o),
(490,412,o),
(490,280,cs)
);
},
{
closed = 1;
nodes = (
(618,342,o),
(668,392,o),
(730,392,cs),
(792,392,o),
(842,342,o),
(842,280,cs),
(842,218,o),
(792,168,o),
(730,168,cs),
(668,168,o),
(618,218,o),
(618,280,cs)
);
}
);
width = 1190;
}
);
note = uni2B30;
unicode = 11056;
}
{
color = 8;
export = 0;
glyphname = threeLeftArrows;
layers = (
{
layerId = "D42A05F0-DBDC-4569-915A-03C7188507B6";
width = 920;
},
{
layerId = "D92A4C0B-EB2A-4209-AFE3-2959A8B274DD";
width = 760;
},
{
layerId = "B2FE45D6-EF48-417F-ACCD-B60D15D1CAF3";
shapes = (
{
closed = 1;
nodes = (
(100,-42,l),
(293,-220,l),
(308,-203,l),
(145,-53,l),
(820,-53,l),
(820,-31,l),
(145,-31,l),
(308,119,l),
(281,125,l)
);
},
{
closed = 1;
nodes = (
(100,280,l),
(281,113,l),
(308,119,l),
(145,269,l),
(820,269,l),
(820,291,l),
(145,291,l),
(308,441,l),
(281,447,l)
);
},
{
closed = 1;
nodes = (
(100,602,l),
(281,435,l),
(308,441,l),
(145,591,l),
(820,591,l),
(820,613,l),
(145,613,l),
(308,763,l),
(293,780,l)
);
}
);
width = 920;
},
{
layerId = "B26C53A4-97D1-457B-8232-65310EC64496";
shapes = (
{
closed = 1;
nodes = (
(404,43,l),
(478,120,l),
(336,189,l),
(120,-40,l),
(390,-326,l),
(498,-221,l),
(404,-123,l),
(990,-123,l),
(990,43,l)
);
},
{
closed = 1;
nodes = (
(404,363,l),
(478,440,l),
(336,509,l),
(120,280,l),
(336,51,l),
(478,120,l),
(404,197,l),
(990,197,l),
(990,363,l)
);
},
{
closed = 1;
nodes = (
(404,683,l),
(498,781,l),
(390,886,l),
(120,600,l),
(336,371,l),
(478,440,l),
(404,517,l),
(990,517,l),
(990,683,l)
);
}
);
width = 1110;
}
);
note = uni2B31;
subCategory = Arrow;
unicode = 11057;
}
{
export = 0;
glyphname = leftArrowWithCircledPlus;
layers = (
{
layerId = "C73C0C47-E6C6-445A-8A34-E4CE4D1E91FA";
shapes = (
{
closed = 1;
nodes = (
(100,280,l),
(293,102,l),
(308,119,l),
(145,269,l),
(368,269,l),
(368,269,l),
(704,269,l),
(704,269,l),
(820,269,l),
(820,291,l),
(704,291,l),
(704,291,l),
(368,291,l),
(368,291,l),
(145,291,l),
(308,441,l),
(293,458,l)
);
},
{
closed = 1;
nodes = (
(354,180,o),
(436,98,o),
(536,98,cs),
(636,98,o),
(718,180,o),
(718,280,cs),
(718,380,o),
(636,462,o),
(536,462,cs),
(436,462,o),
(354,380,o),
(354,280,cs)
);
},
{
closed = 1;
nodes = (
(376,368,o),
(448,440,o),
(536,440,cs),
(624,440,o),
(696,368,o),
(696,280,cs),
(696,192,o),
(624,120,o),
(536,120,cs),
(448,120,o),
(376,192,o),
(376,280,cs)
);
},
{
closed = 1;
nodes = (
(525,110,l),
(547,110,l),
(547,450,l),
(525,450,l)
);
}
);
width = 920;
},
{
layerId = "D83BBA30-9F2C-4CD6-96B7-4A74A7087E78";
shapes = (
{
closed = 1;
nodes = (
(120,280,l),
(350,68,l),
(401,125,l),
(274,242,l),
(460,242,l),
(460,246,l),
(780,246,l),
(780,242,l),
(920,242,l),
(920,318,l),
(780,318,l),
(780,314,l),
(460,314,l),
(460,318,l),
(274,318,l),
(401,435,l),
(350,492,l)
);
},
{
closed = 1;
nodes = (
(428,174,o),
(514,88,o),
(620,88,cs),
(726,88,o),
(812,174,o),
(812,280,cs),
(812,386,o),
(726,472,o),
(620,472,cs),
(514,472,o),
(428,386,o),
(428,280,cs)
);
},
{
closed = 1;
nodes = (
(492,351,o),
(549,408,o),
(620,408,cs),
(691,408,o),
(748,351,o),
(748,280,cs),
(748,209,o),
(691,152,o),
(620,152,cs),
(549,152,o),
(492,209,o),
(492,280,cs)
);
},
{
closed = 1;
nodes = (
(586,120,l),
(654,120,l),
(654,440,l),
(586,440,l)
);
}
);
width = 1040;
},
{
layerId = "C41EA034-4E7F-46DC-9CBA-05541AA6484D";
shapes = (
{
closed = 1;
nodes = (
(120,280,l),
(390,-6,l),
(498,99,l),
(404,197,l),
(562,197,l),
(562,220,l),
(922,220,l),
(922,197,l),
(1070,197,l),
(1070,363,l),
(922,363,l),
(922,340,l),
(562,340,l),
(562,363,l),
(404,363,l),
(498,461,l),
(390,566,l)
);
},
{
closed = 1;
nodes = (
(462,125,o),
(587,0,o),
(742,0,cs),
(897,0,o),
(1022,125,o),
(1022,280,cs),
(1022,435,o),
(897,560,o),
(742,560,cs),
(587,560,o),
(462,435,o),
(462,280,cs)
);
},
{
closed = 1;
nodes = (
(586,366,o),
(656,436,o),
(742,436,cs),
(828,436,o),
(898,366,o),
(898,280,cs),
(898,194,o),
(828,124,o),
(742,124,cs),
(656,124,o),
(586,194,o),
(586,280,cs)
);
},
{
closed = 1;
nodes = (
(682,88,l),
(802,88,l),
(802,472,l),
(682,472,l)
);
}
);
width = 1190;
}
);
note = uni2B32;
unicode = 11058;
}
{
color = 4;
glyphname = longLeftSquiggleArrow;
layers = (
{
layerId = "C73C0C47-E6C6-445A-8A34-E4CE4D1E91FA";
shapes = (
{
closed = 1;
nodes = (
(699,134,o),
(702,404,o),
(770,404,cs),
(838,404,o),
(841,134,o),
(930,134,cs),
(1019,134,o),
(1022,404,o),
(1090,404,cs),
(1158,404,o),
(1161,134,o),
(1250,134,cs),
(1339,134,o),
(1342,404,o),
(1410,404,cs),
(1459,404,o),
(1472,269,o),
(1542,269,cs),
(1580,269,l),
(1580,291,l),
(1545,291,ls),
(1486,291,o),
(1478,426,o),
(1410,426,cs),
(1321,426,o),
(1318,156,o),
(1250,156,cs),
(1182,156,o),
(1179,426,o),
(1090,426,cs),
(1001,426,o),
(998,156,o),
(930,156,cs),
(862,156,o),
(859,426,o),
(770,426,cs),
(681,426,o),
(678,156,o),
(610,156,cs),
(542,156,o),
(539,426,o),
(450,426,cs),
(382,426,o),
(374,291,o),
(315,291,cs),
(134,291,l),
(134,269,l),
(318,269,ls),
(388,269,o),
(401,404,o),
(450,404,cs),
(518,404,o),
(521,134,o),
(610,134,cs)
);
},
{
pos = (100,0);
ref = arrowHead;
}
);
width = 1680;
},
{
layerId = "D83BBA30-9F2C-4CD6-96B7-4A74A7087E78";
shapes = (
{
closed = 1;
nodes = (
(810,120,o),
(789,364,o),
(834,364,cs),
(879,364,o),
(858,120,o),
(980,120,cs),
(1102,120,o),
(1081,364,o),
(1126,364,cs),
(1171,364,o),
(1150,120,o),
(1272,120,cs),
(1394,120,o),
(1373,364,o),
(1418,364,cs),
(1451,364,o),
(1476,242,o),
(1600,242,cs),
(1644,242,l),
(1644,318,l),
(1600,318,ls),
(1513,318,o),
(1502,440,o),
(1418,440,cs),
(1296,440,o),
(1317,196,o),
(1272,196,cs),
(1227,196,o),
(1248,440,o),
(1126,440,cs),
(1004,440,o),
(1025,196,o),
(980,196,cs),
(935,196,o),
(956,440,o),
(834,440,cs),
(712,440,o),
(733,196,o),
(688,196,cs),
(643,196,o),
(664,440,o),
(542,440,cs),
(458,440,o),
(447,318,o),
(360,318,cs),
(240,318,l),
(240,242,l),
(360,242,ls),
(484,242,o),
(509,364,o),
(542,364,cs),
(587,364,o),
(566,120,o),
(688,120,cs)
);
},
{
pos = (120,0);
ref = arrowHead;
}
);
width = 1764;
},
{
layerId = "C41EA034-4E7F-46DC-9CBA-05541AA6484D";
shapes = (
{
closed = 1;
nodes = (
(969,37,o),
(977,343,o),
(999,343,cs),
(1021,343,o),
(1029,37,o),
(1173,37,cs),
(1317,37,o),
(1325,343,o),
(1347,343,cs),
(1369,343,o),
(1377,37,o),
(1521,37,cs),
(1665,37,o),
(1673,343,o),
(1695,343,cs),
(1717,343,o),
(1726,197,o),
(1879,197,cs),
(1942,197,l),
(1942,363,l),
(1894,363,ls),
(1808,363,o),
(1801,521,o),
(1695,521,cs),
(1551,521,o),
(1543,215,o),
(1521,215,cs),
(1499,215,o),
(1491,521,o),
(1347,521,cs),
(1203,521,o),
(1195,215,o),
(1173,215,cs),
(1151,215,o),
(1143,521,o),
(999,521,cs),
(855,521,o),
(847,215,o),
(825,215,cs),
(803,215,o),
(795,521,o),
(651,521,cs),
(545,521,o),
(538,363,o),
(452,363,cs),
(340,363,l),
(340,197,l),
(467,197,ls),
(620,197,o),
(629,343,o),
(651,343,cs),
(673,343,o),
(681,37,o),
(825,37,cs)
);
},
{
pos = (120,0);
ref = arrowHead;
}
);
width = 2062;
}
);
note = uni2B33;
unicode = 11059;
}
{
color = 4;
glyphname = leftTwoHeadedArrowWithVerticalStroke;
layers = (
{
layerId = "C73C0C47-E6C6-445A-8A34-E4CE4D1E91FA";
shapes = (
{
closed = 1;
nodes = (
(820,269,l),
(820,291,l),
(134,291,l),
(134,269,l)
);
},
{
closed = 1;
nodes = (
(600,104,l),
(600,456,l),
(578,456,l),
(578,104,l)
);
},
{
pos = (100,0);
ref = arrowHead;
},
{
pos = (240,0);
ref = arrowHead;
}
);
width = 920;
},
{
layerId = "D83BBA30-9F2C-4CD6-96B7-4A74A7087E78";
shapes = (
{
closed = 1;
nodes = (
(940,242,l),
(940,318,l),
(240,318,l),
(240,242,l)
);
},
{
closed = 1;
nodes = (
(770,88,l),
(770,472,l),
(694,472,l),
(694,88,l)
);
},
{
pos = (120,0);
ref = arrowHead;
},
{
pos = (320,0);
ref = arrowHead;
}
);
width = 1060;
},
{
layerId = "C41EA034-4E7F-46DC-9CBA-05541AA6484D";
shapes = (
{
closed = 1;
nodes = (
(1110,197,l),
(1110,363,l),
(340,363,l),
(340,197,l)
);
},
{
closed = 1;
nodes = (
(990,10,l),
(990,550,l),
(824,550,l),
(824,10,l)
);
},
{
pos = (120,0);
ref = arrowHead;
},
{
pos = (390,0);
ref = arrowHead;
}
);
width = 1230;
}
);
note = uni2B34;
unicode = 11060;
}
{
color = 4;
glyphname = leftTwoHeadedArrowWithDoubleVerticalStroke;
layers = (
{
layerId = "C73C0C47-E6C6-445A-8A34-E4CE4D1E91FA";
shapes = (
{
closed = 1;
nodes = (
(820,269,l),
(820,291,l),
(134,291,l),
(134,269,l)
);
},
{
closed = 1;
nodes = (
(552,104,l),
(552,456,l),
(530,456,l),
(530,104,l)
);
},
{
closed = 1;
nodes = (
(670,104,l),
(670,456,l),
(648,456,l),
(648,104,l)
);
},
{
pos = (100,0);
ref = arrowHead;
},
{
pos = (240,0);
ref = arrowHead;
}
);
width = 920;
},
{
layerId = "D83BBA30-9F2C-4CD6-96B7-4A74A7087E78";
shapes = (
{
closed = 1;
nodes = (
(980,242,l),
(980,318,l),
(240,318,l),
(240,242,l)
);
},
{
closed = 1;
nodes = (
(744,88,l),
(744,472,l),
(668,472,l),
(668,88,l)
);
},
{
closed = 1;
nodes = (
(880,88,l),
(880,472,l),
(804,472,l),
(804,88,l)
);
},
{
pos = (120,0);
ref = arrowHead;
},
{
pos = (320,0);
ref = arrowHead;
}
);
width = 1100;
},
{
layerId = "C41EA034-4E7F-46DC-9CBA-05541AA6484D";
shapes = (
{
closed = 1;
nodes = (
(1170,197,l),
(1170,363,l),
(340,363,l),
(340,197,l)
);
},
{
closed = 1;
nodes = (
(924,10,l),
(924,550,l),
(774,550,l),
(774,10,l)
);
},
{
closed = 1;
nodes = (
(1114,10,l),
(1114,550,l),
(964,550,l),
(964,10,l)
);
},
{
pos = (120,0);
ref = arrowHead;
},
{
pos = (380,0);
ref = arrowHead;
}
);
width = 1290;
}
);
note = uni2B35;
unicode = 11061;
}
{
color = 4;
glyphname = leftTwoHeadedArrowFromBar;
layers = (
{
layerId = "C73C0C47-E6C6-445A-8A34-E4CE4D1E91FA";
shapes = (
{
closed = 1;
nodes = (
(820,269,l),
(820,291,l),
(134,291,l),
(134,269,l)
);
},
{
closed = 1;
nodes = (
(820,104,l),
(820,456,l),
(798,456,l),
(798,104,l)
);
},
{
pos = (100,0);
ref = arrowHead;
},
{
pos = (240,0);
ref = arrowHead;
}
);
width = 920;
},
{
layerId = "D83BBA30-9F2C-4CD6-96B7-4A74A7087E78";
shapes = (
{
closed = 1;
nodes = (
(920,242,l),
(920,318,l),
(240,318,l),
(240,242,l)
);
},
{
closed = 1;
nodes = (
(920,88,l),
(920,472,l),
(844,472,l),
(844,88,l)
);
},
{
pos = (120,0);
ref = arrowHead;
},
{
pos = (320,0);
ref = arrowHead;
}
);
width = 1040;
},
{
layerId = "C41EA034-4E7F-46DC-9CBA-05541AA6484D";
shapes = (
{
closed = 1;
nodes = (
(1070,197,l),
(1070,363,l),
(340,363,l),
(340,197,l)
);
},
{
closed = 1;
nodes = (
(1070,10,l),
(1070,550,l),
(904,550,l),
(904,10,l)
);
},
{
pos = (120,0);
ref = arrowHead;
},
{
pos = (390,0);
ref = arrowHead;
}
);
width = 1190;
}
);
note = uni2B36;
unicode = 11062;
}
{
color = 4;
glyphname = leftArrowWithTailWithVerticalStroke;
layers = (
{
layerId = "C73C0C47-E6C6-445A-8A34-E4CE4D1E91FA";
shapes = (
{
closed = 1;
nodes = (
(640,269,l),
(640,291,l),
(134,291,l),
(134,269,l)
);
},
{
closed = 1;
nodes = (
(481,104,l),
(481,456,l),
(459,456,l),
(459,104,l)
);
},
{
pos = (100,0);
ref = arrowHead;
},
{
pos = (612,0);
ref = arrowTail;
}
);
width = 920;
},
{
layerId = "D83BBA30-9F2C-4CD6-96B7-4A74A7087E78";
shapes = (
{
closed = 1;
nodes = (
(740,242,l),
(740,318,l),
(240,318,l),
(240,242,l)
);
},
{
closed = 1;
nodes = (
(598,88,l),
(598,472,l),
(522,472,l),
(522,88,l)
);
},
{
pos = (120,0);
ref = arrowHead;
},
{
pos = (660,0);
ref = arrowTail;
}
);
width = 1060;
},
{
layerId = "C41EA034-4E7F-46DC-9CBA-05541AA6484D";
shapes = (
{
closed = 1;
nodes = (
(840,197,l),
(840,363,l),
(340,363,l),
(340,197,l)
);
},
{
closed = 1;
nodes = (
(733,10,l),
(733,550,l),
(567,550,l),
(567,10,l)
);
},
{
pos = (120,0);
ref = arrowHead;
},
{
pos = (712,0);
ref = arrowTail;
}
);
width = 1210;
}
);
note = uni2B39;
unicode = 11065;
}
{
color = 4;
glyphname = leftArrowWithTailWithDoubleVerticalStroke;
layers = (
{
layerId = "C73C0C47-E6C6-445A-8A34-E4CE4D1E91FA";
shapes = (
{
closed = 1;
nodes = (
(660,269,l),
(660,291,l),
(134,291,l),
(134,269,l)
);
},
{
closed = 1;
nodes = (
(437,104,l),
(437,456,l),
(415,456,l),
(415,104,l)
);
},
{
closed = 1;
nodes = (
(549,104,l),
(549,456,l),
(527,456,l),
(527,104,l)
);
},
{
pos = (100,0);
ref = arrowHead;
},
{
pos = (632,0);
ref = arrowTail;
}
);
width = 940;
},
{
layerId = "D83BBA30-9F2C-4CD6-96B7-4A74A7087E78";
shapes = (
{
closed = 1;
nodes = (
(760,242,l),
(760,318,l),
(240,318,l),
(240,242,l)
);
},
{
closed = 1;
nodes = (
(528,88,l),
(528,472,l),
(452,472,l),
(452,88,l)
);
},
{
closed = 1;
nodes = (
(664,88,l),
(664,472,l),
(588,472,l),
(588,88,l)
);
},
{
pos = (120,0);
ref = arrowHead;
},
{
pos = (680,0);
ref = arrowTail;
}
);
width = 1080;
},
{
layerId = "C41EA034-4E7F-46DC-9CBA-05541AA6484D";
shapes = (
{
closed = 1;
nodes = (
(940,197,l),
(940,363,l),
(340,363,l),
(340,197,l)
);
},
{
closed = 1;
nodes = (
(684,10,l),
(684,550,l),
(518,550,l),
(518,10,l)
);
},
{
closed = 1;
nodes = (
(882,10,l),
(882,550,l),
(716,550,l),
(716,10,l)
);
},
{
pos = (120,0);
ref = arrowHead;
},
{
pos = (812,0);
ref = arrowTail;
}
);
width = 1310;
}
);
note = uni2B3A;
unicode = 11066;
}
{
color = 4;
glyphname = leftTwoHeadedArrowWithTail;
layers = (
{
layerId = "C73C0C47-E6C6-445A-8A34-E4CE4D1E91FA";
shapes = (
{
closed = 1;
nodes = (
(640,269,l),
(640,291,l),
(134,291,l),
(134,269,l)
);
},
{
pos = (100,0);
ref = arrowHead;
},
{
pos = (240,0);
ref = arrowHead;
},
{
pos = (612,0);
ref = arrowTail;
}
);
width = 920;
},
{
layerId = "D83BBA30-9F2C-4CD6-96B7-4A74A7087E78";
shapes = (
{
closed = 1;
nodes = (
(760,242,l),
(760,318,l),
(240,318,l),
(240,242,l)
);
},
{
pos = (120,0);
ref = arrowHead;
},
{
pos = (310,0);
ref = arrowHead;
},
{
pos = (680,0);
ref = arrowTail;
}
);
width = 1080;
},
{
layerId = "C41EA034-4E7F-46DC-9CBA-05541AA6484D";
shapes = (
{
closed = 1;
nodes = (
(880,197,l),
(880,363,l),
(340,363,l),
(340,197,l)
);
},
{
pos = (120,0);
ref = arrowHead;
},
{
pos = (370,0);
ref = arrowHead;
},
{
pos = (752,0);
ref = arrowTail;
}
);
width = 1250;
}
);
note = uni2B3B;
unicode = 11067;
}
{
color = 4;
glyphname = leftTwoHeadedArrowWithTailWithVerticalStroke;
layers = (
{
layerId = "C73C0C47-E6C6-445A-8A34-E4CE4D1E91FA";
shapes = (
{
closed = 1;
nodes = (
(640,269,l),
(640,291,l),
(134,291,l),
(134,269,l)
);
},
{
closed = 1;
nodes = (
(553,104,l),
(553,456,l),
(531,456,l),
(531,104,l)
);
},
{
pos = (100,0);
ref = arrowHead;
},
{
pos = (240,0);
ref = arrowHead;
},
{
pos = (612,0);
ref = arrowTail;
}
);
width = 920;
},
{
layerId = "D83BBA30-9F2C-4CD6-96B7-4A74A7087E78";
shapes = (
{
closed = 1;
nodes = (
(840,242,l),
(840,318,l),
(240,318,l),
(240,242,l)
);
},
{
closed = 1;
nodes = (
(738,88,l),
(738,472,l),
(662,472,l),
(662,88,l)
);
},
{
pos = (120,0);
ref = arrowHead;
},
{
pos = (310,0);
ref = arrowHead;
},
{
pos = (760,0);
ref = arrowTail;
}
);
width = 1160;
},
{
layerId = "C41EA034-4E7F-46DC-9CBA-05541AA6484D";
shapes = (
{
closed = 1;
nodes = (
(950,197,l),
(950,363,l),
(340,363,l),
(340,197,l)
);
},
{
closed = 1;
nodes = (
(913,10,l),
(913,550,l),
(747,550,l),
(747,10,l)
);
},
{
pos = (120,0);
ref = arrowHead;
},
{
pos = (360,0);
ref = arrowHead;
},
{
pos = (822,0);
ref = arrowTail;
}
);
width = 1320;
}
);
note = uni2B3C;
unicode = 11068;
}
{
color = 4;
glyphname = leftTwoHeadedArrowWithTailWithDoubleVerticalStroke;
layers = (
{
layerId = "C73C0C47-E6C6-445A-8A34-E4CE4D1E91FA";
shapes = (
{
closed = 1;
nodes = (
(660,269,l),
(660,291,l),
(134,291,l),
(134,269,l)
);
},
{
closed = 1;
nodes = (
(519,104,l),
(519,456,l),
(497,456,l),
(497,104,l)
);
},
{
closed = 1;
nodes = (
(611,104,l),
(611,456,l),
(589,456,l),
(589,104,l)
);
},
{
pos = (100,0);
ref = arrowHead;
},
{
pos = (240,0);
ref = arrowHead;
},
{
pos = (632,0);
ref = arrowTail;
}
);
width = 940;
},
{
layerId = "D83BBA30-9F2C-4CD6-96B7-4A74A7087E78";
shapes = (
{
closed = 1;
nodes = (
(880,242,l),
(880,318,l),
(240,318,l),
(240,242,l)
);
},
{
closed = 1;
nodes = (
(688,88,l),
(688,472,l),
(612,472,l),
(612,88,l)
);
},
{
closed = 1;
nodes = (
(814,88,l),
(814,472,l),
(738,472,l),
(738,88,l)
);
},
{
pos = (120,0);
ref = arrowHead;
},
{
pos = (300,0);
ref = arrowHead;
},
{
pos = (800,0);
ref = arrowTail;
}
);
width = 1200;
},
{
layerId = "C41EA034-4E7F-46DC-9CBA-05541AA6484D";
shapes = (
{
closed = 1;
nodes = (
(1140,197,l),
(1140,363,l),
(340,363,l),
(340,197,l)
);
},
{
closed = 1;
nodes = (
(913,10,l),
(913,550,l),
(747,550,l),
(747,10,l)
);
},
{
closed = 1;
nodes = (
(1107,10,l),
(1107,550,l),
(941,550,l),
(941,10,l)
);
},
{
pos = (120,0);
ref = arrowHead;
},
{
pos = (360,0);
ref = arrowHead;
},
{
pos = (1012,0);
ref = arrowTail;
}
);
width = 1510;
}
);
note = uni2B3D;
unicode = 11069;
}
{
export = 0;
glyphname = leftQuadrupleArrow;
layers = (
{
layerId = "C73C0C47-E6C6-445A-8A34-E4CE4D1E91FA";
shapes = (
{
closed = 1;
nodes = (
(100,280,l),
(303,19,l),
(321,33,l),
(275,92,l),
(820,92,l),
(820,114,l),
(258,114,l),
(183,210,l),
(820,210,l),
(820,232,l),
(166,232,l),
(129,280,l),
(166,328,l),
(820,328,l),
(820,350,l),
(183,350,l),
(258,446,l),
(820,446,l),
(820,468,l),
(275,468,l),
(321,527,l),
(303,541,l)
);
}
);
width = 920;
},
{
layerId = "D83BBA30-9F2C-4CD6-96B7-4A74A7087E78";
shapes = (
{
closed = 1;
nodes = (
(120,280,l),
(389,-71,l),
(448,-24,l),
(423,8,l),
(920,8,l),
(920,84,l),
(365,84,l),
(304,164,l),
(920,164,l),
(920,240,l),
(246,240,l),
(215,280,l),
(246,320,l),
(920,320,l),
(920,396,l),
(304,396,l),
(365,476,l),
(920,476,l),
(920,552,l),
(423,552,l),
(448,584,l),
(389,631,l)
);
}
);
width = 1040;
},
{
layerId = "C41EA034-4E7F-46DC-9CBA-05541AA6484D";
shapes = (
{
closed = 1;
nodes = (
(120,280,l),
(420,-208,l),
(548,-129,l),
(527,-94,l),
(990,-94,l),
(990,58,l),
(433,58,l),
(406,102,l),
(990,102,l),
(990,254,l),
(313,254,l),
(297,280,l),
(308,298,l),
(990,298,l),
(990,450,l),
(401,450,l),
(428,494,l),
(990,494,l),
(990,646,l),
(522,646,l),
(548,689,l),
(420,768,l)
);
}
);
width = 1110;
}
);
note = uni2B45;
unicode = 11077;
}
{
color = 8;
export = 0;
glyphname = rightQuadrupleArrow;
layers = (
{
layerId = "D42A05F0-DBDC-4569-915A-03C7188507B6";
width = 920;
},
{
layerId = "B2FE45D6-EF48-417F-ACCD-B60D15D1CAF3";
shapes = (
{
closed = 1;
nodes = (
(100,92,l),
(645,92,l),
(599,33,l),
(617,19,l),
(820,280,l),
(617,541,l),
(599,527,l),
(645,468,l),
(100,468,l),
(100,446,l),
(662,446,l),
(737,350,l),
(100,350,l),
(100,328,l),
(754,328,l),
(791,280,l),
(754,232,l),
(100,232,l),
(100,210,l),
(737,210,l),
(662,114,l),
(100,114,l)
);
}
);
width = 920;
},
{
layerId = "D92A4C0B-EB2A-4209-AFE3-2959A8B274DD";
shapes = (
{
closed = 1;
nodes = (
(80,8,l),
(577,8,l),
(552,-24,l),
(611,-71,l),
(880,280,l),
(611,631,l),
(552,584,l),
(577,552,l),
(80,552,l),
(80,476,l),
(635,476,l),
(696,396,l),
(80,396,l),
(80,320,l),
(754,320,l),
(785,280,l),
(754,240,l),
(80,240,l),
(80,164,l),
(696,164,l),
(635,84,l),
(80,84,l)
);
}
);
width = 960;
},
{
layerId = "B26C53A4-97D1-457B-8232-65310EC64496";
shapes = (
{
closed = 1;
nodes = (
(120,-94,l),
(583,-94,l),
(562,-129,l),
(690,-208,l),
(990,280,l),
(690,768,l),
(562,689,l),
(588,646,l),
(120,646,l),
(120,494,l),
(682,494,l),
(709,450,l),
(120,450,l),
(120,298,l),
(802,298,l),
(813,280,l),
(797,254,l),
(120,254,l),
(120,102,l),
(704,102,l),
(677,58,l),
(120,58,l)
);
}
);
width = 1110;
}
);
note = uni2B46;
subCategory = Arrow;
unicode = 11078;
}
{
export = 0;
glyphname = arrowHead;
layers = (
{
layerId = "C73C0C47-E6C6-445A-8A34-E4CE4D1E91FA";
shapes = (
{
closed = 1;
nodes = (
(208,119,l),
(122,198,ls),
(86,231,o),
(68,247,o),
(42,269,c),
(54,269,l),
(54,291,l),
(42,291,l),
(68,313,o),
(86,329,o),
(122,362,cs),
(208,441,l),
(192,457,l),
(0,280,l),
(192,103,l)
);
}
);
width = 208;
},
{
layerId = "D83BBA30-9F2C-4CD6-96B7-4A74A7087E78";
shapes = (
{
closed = 1;
nodes = (
(280,124,l),
(214,186,ls),
(190,209,o),
(169,227,o),
(146,242,c),
(160,242,l),
(160,318,l),
(146,318,l),
(169,333,o),
(190,351,o),
(214,374,cs),
(280,436,l),
(229,491,l),
(0,280,l),
(229,69,l)
);
}
);
width = 280;
},
{
layerId = "C41EA034-4E7F-46DC-9CBA-05541AA6484D";
shapes = (
{
closed = 1;
nodes = (
(378,99,l),
(353,125,ls),
(329,150,o),
(302,172,o),
(264,197,c),
(280,197,l),
(280,363,l),
(264,363,l),
(302,388,o),
(329,410,o),
(353,435,cs),
(378,461,l),
(270,566,l),
(0,280,l),
(270,-6,l)
);
}
);
width = 378;
}
);
}
{
export = 0;
glyphname = arrowTail;
layers = (
{
layerId = "C73C0C47-E6C6-445A-8A34-E4CE4D1E91FA";
shapes = (
{
closed = 1;
nodes = (
(208,119,l),
(33,280,l),
(208,441,l),
(192,457,l),
(0,280,l),
(192,103,l)
);
}
);
width = 208;
},
{
layerId = "D83BBA30-9F2C-4CD6-96B7-4A74A7087E78";
shapes = (
{
closed = 1;
nodes = (
(280,124,l),
(114,280,l),
(280,436,l),
(229,491,l),
(0,280,l),
(229,69,l)
);
}
);
width = 280;
},
{
layerId = "C41EA034-4E7F-46DC-9CBA-05541AA6484D";
shapes = (
{
closed = 1;
nodes = (
(378,99,l),
(206,280,l),
(378,461,l),
(270,566,l),
(0,280,l),
(270,-6,l)
);
}
);
width = 378;
}
);
}
{
category = Component;
export = 0;
glyphname = doubleArrowHead;
layers = (
{
layerId = "D42A05F0-DBDC-4569-915A-03C7188507B6";
shapes = (
{
closed = 1;
nodes = (
(208,107,l),
(23,280,l),
(208,453,l),
(206,454,l),
(20,280,l),
(206,106,l)
);
}
);
width = 228;
},
{
layerId = "B2FE45D6-EF48-417F-ACCD-B60D15D1CAF3";
shapes = (
{
closed = 1;
nodes = (
(253,96,l),
(53,280,l),
(253,464,l),
(238,481,l),
(20,280,l),
(238,79,l)
);
}
);
width = 273;
},
{
layerId = "D92A4C0B-EB2A-4209-AFE3-2959A8B274DD";
shapes = (
{
closed = 1;
nodes = (
(352,68,l),
(128,280,l),
(352,492,l),
(300,548,l),
(20,280,l),
(300,12,l)
);
}
);
width = 372;
},
{
layerId = "B26C53A4-97D1-457B-8232-65310EC64496";
shapes = (
{
closed = 1;
nodes = (
(422,32,l),
(215,280,l),
(422,528,l),
(308,624,l),
(20,280,l),
(308,-64,l)
);
}
);
width = 442;
}
);
}
{
export = 0;
glyphname = harpoonHead;
layers = (
{
layerId = "C73C0C47-E6C6-445A-8A34-E4CE4D1E91FA";
shapes = (
{
closed = 1;
nodes = (
(59,269,l),
(59,291,l),
(47,291,l),
(73,313,o),
(91,329,o),
(127,362,cs),
(213,441,l),
(197,457,l),
(0,276,l),
(5,269,l)
);
}
);
width = 213;
},
{
layerId = "D83BBA30-9F2C-4CD6-96B7-4A74A7087E78";
shapes = (
{
closed = 1;
nodes = (
(170,242,l),
(170,318,l),
(156,318,l),
(179,333,o),
(200,351,o),
(224,374,cs),
(290,436,l),
(239,491,l),
(0,271,l),
(22,242,l)
);
}
);
width = 290;
},
{
layerId = "C41EA034-4E7F-46DC-9CBA-05541AA6484D";
shapes = (
{
closed = 1;
nodes = (
(305,197,l),
(305,363,l),
(289,363,l),
(327,388,o),
(354,410,o),
(378,435,cs),
(403,461,l),
(295,566,l),
(0,254,l),
(43,197,l)
);
}
);
width = 403;
}
);
}
